<svg width="73" height="66" viewBox="0 0 73 66" fill="none" xmlns="http://www.w3.org/2000/svg">
<path d="M44.3012 6.87697C57.2012 -3.02303 72.6012 0.676977 72.6012 0.676977C72.6012 0.676977 70.0012 18.977 57.1012 28.877C44.2012 38.777 25.7012 36.377 25.7012 36.377C25.7012 36.377 29.7012 30.377 33.7012 22.477C36.1012 17.877 39.5012 10.477 44.3012 6.87697Z" fill="white"/>
<path d="M13.2 21.7774C7.20001 17.1774 0 18.8774 0 18.8774C0 18.8774 1.20001 27.4774 7.20001 32.0774C13.2 36.6774 21.8 35.5774 21.8 35.5774C21.8 35.5774 19.9 32.7774 18.1 29.0774C17 26.8774 15.4 23.4774 13.2 21.7774Z" fill="white"/>
<path d="M14.7004 65.4758C16.5004 65.4758 18.2004 65.5758 20.0004 65.6758C18.4004 56.2758 18.7004 46.5758 23.6004 38.1758C15.1004 44.9758 11.0004 55.3758 8.90039 65.7758C10.8004 65.5758 12.7004 65.4758 14.7004 65.4758Z" fill="white"/>
</svg>
