<svg width="41" height="67" viewBox="0 0 41 67" fill="none" xmlns="http://www.w3.org/2000/svg">
<path d="M9.90961 47.081C7.94967 47.081 6.03375 47.6651 4.40413 48.7595C2.7745 49.8538 1.50436 51.4093 0.754329 53.2292C0.00429477 55.049 -0.19195 57.0516 0.190414 58.9835C0.572779 60.9155 1.51658 62.6901 2.90246 64.0829C4.28834 65.4758 6.05407 66.4243 7.97634 66.8086C9.89862 67.1929 11.8911 66.9957 13.7019 66.2419C15.5126 65.4881 17.0603 64.2115 18.1491 62.5737C19.238 60.9359 19.8192 59.0103 19.8192 57.0405C19.8192 54.3991 18.7752 51.8658 16.9168 49.9981C15.0584 48.1303 12.5378 47.081 9.90961 47.081ZM13.9583 61.1096L9.90961 58.3072L5.84445 61.1096L8.63281 57.0405L5.84445 52.9714L9.89314 55.7697L13.9418 52.9714L11.1576 57.0405L13.9583 61.1096Z" fill="white"/>
<path d="M31.8633 12.4186C29.8858 10.9972 27.6372 9.99415 25.256 9.47132C22.8748 8.94848 20.4114 8.91688 18.0175 9.37845C18.0175 9.37845 19.2691 18.3585 25.621 23.1915C31.9728 28.0245 41 26.8864 41 26.8864C39.5705 24.6811 38.2597 22.4017 37.0731 20.0578C35.8841 17.8128 34.2101 14.2115 31.8633 12.4186Z" fill="white"/>
<path d="M24.4945 6.81279C23.5704 7.48 22.519 7.95149 21.405 8.19817C20.291 8.44486 19.1381 8.46151 18.0175 8.2471C18.4155 5.75071 19.6707 3.4694 21.5689 1.7927C23.6891 0.404399 26.2274 -0.20727 28.7499 0.0621766C28.0823 1.06989 27.4661 2.11058 26.9038 3.18024C26.3628 4.54481 25.5422 5.78198 24.4945 6.81279Z" fill="white"/>
<path d="M18.0175 8.45066C18.0175 8.1173 18.2864 7.84705 18.618 7.84705C18.9497 7.84705 19.2186 8.1173 19.2186 8.45066V54.3247C19.2186 54.6581 18.9497 54.9283 18.618 54.9283C18.2864 54.9283 18.0175 54.6581 18.0175 54.3247V8.45066Z" fill="white"/>
</svg>
