<?xml version="1.0" standalone="no"?>
<!DOCTYPE svg PUBLIC "-//W3C//DTD SVG 20010904//EN"
 "http://www.w3.org/TR/2001/REC-SVG-20010904/DTD/svg10.dtd">
<svg version="1.0" xmlns="http://www.w3.org/2000/svg"
 width="1311.000000pt" height="802.000000pt" viewBox="0 0 1311.000000 802.000000"
 preserveAspectRatio="xMidYMid meet">

<g transform="translate(0.000000,802.000000) scale(0.100000,-0.100000)"
fill="#814d01" stroke="none">
<path d="M6060 7909 c-520 -6 -619 -10 -1175 -40 -1328 -71 -2618 -216 -3943
-444 l-32 -6 0 -79 0 -78 71 -59 71 -58 -6 -425 c-19 -1578 -30 -2216 -38
-2225 -5 -5 -39 -12 -76 -15 l-67 -5 -3 -60 c-4 -84 4 -122 30 -131 19 -6 20
-12 15 -69 l-5 -64 97 -40 c143 -60 825 -339 911 -373 41 -17 76 -31 78 -33 5
-5 0 -1544 -7 -1865 l-6 -315 -233 -3 c-143 -1 -232 -6 -232 -12 0 -6 125 -10
343 -10 l342 -1 -35 -29 -35 -30 -353 1 c-195 0 -356 -2 -359 -4 -3 -3 -2 -15
2 -26 6 -20 8 -20 28 -6 18 13 72 15 339 15 175 0 318 -3 318 -6 0 -3 -9 -19
-21 -35 l-20 -29 -371 0 -370 0 6 -22 c3 -13 6 -26 6 -30 0 -5 9 1 20 12 19
19 33 20 351 20 l332 0 -25 -32 -26 -33 -381 -3 -381 -2 0 -30 c0 -33 14 -39
29 -12 9 16 38 17 346 20 186 2 341 0 346 -5 5 -5 -5 -23 -22 -41 l-30 -32
-387 0 -387 1 -3 -32 c-2 -20 0 -29 7 -24 6 3 11 13 11 21 0 12 54 14 365 14
201 0 365 -3 365 -6 0 -3 -9 -19 -21 -35 l-20 -29 -407 -2 -407 -3 -3 -39 c-3
-32 -1 -38 13 -32 9 3 19 6 21 6 2 0 4 9 4 20 0 20 7 20 370 20 204 0 370 -2
370 -6 0 -3 -12 -21 -28 -40 l-27 -34 -422 0 -423 0 0 -40 c0 -22 5 -40 10
-40 6 0 10 11 10 25 0 17 7 26 23 30 12 3 192 4 401 3 l378 -3 -38 -43 -39
-42 -415 -3 -415 -2 -3 -39 c-2 -25 0 -36 7 -31 6 3 11 15 11 26 0 18 11 19
390 19 215 0 390 -4 390 -8 0 -4 -15 -22 -32 -40 l-33 -31 -425 -3 -425 -3 -3
-39 c-4 -42 15 -47 33 -8 l10 22 388 0 388 0 -32 -45 -32 -45 -346 6 c-190 3
-388 3 -438 -1 l-93 -7 0 -34 c0 -39 27 -49 32 -11 l3 22 400 -2 c220 -1 403
-2 408 -3 4 0 7 -18 7 -41 l0 -40 -452 3 c-249 2 -474 -1 -500 -5 -48 -8 -48
-8 -48 -48 0 -21 4 -39 8 -39 14 0 32 23 32 41 0 9 8 19 18 21 9 3 223 3 474
0 323 -3 458 -8 461 -16 2 -6 2 -25 0 -42 l-5 -31 -555 -1 c-305 -1 -558 -4
-562 -6 -4 -3 -5 -21 -3 -40 5 -41 32 -51 32 -12 0 20 6 24 41 30 47 8 967 6
1017 -1 30 -5 32 -7 32 -49 l0 -44 -617 -2 -618 -3 0 -40 c-1 -22 1 -46 3 -53
6 -19 31 17 32 46 l0 22 599 0 600 0 -5 -38 c-3 -20 -7 -43 -10 -50 -3 -10
-128 -12 -611 -12 -491 1 -608 -2 -608 -12 0 -11 1169 -13 6403 -16 5670 -2
6402 0 6402 13 0 13 -70 15 -552 17 l-553 3 -3 48 -3 47 540 0 541 0 0 -36 c0
-24 4 -34 13 -31 7 2 12 21 12 48 l0 44 -549 3 c-425 2 -552 5 -558 15 -4 6
-8 27 -8 45 l0 32 465 0 465 0 0 -25 c0 -16 6 -25 16 -25 12 0 14 9 12 38 l-3
37 -475 5 -475 5 -3 43 -3 42 395 0 396 0 0 -25 c0 -18 5 -25 20 -25 16 0 20
7 20 34 0 33 -1 33 -52 40 -29 3 -216 6 -416 6 l-363 0 3 43 3 42 270 3 c149
2 298 0 333 -3 60 -6 62 -7 62 -36 0 -16 4 -29 9 -29 10 0 23 69 15 82 -3 4
-161 8 -352 8 l-348 0 -38 45 -37 45 303 -2 303 -3 3 -23 c5 -35 27 -20 27 19
l0 34 -344 1 -344 1 -36 39 -36 39 280 3 c154 1 285 0 292 -3 7 -2 13 -14 13
-25 0 -15 5 -20 18 -18 12 2 17 13 17 38 l0 35 -330 2 -329 3 -38 37 c-20 20
-35 40 -32 45 6 10 555 11 570 0 7 -4 13 -15 15 -25 7 -31 24 -19 27 18 l3 35
-338 0 -339 0 -39 40 -39 40 301 0 c293 0 302 -1 308 -20 11 -33 33 -24 32 13
l-2 32 -339 2 -340 3 -28 27 c-15 15 -28 30 -28 35 0 4 135 8 300 8 297 0 300
0 300 -21 0 -30 24 -18 28 14 l3 27 -340 0 -340 0 -25 33 -25 32 301 3 c271 2
303 1 311 -14 8 -13 11 -14 18 -3 5 8 9 21 9 30 0 15 -31 16 -338 13 l-339 -3
-33 34 -34 35 301 0 c258 0 302 -2 307 -15 9 -23 26 -18 26 9 0 13 -8 27 -17
30 -9 4 -160 6 -335 5 l-317 -1 -30 23 c-17 13 -30 27 -30 32 -1 12 617 9 625
-4 4 -8 9 -7 15 2 24 38 17 39 -266 39 l-275 0 0 30 0 31 237 -2 c165 -1 238
2 241 10 3 8 -66 11 -237 11 l-241 0 0 1088 0 1088 36 17 c82 40 479 208 729
309 149 61 276 112 283 115 8 3 12 28 12 74 0 62 2 69 19 69 27 0 29 6 32 95
l2 80 -66 6 c-37 3 -69 7 -71 10 -2 2 -6 213 -10 469 -3 256 -11 849 -17 1319
l-12 855 77 73 76 74 0 74 0 75 -28 0 c-15 0 -74 9 -132 20 -124 24 -592 104
-735 125 -407 62 -598 89 -860 120 -165 20 -346 42 -402 50 -336 47 -1146 104
-2348 166 -324 17 -1062 25 -1615 18z m215 -89 c0 -44 3 -55 18 -58 15 -3 17
5 17 57 l0 61 264 0 264 0 4 -62 c2 -35 3 -66 1 -69 -1 -4 -248 -7 -548 -8
l-545 -1 0 65 0 64 123 3 c67 2 185 3 262 3 l140 0 0 -55z m1118 41 c4 -5 7
-35 5 -67 l-3 -59 -125 3 c-69 1 -186 5 -260 7 l-135 5 -3 66 -3 67 258 -7
c142 -4 262 -11 266 -15z m-1663 -55 c0 -36 -3 -67 -7 -69 -5 -3 -122 -8 -262
-12 l-253 -7 5 61 c2 34 7 65 11 69 7 6 183 15 414 20 l92 2 0 -64z m2075 46
l140 -7 3 -69 3 -69 -143 7 c-79 3 -198 9 -265 12 l-123 7 0 68 0 69 123 -6
c67 -3 185 -9 262 -12z m-2615 -66 l0 -65 -52 -5 c-29 -3 -116 -8 -193 -11
-77 -3 -168 -8 -202 -11 l-63 -6 0 71 0 71 68 1 c37 1 117 5 177 9 61 3 145 7
188 8 l77 2 0 -64z m3187 35 l98 -6 3 -69 3 -69 -78 6 c-43 4 -132 9 -198 12
-66 3 -143 8 -172 11 l-52 5 -6 54 c-4 29 -4 59 0 65 7 12 127 9 402 -9z
m-3722 -65 l0 -65 -60 -6 c-47 -5 -439 -23 -440 -21 -1 1 1 29 3 62 l4 62 141
11 c160 13 218 17 297 19 l55 2 0 -64z m4110 39 c121 -8 223 -15 228 -15 4 0
7 -28 7 -62 l0 -61 -142 7 c-79 3 -191 9 -250 13 l-108 6 0 64 c0 59 2 63 23
63 12 0 121 -7 242 -15z m-4635 -69 c0 -36 -4 -67 -10 -71 -5 -3 -82 -10 -172
-15 -90 -5 -191 -12 -225 -16 l-63 -6 0 64 0 64 223 21 c122 11 228 21 235 22
8 1 12 -18 12 -63z m5117 39 c103 -8 203 -17 221 -20 l32 -6 0 -64 c0 -55 -3
-65 -17 -65 -39 0 -420 31 -440 35 -21 5 -23 11 -23 64 0 32 3 61 7 64 8 9 2
9 220 -8z m-5607 -79 c0 -31 -5 -58 -12 -64 -10 -7 -380 -43 -445 -42 -9 0
-13 19 -13 60 0 50 3 60 18 61 9 0 94 9 187 18 94 10 191 19 218 20 l47 1 0
-54z m6185 25 l150 -16 3 -62 3 -63 -48 0 c-69 0 -267 18 -340 31 l-62 11 -6
53 c-4 30 -4 58 0 64 7 12 45 10 300 -18z m-3546 0 c7 -5 11 -13 7 -19 -3 -6
-2 -21 3 -34 l9 -23 7 27 c4 15 4 31 1 37 -4 6 5 13 20 17 31 8 1027 -4 1049
-13 8 -3 15 -16 15 -30 0 -13 4 -21 10 -18 6 3 10 16 10 27 0 20 2 21 228 14
125 -4 242 -10 260 -13 34 -6 43 -28 20 -51 -6 -6 -9 -14 -6 -17 3 -3 16 10
28 29 14 23 29 36 43 36 47 0 404 -21 445 -26 43 -5 43 -6 28 -29 -22 -33 -20
-42 4 -20 11 10 20 25 20 33 0 12 19 13 128 8 174 -9 365 -25 371 -31 2 -3 -6
-16 -19 -30 -13 -14 -20 -28 -16 -32 3 -4 13 2 20 13 44 61 20 57 256 40 118
-9 227 -19 242 -22 l27 -5 -35 -31 c-50 -44 -34 -47 20 -4 l44 37 188 -21
c103 -11 202 -20 220 -20 44 0 43 -11 -3 -43 -27 -19 -32 -27 -19 -27 10 0 35
14 57 30 l38 31 178 -21 c219 -26 253 -31 253 -39 0 -4 -16 -15 -35 -25 -19
-11 -35 -23 -35 -28 0 -8 56 19 92 44 13 9 53 7 185 -10 92 -12 184 -22 204
-22 52 0 54 -10 9 -37 -22 -13 -40 -28 -40 -34 0 -15 12 -11 73 26 32 19 62
33 66 30 4 -2 86 -16 181 -29 95 -14 175 -28 177 -30 3 -2 -17 -14 -44 -26
-26 -12 -43 -24 -36 -27 7 -2 39 8 73 23 l60 27 167 -27 c92 -15 169 -29 171
-31 3 -2 -8 -9 -24 -15 -16 -6 -45 -19 -65 -29 -35 -19 -39 -19 -188 5 -84 13
-192 28 -239 34 -133 16 -397 49 -602 77 -102 13 -228 28 -280 33 -52 5 -176
19 -275 30 -378 42 -956 89 -1475 120 -85 5 -263 16 -395 24 -957 60 -2583 51
-3665 -19 -124 -8 -328 -22 -455 -30 -366 -23 -386 -24 -466 -34 -43 -6 -169
-17 -280 -26 -248 -19 -650 -59 -815 -81 l-122 -15 -41 28 c-66 46 -70 44 164
69 202 21 202 21 229 -5 12 -11 29 -21 37 -21 8 1 2 11 -16 25 -22 18 -25 25
-15 29 8 3 87 12 175 21 88 8 183 18 210 21 45 5 54 3 89 -25 46 -37 63 -41
24 -6 -38 32 -35 40 12 42 40 2 299 28 376 38 38 5 42 3 67 -32 15 -21 27 -31
27 -24 0 8 -7 23 -17 33 -9 10 -14 20 -11 23 2 3 108 13 234 24 246 20 254 19
269 -30 4 -11 11 -19 16 -19 5 0 2 14 -6 31 -9 17 -14 33 -11 36 7 7 892 63
998 63 33 0 38 -3 38 -22 0 -13 5 -30 10 -38 7 -11 10 -6 10 21 l0 36 78 7
c42 3 273 9 512 12 239 4 437 8 439 10 7 6 15 4 30 -5z m-3142 -137 c-5 -5
-210 -30 -317 -39 -41 -3 -87 -8 -102 -11 l-28 -6 0 62 c0 39 4 62 13 65 6 2
107 15 222 27 l210 24 3 -59 c2 -33 1 -61 -1 -63z m7108 88 l210 -28 3 -57 3
-57 -48 0 c-48 0 -339 27 -380 36 -21 4 -23 10 -23 69 0 46 4 65 13 64 6 0
107 -12 222 -27z m-7577 -84 l-3 -62 -110 -13 c-209 -24 -307 -33 -316 -27
-14 8 -11 104 4 109 18 7 357 53 395 54 l33 1 -3 -62z m8030 27 c108 -14 203
-28 210 -30 9 -3 12 -22 10 -62 l-3 -58 -55 3 c-80 4 -332 33 -353 41 -15 6
-20 20 -23 69 -3 38 0 62 6 62 6 0 99 -11 208 -25z m-8488 -84 c0 -57 -1 -60
-27 -65 -24 -5 -398 -56 -409 -56 -8 0 -4 120 4 120 4 0 93 14 197 29 259 40
235 43 235 -28z m8968 13 l193 -28 -3 -56 -3 -55 -72 3 c-79 2 -331 37 -341
47 -3 3 -8 33 -10 67 -5 60 -4 61 19 55 13 -2 111 -18 217 -33z m-4908 -377
l0 -404 -227 -6 c-125 -3 -229 -4 -232 -1 -3 3 -7 185 -9 404 l-4 399 98 4
c55 1 161 4 237 5 l137 2 0 -403z m57 -1021 c3 -1342 2 -1417 -15 -1414 -16 3
-17 38 -15 563 1 308 2 946 2 1418 1 682 4 858 14 854 9 -3 12 -298 14 -1421z
m483 1019 l0 -405 -230 0 -230 0 0 405 0 405 230 0 230 0 0 -405z m52 143 c2
-145 4 -786 6 -1425 3 -1049 2 -1163 -12 -1163 -14 0 -16 41 -16 363 0 199 -3
828 -7 1398 -3 570 -3 1049 1 1063 18 72 26 8 28 -236z m381 252 l97 0 0 -407
0 -406 -222 6 c-122 4 -222 8 -224 10 -2 3 -8 717 -6 771 l2 39 128 -6 c70 -4
171 -7 225 -7z m-1520 -197 c9 -264 9 -601 0 -606 -5 -2 -108 -8 -230 -11
l-223 -8 0 406 0 405 93 4 c50 1 151 4 223 5 l131 2 6 -197z m55 -1220 c-2
-1122 -6 -1417 -15 -1421 -10 -3 -13 285 -13 1417 0 1258 2 1421 15 1421 13 0
15 -162 13 -1417z m1622 -3 c0 -789 -4 -1420 -9 -1420 -4 0 -11 24 -14 53 -5
36 -11 2576 -7 2780 0 4 7 7 15 7 13 0 15 -164 15 -1420z m445 1406 l30 -2 3
-408 2 -408 -22 6 c-13 3 -116 6 -230 6 l-208 0 0 410 0 410 198 -6 c108 -3
211 -7 227 -8z m-2657 -403 l2 -402 -32 -5 c-18 -3 -117 -7 -220 -10 l-188 -5
0 404 0 405 43 1 c23 1 110 5 192 9 83 4 161 6 175 6 l25 -1 3 -402z m59 -135
c-4 -299 -7 -936 -7 -1415 0 -769 -2 -873 -15 -873 -13 0 -15 164 -15 1415 l0
1415 22 0 21 0 -6 -542z m2683 45 c0 -269 3 -905 7 -1416 l6 -927 -254 2 -254
3 -3 419 -2 419 222 -8 c123 -4 225 -9 228 -12 3 -2 7 -187 8 -409 3 -266 7
-404 14 -404 7 0 8 451 3 1410 -7 1299 -6 1410 9 1410 15 0 16 -44 16 -487z
m390 468 l85 -6 0 -399 0 -400 -110 2 c-60 1 -163 5 -227 8 l-118 7 0 404 0
405 143 -7 c78 -4 180 -10 227 -14z m-6570 -56 c0 -30 -4 -56 -10 -60 -6 -4
-371 -55 -397 -55 -2 0 -3 25 -3 55 0 36 5 57 13 60 24 9 382 62 390 58 4 -2
7 -28 7 -58z m2920 -344 l0 -408 -187 -7 c-103 -4 -200 -10 -215 -13 l-28 -6
2 409 3 409 175 11 c96 6 192 12 213 12 l37 2 0 -409z m52 -1008 c-4 -1329 -5
-1403 -21 -1403 -17 0 -18 14 -15 173 2 94 5 724 8 1398 2 675 7 1232 11 1239
4 6 10 8 14 3 4 -4 5 -639 3 -1410z m3739 -4 c4 -783 3 -1408 -2 -1413 -5 -5
-11 -7 -14 -4 -3 3 -8 641 -12 1418 -5 1216 -4 1412 8 1408 12 -4 15 -211 20
-1409z m417 1382 l32 -1 0 -401 0 -401 -127 6 c-71 4 -167 9 -215 12 l-88 6 0
402 0 401 183 -12 c100 -6 197 -12 215 -12z m2692 -11 c195 -31 176 -23 184
-87 4 -31 4 -58 2 -61 -3 -2 -86 8 -186 24 l-180 28 0 63 0 63 28 -5 c15 -3
83 -14 152 -25z m-7408 -385 c-2 -220 -5 -402 -8 -404 -4 -4 -123 -12 -344
-23 l-65 -3 0 400 0 400 45 7 c45 7 331 26 360 24 13 -1 15 -52 12 -401z m50
-942 c-1 -742 -5 -1372 -8 -1400 -3 -29 -10 -53 -15 -53 -6 0 -8 354 -7 933 4
1524 7 1867 21 1867 9 0 11 -308 9 -1347z m4753 -75 c7 -1280 6 -1398 -9
-1398 -15 0 -16 57 -16 618 0 339 -3 964 -7 1388 -3 425 -3 780 1 790 4 10 10
14 15 8 5 -5 12 -638 16 -1406z m260 1389 l170 -12 3 -398 2 -397 -82 6 c-46
3 -139 9 -208 12 l-125 7 -3 400 -3 401 38 -4 c21 -2 115 -9 208 -15z m-5503
-953 c-6 -1603 -9 -1829 -24 -1829 -11 0 -13 123 -10 680 5 1390 14 2106 26
2102 8 -3 10 -254 8 -953z m-2406 888 c1 -29 -2 -55 -7 -58 -14 -8 -277 -44
-327 -44 l-43 0 3 53 3 52 170 26 c94 15 177 26 185 25 11 -1 15 -15 16 -54z
m2348 -345 l-1 -402 -99 -7 c-54 -5 -145 -11 -201 -16 l-103 -7 0 290 c0 159
3 340 7 402 l6 111 86 7 c47 4 118 10 156 15 39 4 88 8 110 9 l40 1 -1 -403z
m5787 -224 c1 -340 2 -629 4 -643 1 -14 6 -364 9 -777 6 -646 5 -753 -7 -753
-15 0 -20 277 -33 1963 -6 763 -6 827 10 827 15 0 16 -52 17 -617z m263 592
c87 -8 160 -16 162 -17 1 -2 4 -177 6 -391 l3 -387 -45 1 c-77 0 -348 24 -355
30 -3 4 -9 183 -12 398 l-6 391 44 -5 c24 -3 116 -12 203 -20z m-7435 -15 c31
-20 40 -31 30 -34 -15 -6 -407 -56 -418 -54 -3 1 -13 -1 -21 -5 -8 -3 -73 -15
-145 -26 -236 -37 -215 -37 -286 0 l-64 33 65 8 c36 5 115 15 175 23 142 19
158 19 197 -5 18 -11 40 -20 48 -20 8 0 -2 10 -22 22 -21 12 -38 25 -38 29 0
4 26 11 58 15 31 4 111 15 177 24 175 26 193 25 244 -10z m9669 5 c227 -39
204 -30 200 -83 -3 -40 -6 -46 -28 -47 -24 -2 -227 19 -302 31 l-38 6 0 59 c0
35 4 59 11 59 5 0 76 -11 157 -25z m-8761 -391 c-4 -219 -9 -399 -11 -401 -5
-5 -378 -41 -386 -37 -3 1 -4 180 -2 397 l2 395 98 11 c158 19 245 28 276 30
l29 1 -6 -396z m48 160 c0 -725 -18 -2511 -26 -2524 -11 -20 -11 -40 -10 645
2 1157 13 2116 25 2112 8 -3 11 -75 11 -233z m6699 -346 c3 -315 8 -818 11
-1118 3 -300 8 -668 11 -817 5 -232 3 -273 -9 -273 -15 0 -19 188 -32 1375 -3
253 -7 673 -10 933 -5 398 -4 472 8 472 12 0 15 -95 21 -572z m241 541 c94
-12 171 -22 172 -23 1 0 3 -173 5 -384 l3 -382 -30 0 c-39 0 -357 29 -360 32
-1 2 -5 180 -8 396 l-6 393 27 -5 c15 -3 104 -15 197 -27z m-7409 -381 c-3
-211 -8 -808 -11 -1328 -3 -520 -8 -966 -11 -992 -3 -27 -11 -48 -17 -48 -10
0 -5 1252 10 2293 5 390 8 457 21 457 12 0 13 -52 8 -382z m-47 140 c-1 -128
-5 -307 -8 -398 l-6 -165 -35 -3 c-19 -1 -100 -9 -179 -18 -79 -8 -147 -12
-151 -7 -5 4 -6 182 -3 394 l6 387 161 20 c89 10 173 20 189 21 l27 1 -1 -232z
m7683 -424 c4 -351 11 -902 17 -1224 14 -715 14 -880 2 -880 -17 0 -20 99 -31
1010 -6 498 -13 1093 -17 1324 -5 359 -4 418 8 414 12 -4 15 -106 21 -644z
m214 615 l171 -22 6 -381 c3 -210 4 -382 3 -384 -2 -1 -63 5 -137 13 -74 8
-156 15 -182 15 -29 0 -49 5 -52 13 -2 6 -5 182 -7 390 -3 330 -1 377 12 377
8 0 92 -9 186 -21z m-9213 -41 l62 -32 -35 -7 c-19 -4 -97 -17 -173 -29 l-138
-22 -75 28 c-41 15 -77 30 -79 34 -2 4 26 10 63 14 37 4 117 16 177 25 61 10
116 19 123 20 7 0 41 -13 75 -31z m863 -367 c-4 -212 -9 -387 -10 -389 -2 -1
-64 -9 -137 -17 -74 -8 -153 -17 -176 -20 l-43 -6 0 386 c0 299 3 387 13 390
25 9 342 51 351 47 5 -3 6 -166 2 -391z m49 263 c0 -434 -16 -2305 -21 -2432
-4 -93 -10 -152 -16 -150 -10 4 -12 1107 -3 1278 3 47 8 390 11 763 5 497 9
677 18 674 7 -2 11 -46 11 -133z m8534 -664 c6 -426 14 -1022 17 -1325 3 -302
7 -565 8 -582 3 -50 -22 -41 -28 10 -3 23 -8 353 -11 732 -3 380 -10 971 -14
1315 -5 344 -7 629 -4 633 3 5 9 5 13 0 4 -4 13 -357 19 -783z m181 755 c74
-9 145 -21 158 -26 l22 -9 0 -376 0 -376 -37 6 c-21 3 -96 13 -168 22 -71 9
-131 17 -132 18 -1 1 -5 173 -9 383 -7 372 -7 382 12 378 10 -2 80 -11 154
-20z m883 4 c81 -12 147 -25 147 -29 0 -4 -19 -15 -41 -26 -23 -10 -48 -25
-56 -33 -12 -12 -37 -10 -181 16 l-167 29 60 32 c33 17 67 31 75 32 8 0 81
-10 163 -21z m-10036 -561 c-4 -299 -10 -904 -14 -1345 -5 -660 -9 -803 -20
-803 -10 0 -13 48 -13 248 0 399 25 2407 30 2440 0 1 5 2 12 2 8 0 10 -133 5
-542z m-47 152 l0 -380 -22 -9 c-13 -5 -77 -14 -143 -21 -66 -6 -133 -14 -149
-17 l-29 -6 4 381 c2 210 4 382 4 383 0 2 294 47 313 48 l22 1 0 -380z m9424
358 c2 -13 9 -484 15 -1048 6 -564 14 -1161 18 -1327 6 -278 5 -303 -10 -303
-15 0 -17 28 -17 303 0 166 -4 500 -10 742 -18 857 -23 1655 -12 1655 7 0 14
-10 16 -22z m866 18 c0 -2 -22 -22 -48 -45 -35 -29 -55 -38 -70 -34 -32 8 -27
20 11 29 17 3 46 17 62 30 28 22 45 30 45 20z m-683 -30 c77 -13 146 -27 152
-30 8 -5 11 -120 11 -377 l0 -370 -32 5 c-18 3 -87 13 -152 21 -66 9 -123 18
-127 21 -4 2 -8 153 -9 335 0 181 -3 343 -7 359 -6 31 1 60 14 60 4 0 72 -11
150 -24z m-9970 -673 c-4 -362 -10 -959 -13 -1328 -4 -368 -10 -674 -15 -679
-5 -6 -11 -2 -15 8 -4 10 -2 363 4 785 7 421 15 1015 18 1319 5 365 10 552 17
552 7 0 8 -212 4 -657z m-43 265 l-7 -375 -106 -17 c-58 -8 -128 -19 -155 -22
l-49 -7 6 108 c4 60 7 229 7 376 l0 267 68 12 c92 15 236 36 240 34 1 0 -1
-170 -4 -376z m10220 200 c7 -219 14 -753 23 -1757 5 -637 4 -743 -8 -739 -12
4 -15 106 -20 634 -3 346 -10 947 -14 1337 -5 486 -5 707 2 707 7 0 13 -67 17
-182z m-10574 162 c0 -5 -4 -10 -10 -10 -5 0 -10 5 -10 10 0 6 5 10 10 10 6 0
10 -4 10 -10z m10768 -26 l122 -18 0 -241 c0 -132 3 -297 7 -367 l6 -128 -24
0 c-22 0 -272 39 -275 43 -1 1 -4 168 -6 370 l-3 369 25 -5 c14 -3 80 -13 148
-23z m-10747 -715 c-6 -382 -13 -962 -16 -1289 -4 -327 -8 -605 -11 -617 -2
-13 -10 -23 -16 -23 -8 0 -9 113 -5 438 4 240 12 829 18 1307 6 479 13 876 15
884 3 10 8 11 15 4 7 -7 7 -224 0 -704z m10919 519 c0 -101 7 -691 16 -1311 8
-621 13 -1135 10 -1143 -3 -8 -9 -14 -14 -14 -9 0 -18 479 -27 1435 -3 308 -8
703 -11 877 -3 175 -3 322 1 328 20 32 25 -5 25 -172z m-5200 -233 l0 -25
-230 0 -230 0 0 23 0 23 230 2 230 3 0 -26z m-1083 -1 c3 -8 2 -19 -3 -23 -5
-5 -109 -11 -231 -15 l-223 -6 0 25 0 25 188 3 c103 1 204 3 225 5 26 1 39 -3
44 -14z m543 -4 c0 -19 -7 -20 -97 -20 -54 0 -158 -3 -230 -7 l-133 -6 0 27 0
26 230 0 c223 0 230 -1 230 -20z m1070 -5 l0 -26 -147 2 c-256 4 -303 8 -303
30 0 18 11 19 225 19 l225 0 0 -25z m398 8 c135 -6 142 -7 142 -27 0 -20 -4
-21 -137 -18 -76 1 -180 5 -230 8 -83 5 -93 8 -93 25 0 17 8 19 88 19 48 0
151 -3 230 -7z m-2548 -22 c0 -17 -11 -20 -112 -25 -325 -16 -326 -16 -331 -2
-11 29 10 35 133 39 333 8 310 9 310 -12z m3083 2 c133 -6 137 -7 137 -29 0
-21 -3 -22 -57 -18 -32 2 -133 7 -225 10 -156 6 -168 7 -168 25 0 17 8 19 88
19 49 0 150 -3 225 -7z m-3603 -22 c0 -22 -34 -27 -271 -37 -118 -5 -158 -4
-164 6 -14 23 11 29 160 38 255 15 275 15 275 -7z m4233 -8 c4 -2 7 -13 7 -24
0 -18 -5 -19 -77 -14 -43 3 -140 8 -215 11 -130 6 -138 7 -138 26 0 20 3 21
208 13 114 -4 210 -9 215 -12z m-2095 -507 l2 -506 -230 0 -230 0 0 508 0 507
227 -2 228 -2 3 -505z m-2648 485 c0 -21 -30 -24 -287 -37 -129 -7 -133 -6
-133 14 0 19 8 21 108 27 59 3 118 7 132 9 14 2 60 4 103 5 69 1 77 -1 77 -18z
m1566 -481 c0 -272 -2 -501 -4 -507 -3 -10 -58 -13 -228 -13 l-224 0 0 505 0
505 173 3 c94 1 197 3 227 2 l55 0 1 -495z m544 -5 l0 -505 -236 0 -237 0 7
77 c3 42 6 269 6 505 l0 428 230 0 230 0 0 -505z m1070 463 c0 -24 3 -251 7
-505 l6 -463 -231 0 -232 0 0 505 0 505 225 0 225 0 0 -42z m1928 26 c127 -7
132 -8 132 -29 0 -20 -4 -21 -52 -18 -29 2 -119 7 -201 11 -143 8 -178 17
-162 42 6 9 28 11 79 7 39 -4 131 -9 204 -13z m-1525 -1 l137 -6 0 -501 0
-501 -217 3 c-120 2 -221 7 -225 10 -4 4 -10 231 -14 505 l-7 497 95 0 c52 0
156 -3 231 -7z m-2553 -502 c0 -275 -3 -502 -7 -504 -5 -3 -107 -8 -227 -12
l-219 -7 6 418 c4 231 7 458 7 506 l0 87 118 4 c64 1 163 4 220 5 l102 2 0
-499z m-1530 469 c0 -11 -6 -20 -12 -20 -7 0 -85 -7 -173 -15 -213 -19 -215
-19 -215 5 0 15 7 20 28 21 15 0 90 7 167 14 206 18 205 18 205 -5z m4638 13
l112 -6 0 -499 0 -498 -103 0 c-57 0 -159 3 -225 7 l-122 6 0 499 0 498 113 0
c61 0 163 -3 225 -7z m1416 -9 c155 -9 176 -13 176 -35 0 -23 8 -23 -224 -4
-120 9 -182 18 -187 26 -15 25 4 32 74 25 39 -4 111 -9 161 -12z m-5044 -493
c0 -275 -3 -502 -7 -504 -5 -3 -104 -8 -221 -12 l-214 -7 7 499 c4 274 9 500
11 502 4 5 225 18 337 19 l87 2 0 -499z m4063 483 l177 -6 0 -505 0 -506 -37
6 c-21 4 -115 9 -209 13 l-171 7 -6 291 c-9 377 -9 701 0 709 4 4 20 5 37 2
17 -2 111 -7 209 -11z m-4580 -1005 c-5 -4 -99 -11 -211 -16 l-202 -8 0 498
c0 273 3 497 8 498 4 0 97 6 207 12 l200 12 3 -494 c1 -272 -1 -498 -5 -502z
m-973 977 c0 -20 -15 -23 -198 -41 -200 -19 -202 -19 -202 0 0 22 10 24 161
39 190 19 239 19 239 2z m6141 -2 l76 -6 7 -106 c3 -58 6 -283 6 -500 l0 -394
-137 6 c-76 4 -171 9 -210 12 l-73 6 -1 422 c0 231 -2 456 -2 500 l-2 78 130
-6 c72 -4 164 -9 206 -12z m824 6 c210 -18 215 -19 215 -41 0 -10 -7 -19 -14
-19 -39 0 -371 32 -378 36 -4 3 -8 12 -8 20 0 17 32 18 185 4z m-6484 -510
c-1 -272 -3 -495 -4 -496 -6 -7 -403 -31 -407 -25 -3 3 -4 225 -2 493 l3 487
42 5 c66 9 351 33 361 32 5 -1 8 -214 7 -496z m6044 479 c94 -7 173 -15 177
-18 8 -8 15 -977 7 -985 -3 -4 -94 -1 -202 6 -188 11 -196 12 -201 33 -4 16
-9 848 -6 968 0 10 27 9 225 -4z m-6995 -19 c0 -11 -4 -20 -9 -20 -4 0 -75 -7
-157 -15 -223 -23 -209 -23 -209 0 0 18 12 21 150 36 214 23 225 23 225 -1z
m7950 -1 c128 -12 147 -17 137 -42 -4 -11 -19 -12 -74 -6 -37 4 -117 13 -178
19 -111 11 -133 19 -120 40 5 8 24 10 59 6 28 -3 107 -11 176 -17z m-7480
-494 l0 -494 -32 -5 c-35 -5 -311 -26 -347 -26 l-21 0 0 490 c0 270 1 490 3
491 2 1 354 36 380 38 16 1 17 -29 17 -494z m6980 475 c74 -6 149 -13 166 -16
l31 -6 7 -483 c4 -267 5 -488 3 -492 -3 -4 -93 -2 -199 6 l-195 15 -7 488 c-3
269 -4 493 -2 497 3 4 18 6 33 5 15 -2 89 -8 163 -14z m900 -26 c128 -16 170
-30 156 -52 -3 -6 -15 -8 -26 -5 -11 3 -86 13 -167 22 -140 15 -148 17 -151
38 -3 20 0 22 25 18 15 -2 89 -12 163 -21z m-8802 -1 c-3 -15 -27 -20 -153
-35 -199 -22 -205 -22 -205 0 0 16 17 20 138 34 197 22 224 22 220 1z m447
-485 c-4 -271 -8 -494 -9 -495 -2 -2 -61 -7 -132 -13 -71 -5 -154 -12 -184
-15 l-56 -6 4 483 c2 266 7 486 11 490 4 5 236 35 360 47 12 1 13 -75 6 -491z
m7935 466 c85 -8 156 -16 156 -17 1 -1 5 -222 9 -491 l8 -489 -39 6 c-21 3
-101 9 -176 13 -75 4 -142 10 -148 14 -8 5 -13 142 -18 494 -4 268 -5 489 -3
491 2 2 15 2 30 0 14 -3 96 -12 181 -21z m828 -31 c115 -14 132 -19 132 -35 0
-22 -4 -22 -165 2 -71 11 -133 20 -137 20 -5 0 -8 10 -8 21 0 17 4 20 23 15
12 -3 82 -13 155 -23z m-9650 0 c-2 -14 -22 -20 -98 -29 -213 -26 -230 -27
-230 -10 0 9 1 16 3 17 13 2 288 37 305 38 17 1 23 -4 20 -16z m437 -480 c-4
-269 -8 -489 -9 -490 -4 -5 -347 -33 -354 -30 -7 5 6 958 14 966 3 3 283 36
338 40 18 1 18 -15 11 -486z m8799 468 c82 -11 152 -24 156 -28 4 -4 10 -223
14 -485 6 -451 5 -478 -12 -477 -9 0 -84 8 -166 17 l-150 17 -7 30 c-4 17 -9
236 -12 488 -4 416 -3 457 12 457 9 0 83 -9 165 -19z m-9634 -35 c0 -9 -34
-18 -107 -30 -198 -30 -203 -30 -203 -15 0 11 39 21 148 40 81 14 150 24 155
22 4 -2 7 -10 7 -17z m10427 -8 c107 -18 123 -23 123 -40 0 -14 -5 -18 -17
-14 -18 5 -261 46 -275 46 -5 0 -8 7 -8 15 0 20 29 19 177 -7z m-10028 -467
c-2 -264 -6 -482 -9 -484 -5 -5 -275 -37 -312 -37 -20 0 -20 6 -16 474 2 261
7 478 10 482 4 3 64 12 135 20 70 8 133 16 138 18 6 3 21 5 34 5 l23 1 -3
-479z m9678 456 c51 -7 97 -17 102 -22 5 -6 11 -214 13 -485 l3 -475 -25 2
c-41 4 -274 34 -276 36 -5 5 -24 637 -24 791 l0 179 58 -7 c31 -4 99 -12 149
-19z m-10082 -504 c-4 -263 -9 -480 -11 -482 -2 -2 -48 -10 -101 -17 -54 -7
-122 -16 -150 -20 l-53 -7 0 165 c0 91 3 307 7 480 l6 316 111 17 c61 9 118
18 126 20 8 1 28 3 43 4 l29 1 -7 -477z m10460 453 l90 -12 8 -483 c5 -265 7
-484 5 -485 -1 -2 -66 6 -143 18 l-140 21 -7 50 c-4 36 -11 777 -8 909 0 5 23
5 53 1 28 -4 93 -13 142 -19z m-5605 -711 l0 -25 -235 0 c-227 0 -235 1 -235
20 0 22 26 24 323 28 l147 2 0 -25z m540 0 l0 -25 -230 0 -230 0 0 25 0 25
230 0 230 0 0 -25z m438 15 c95 0 102 -1 102 -20 0 -19 -7 -20 -230 -20 l-230
0 0 27 0 26 128 -6 c70 -4 173 -7 230 -7z m-1528 -25 l0 -25 -225 0 c-217 0
-225 1 -225 20 0 21 2 21 343 28 l107 2 0 -25z m2078 15 c79 0 83 -1 80 -21
-3 -20 -7 -21 -208 -19 -113 2 -213 3 -222 3 -12 1 -18 9 -18 26 l0 24 143 -6
c78 -4 179 -7 225 -7z m-2611 -16 c3 -8 2 -19 -3 -24 -5 -4 -107 -11 -226 -15
-214 -7 -218 -7 -218 13 0 26 24 29 215 31 82 1 151 4 154 6 12 12 72 4 78
-11z m3101 0 c111 -5 122 -8 122 -25 0 -18 -9 -19 -133 -19 -74 0 -175 3 -225
6 -77 6 -92 10 -92 24 0 9 2 19 5 21 5 5 121 3 323 -7z m-3620 -25 c3 -19 -35
-23 -296 -35 l-144 -6 4 23 c3 24 6 24 138 30 229 9 294 7 298 -12z m4056 11
c100 -5 183 -13 189 -19 27 -27 -12 -31 -214 -24 -201 8 -204 8 -207 31 -4 26
-20 25 232 12z m-4566 -27 c7 -23 -40 -30 -230 -37 -186 -7 -188 -7 -188 13 0
17 7 21 33 22 17 1 84 5 147 9 161 10 233 8 238 -7z m5160 -2 l92 -1 0 -26 0
-26 -72 6 c-40 3 -133 8 -206 12 -129 6 -149 12 -139 37 3 9 34 10 118 5 63
-3 156 -7 207 -7z m-2514 -1 c3 -3 6 -190 7 -415 l2 -410 -199 -2 c-110 0
-214 1 -231 4 l-33 5 0 407 c0 224 3 410 6 413 7 8 441 5 448 -2z m374 0 l172
0 0 -415 0 -415 -230 0 -230 0 0 413 c0 228 3 417 8 421 4 5 30 5 57 2 28 -3
128 -6 223 -6z m-3521 -33 c-5 -14 -33 -17 -304 -33 -102 -6 -113 -5 -113 10
0 9 6 19 13 21 26 9 392 30 401 24 5 -4 6 -14 3 -22z m2061 -379 l-3 -413
-228 -3 -228 -3 2 410 2 410 126 4 c69 1 172 4 229 5 l102 2 -2 -412z m550 0
l-3 -413 -230 0 -230 0 -3 413 -2 412 235 0 235 0 -2 -412z m-1088 -7 c0 -223
-2 -406 -3 -408 -2 -1 -101 -6 -220 -9 l-217 -7 2 409 3 409 180 6 c99 3 197
5 218 5 l38 -1 -1 -404z m3226 386 c4 -4 6 -818 2 -822 -2 -2 -102 0 -223 4
l-220 6 -3 405 c-1 223 -1 409 2 415 3 9 433 1 442 -8z m1384 5 c101 -7 105
-8 108 -31 4 -23 2 -23 -50 -18 -29 4 -114 9 -188 12 -159 8 -170 10 -170 36
0 19 5 20 98 14 53 -4 144 -10 202 -13z m-5127 -404 c-3 -222 -7 -404 -8 -406
-2 -2 -98 -6 -214 -9 l-211 -6 2 404 3 404 125 5 c69 3 166 7 217 8 l92 2 -6
-402z m4235 381 l22 -9 0 -406 0 -407 -207 7 c-114 4 -210 9 -214 11 -3 3 -7
189 -8 415 l-2 411 193 -7 c106 -4 203 -11 216 -15z m-5724 3 c15 -24 -20 -32
-200 -46 -104 -8 -192 -12 -196 -9 -17 10 -7 33 15 34 12 1 81 7 152 14 164
15 223 17 229 7z m7061 -13 c61 -5 116 -9 123 -9 6 0 12 -11 12 -25 0 -21 -3
-24 -27 -19 -16 3 -104 11 -198 17 -166 12 -170 13 -173 35 -4 26 -22 26 263
1z m-6085 -393 c0 -220 -1 -401 -3 -402 -1 -1 -94 -5 -207 -9 l-206 -7 4 398
c2 220 6 401 8 403 5 5 287 19 357 17 l48 -1 -1 -399z m5093 388 l167 -6 0
-410 0 -410 -202 7 c-112 4 -205 9 -207 11 -2 2 -6 188 -9 414 l-5 410 44 -5
c24 -2 119 -7 212 -11z m-5584 -398 c-2 -217 -8 -398 -12 -402 -4 -5 -76 -11
-160 -15 -84 -5 -173 -10 -200 -13 l-47 -5 2 397 3 396 30 8 c17 4 100 11 185
16 85 5 166 9 179 10 l23 2 -3 -394z m-961 367 c-3 -15 -23 -20 -143 -30 -209
-17 -237 -17 -233 5 3 14 23 19 133 28 209 18 247 17 243 -3z m7095 1 l107 -7
0 -403 0 -404 -98 0 c-55 0 -147 3 -205 7 l-107 6 0 410 0 410 98 -6 c53 -4
145 -10 205 -13z m892 2 c104 -9 130 -14 130 -26 0 -13 -17 -14 -105 -12 -200
7 -264 15 -268 35 -3 15 4 17 55 16 32 -1 117 -6 188 -13z m-8437 -38 c-3 -22
-10 -24 -143 -35 -199 -16 -225 -16 -225 2 0 8 1 15 3 16 2 0 331 36 355 38 8
1 12 -8 10 -21z m920 -370 l-3 -393 -70 -6 c-38 -3 -127 -9 -198 -13 l-127 -7
2 393 3 393 135 11 c74 6 163 12 198 13 l62 1 -2 -392z m7076 376 l126 -7 0
-405 0 -405 -152 7 c-84 4 -172 9 -195 12 l-43 6 0 262 c0 143 -3 326 -7 405
l-6 144 75 -6 c42 -4 133 -10 202 -13z m841 -4 c134 -13 147 -17 143 -38 -4
-20 -1 -20 -195 4 -129 16 -143 19 -143 37 0 18 5 19 48 13 26 -4 92 -11 147
-16z m-8386 -297 c-1 -159 -4 -335 -8 -393 l-6 -105 -175 -12 c-96 -6 -178 -8
-183 -4 -4 4 -6 178 -5 387 l3 379 55 7 c52 7 233 23 293 27 l27 1 -1 -287z
m7984 265 l137 -12 0 -399 0 -400 -102 7 c-57 3 -140 9 -185 12 l-83 6 0 368
c0 202 -3 382 -6 399 l-6 31 53 0 c30 0 116 -5 192 -12z m-8873 -13 c0 -18
-15 -21 -170 -35 -69 -6 -133 -14 -142 -16 -13 -4 -18 0 -18 15 0 24 7 26 135
39 149 15 195 14 195 -3z m9674 0 c116 -14 144 -23 133 -42 -4 -6 -261 16
-314 26 -2 1 -3 8 -3 16 0 19 30 19 184 0z m-9235 -237 c-1 -128 -4 -303 -8
-388 l-6 -155 -90 -7 c-49 -3 -129 -9 -177 -13 l-88 -7 0 382 c0 295 3 382 13
385 14 6 265 32 320 34 l37 1 -1 -232z m8849 211 c71 -7 125 -17 127 -23 2 -6
6 -184 10 -395 l6 -383 -78 6 c-43 3 -119 8 -169 12 l-91 6 -7 390 c-3 214 -4
394 0 399 3 6 22 8 43 5 20 -3 92 -11 159 -17z m-9691 -22 c-3 -9 -30 -16 -84
-21 -43 -4 -111 -13 -151 -20 -69 -12 -97 -7 -76 14 13 13 298 58 308 49 5 -4
6 -14 3 -22z m10446 -2 c59 -8 112 -15 117 -15 6 0 10 -9 10 -21 0 -15 -5 -19
-17 -16 -10 3 -74 13 -143 23 -69 10 -128 22 -132 28 -11 17 1 26 30 21 15 -3
76 -12 135 -20z m-10044 -282 c-1 -159 -4 -331 -8 -383 l-6 -95 -50 -6 c-27
-3 -101 -9 -163 -13 l-113 -8 1 377 c1 294 4 377 14 381 11 4 244 29 304 33
l22 1 -1 -287z m9653 271 c78 -8 146 -17 150 -20 4 -3 8 -178 8 -390 l0 -384
-22 0 c-13 0 -80 5 -150 11 l-126 12 -5 56 c-6 87 -8 731 -2 731 3 0 70 -7
147 -16z m-10058 -47 c0 -9 -1 -178 -2 -376 l-2 -358 -62 -6 c-35 -4 -105 -9
-156 -13 l-92 -7 2 369 3 368 35 8 c48 11 242 37 260 34 8 -1 15 -9 14 -19z
m10522 -13 l51 -6 8 -380 c4 -208 6 -380 4 -382 -2 -2 -62 3 -134 10 -71 7
-138 13 -147 13 -17 1 -18 26 -18 389 l0 389 93 -13 c50 -8 115 -16 143 -20z
m-4321 -569 c396 -8 774 -17 840 -20 66 -2 215 -7 330 -10 237 -6 580 -20 855
-35 813 -43 1540 -90 1935 -125 154 -14 334 -30 400 -35 66 -6 139 -13 163
-16 l42 -6 0 -65 0 -64 -57 6 c-32 3 -123 12 -203 20 -627 63 -1462 116 -2655
170 -1776 79 -3934 83 -5680 10 -461 -20 -1197 -65 -1640 -101 -99 -8 -322
-25 -495 -39 -264 -21 -410 -34 -534 -48 -17 -2 -19 4 -17 63 2 36 4 66 6 68
10 11 1319 112 1835 142 190 11 383 22 430 25 441 27 1505 62 2065 68 786 8
1764 5 2380 -8z m-475 -165 c410 -5 815 -12 900 -15 85 -2 252 -7 370 -10 603
-15 1160 -40 2000 -90 504 -30 1389 -91 1645 -113 l80 -7 3 -49 c4 -59 -6 -68
-68 -61 -25 3 -178 12 -340 20 -162 8 -320 17 -350 20 -83 8 -676 43 -1020 60
-1663 83 -2123 95 -3830 102 -896 3 -1484 1 -1735 -6 -209 -6 -535 -16 -725
-21 -190 -6 -435 -15 -545 -20 -110 -6 -375 -19 -590 -30 -436 -22 -694 -38
-1315 -81 -234 -16 -482 -29 -553 -29 l-127 0 1 50 c1 28 5 53 9 55 4 3 99 11
211 20 112 8 224 17 249 20 72 8 876 65 1135 80 55 3 159 10 230 15 621 45
1916 85 3030 93 176 1 381 3 455 4 74 2 470 -2 880 -7z m270 -170 c959 -15
1289 -25 2270 -70 708 -32 1012 -49 2195 -120 88 -6 167 -10 175 -10 8 -1 -21
-14 -65 -31 -280 -107 -723 -288 -795 -325 -46 -24 -85 -42 -86 -41 -2 1 -4
77 -4 167 -1 91 -4 172 -6 180 -3 12 -20 14 -90 11 -47 -2 -136 2 -197 8
l-112 12 -130 -58 -130 -59 -3 -183 -2 -184 -118 6 c-64 3 -306 13 -537 21
-231 9 -475 19 -542 22 l-123 6 0 259 c0 241 -4 282 -26 248 -5 -9 -61 -10
-201 -7 l-194 6 -112 -80 c-62 -44 -116 -83 -120 -88 -5 -4 -8 -79 -8 -166 l2
-157 -328 8 c-180 5 -1020 9 -1867 10 l-1538 1 -2 167 -1 167 -100 100 -100
100 -217 0 -218 0 -2 -272 -3 -273 -185 -7 c-297 -11 -973 -39 -1123 -46 -77
-4 -141 -4 -143 -1 -2 3 -3 92 -3 197 1 105 -2 196 -6 203 -4 6 -51 32 -104
56 -53 25 -104 52 -114 61 -14 13 -20 13 -26 4 -9 -16 -253 -37 -319 -28 l-42
6 0 -209 c0 -114 -3 -210 -6 -213 -3 -3 -24 4 -47 17 -23 13 -143 65 -267 115
-124 51 -279 115 -345 142 -144 59 -312 124 -340 131 -11 2 13 5 54 6 40 0
198 10 350 21 980 69 1966 122 2585 140 188 5 406 12 486 16 423 20 2076 28
2930 14z m-2929 -156 c-1 -27 -3 -50 -4 -50 -1 -1 -85 -4 -187 -5 l-185 -4 -3
43 c-2 30 1 44 12 48 14 5 339 23 361 19 5 -1 8 -24 6 -51z m207 -182 l-3 -42
-87 76 -88 77 0 56 0 56 91 -91 c88 -88 90 -92 87 -132z m4330 158 l62 0 0
-41 0 -41 -172 7 c-95 4 -176 9 -180 12 -5 2 -8 17 -8 32 0 15 3 31 8 36 4 4
57 5 117 1 61 -3 138 -6 173 -6z m-318 -39 c0 -38 0 -39 -111 -105 -61 -36
-113 -66 -115 -66 -3 0 -4 14 -2 32 3 27 16 41 108 105 58 40 108 73 113 73 4
0 7 -17 7 -39z m-6330 -39 l0 -68 -147 -12 c-216 -18 -194 -24 -191 56 l3 67
130 7 c72 4 139 9 150 11 55 11 55 11 55 -61z m135 10 l90 -47 3 -57 c2 -43
-1 -58 -10 -58 -7 0 -55 19 -105 42 l-93 43 0 63 c0 43 4 62 13 62 6 -1 53
-22 102 -48z m1975 -117 l0 -135 -190 0 -190 0 0 130 0 130 183 3 c100 1 185
3 190 5 4 1 7 -59 7 -133z m6478 99 l112 -7 0 -58 0 -59 -92 5 c-51 3 -130 8
-175 11 l-83 6 0 60 0 60 63 -6 c34 -3 113 -8 175 -12z m-266 -50 c4 -65 8
-61 -140 -117 l-92 -35 0 58 0 58 103 45 c56 25 107 46 114 46 7 1 12 -21 15
-55z m-6086 -26 l84 -72 0 -118 c0 -65 -2 -118 -5 -118 -3 0 -43 30 -90 66
l-85 65 0 125 c0 68 3 124 6 124 3 0 43 -32 90 -72z m4466 53 c4 -3 8 -58 9
-121 l3 -115 -180 0 -179 0 -3 127 -3 126 173 -5 c95 -3 176 -8 180 -12z
m-372 -125 l0 -112 -106 -67 c-58 -37 -108 -67 -112 -67 -13 0 -8 228 6 242
22 22 197 126 205 121 4 -2 7 -55 7 -117z m-6332 -63 l-3 -128 -85 -6 c-47 -3
-122 -10 -167 -14 l-83 -8 0 126 0 126 33 6 c31 5 209 21 275 24 l33 1 -3
-127z m140 72 l92 -44 0 -119 c0 -65 -3 -121 -6 -125 -3 -3 -50 16 -104 41
l-99 47 0 123 c-1 95 2 122 12 122 7 0 55 -20 105 -45z m8555 -14 c4 -4 6 -57
5 -117 l-3 -109 -30 1 c-16 1 -94 5 -173 9 l-143 8 2 115 2 115 166 -7 c91 -4
170 -11 174 -15z m-363 -108 l0 -118 -106 -38 c-59 -21 -113 -41 -120 -44 -12
-4 -14 14 -12 113 l3 119 100 42 c55 23 108 42 118 42 15 1 17 -11 17 -116z
m-6220 -125 l0 -133 -190 -4 -191 -3 3 128 3 129 75 6 c41 3 126 6 188 7 l112
2 0 -132z m210 -152 c0 -137 7 -134 -105 -50 l-75 56 0 124 0 124 90 -68 90
-67 0 -119z m4392 140 c2 -62 2 -121 0 -130 -3 -14 -25 -16 -178 -16 l-174 0
0 130 0 130 174 0 175 0 3 -114z m-382 -26 c0 -130 0 -131 -25 -140 -13 -5
-60 -30 -104 -55 -44 -25 -83 -45 -86 -45 -3 0 -5 54 -5 120 l0 119 95 57 c53
31 98 61 101 65 17 29 24 -4 24 -121z m-6331 -59 c-2 -66 -6 -121 -9 -124 -3
-3 -78 -8 -167 -12 l-163 -7 0 126 c0 126 0 126 23 121 12 -3 60 -1 107 4 47
4 114 9 149 10 l63 1 -3 -119z m5713 100 c197 -4 361 -10 365 -14 20 -21 -43
-24 -377 -16 -458 10 -2283 16 -2895 9 -404 -4 -460 -3 -460 10 0 13 49 16
360 21 438 7 2513 0 3007 -10z m-5585 -33 l93 -43 0 -117 c0 -65 -3 -118 -7
-118 -5 0 -50 15 -100 32 l-93 33 0 128 c0 70 3 127 8 127 4 0 49 -19 99 -42z
m1583 18 c0 -18 -63 -23 -495 -36 -181 -6 -429 -15 -550 -20 -313 -14 -405
-13 -405 3 0 9 20 13 68 15 37 1 173 7 302 13 316 15 873 36 988 38 73 1 92
-2 92 -13z m6863 2 l127 -12 0 -113 0 -113 -169 0 -169 0 -5 38 c-5 30 -3 201
2 210 3 5 94 1 214 -10z m-1248 -33 c755 -28 735 -27 735 -43 0 -16 54 -17
-705 13 -198 8 -417 15 -487 15 -121 0 -128 1 -128 20 0 18 5 19 93 14 50 -2
272 -11 492 -19z m1005 -92 l0 -118 -120 -41 -121 -41 3 116 3 116 110 41 c61
23 113 42 118 43 4 1 7 -52 7 -116z m-4853 -455 c-4 -310 -7 -776 -7 -1036 0
-446 -1 -473 -17 -470 -22 4 -21 -86 -10 1142 5 501 10 913 13 918 3 4 10 8
16 8 8 0 9 -155 5 -562z m413 400 c0 -142 -2 -159 -16 -154 -9 3 -96 6 -195 6
l-179 0 0 150 0 149 158 3 c86 2 174 4 195 5 l37 1 0 -160z m468 -2 l3 -156
-221 0 -220 0 0 158 0 157 217 -1 218 -1 3 -157z m-1791 -638 c-4 -436 -7
-900 -7 -1030 0 -215 -2 -238 -17 -238 -15 0 -16 57 -10 773 9 943 17 1287 30
1287 7 0 8 -262 4 -792z m443 637 l0 -155 -189 0 c-104 0 -196 -3 -205 -6 -14
-5 -16 12 -16 149 l0 156 38 4 c20 2 112 4 205 5 l167 2 0 -155z m418 3 l-3
-153 -197 -3 -198 -2 0 155 0 155 200 0 201 0 -3 -152z m1372 -3 l0 -155 -210
0 -210 0 0 155 0 155 210 0 210 0 0 -155z m54 -217 c3 -205 9 -669 12 -1030 6
-609 5 -658 -10 -658 -9 0 -18 6 -21 13 -2 6 -6 470 -8 1030 -4 808 -2 1017 8
1017 10 0 14 -85 19 -372z m436 217 l0 -155 -207 2 -208 3 -3 153 -3 152 211
0 210 0 0 -155z m248 145 l172 0 0 -152 0 -153 -58 2 c-31 0 -121 2 -199 2
l-143 1 0 148 c0 82 3 152 7 156 4 4 17 5 28 2 11 -3 98 -6 193 -6z m-3019
-517 c-1 -285 -5 -526 -7 -535 -4 -15 -16 -18 -73 -18 -37 0 -71 -4 -74 -10
-4 -6 22 -10 69 -10 l76 0 0 -268 c0 -148 -3 -364 -7 -480 l-6 -212 -80 0 -80
0 4 1025 4 1025 88 0 89 0 -3 -517z m3242 440 c0 -43 4 -501 9 -1018 7 -838 5
-974 -14 -954 -2 2 -7 303 -10 669 -3 366 -9 826 -12 1023 -6 323 -5 357 10
357 13 0 16 -13 17 -77z m316 63 c1 -1 3 -119 5 -261 l3 -260 -145 -5 c-141
-6 -130 -9 55 -16 l90 -3 3 -131 3 -130 -151 0 -150 0 0 260 0 260 142 0 c78
0 139 2 137 4 -2 2 -64 6 -138 10 -74 3 -135 7 -136 9 -7 8 -13 266 -7 272 6
6 282 -3 289 -9z m-4649 -148 l3 -145 -53 -6 c-29 -4 -117 -7 -195 -7 l-143 0
0 145 c0 131 2 145 18 146 39 4 348 15 357 14 6 -1 11 -60 13 -147z m282 63
c0 -48 -3 -116 -6 -150 l-7 -61 -123 0 -124 0 0 150 0 150 130 0 130 0 0 -89z
m-690 -74 l0 -144 -112 -6 c-62 -4 -143 -7 -180 -7 l-68 0 0 145 0 144 103 4
c56 1 137 4 180 5 l77 2 0 -143z m5905 3 l0 -135 -85 4 c-47 1 -88 5 -92 8 -5
2 -8 63 -8 134 l0 130 93 -3 92 -3 0 -135z m298 130 l77 0 0 -140 0 -140 -175
0 -175 0 0 147 0 146 98 -6 c53 -4 132 -7 175 -7z m-6590 -144 c-1 -76 -4
-140 -6 -142 -1 -2 -81 -5 -177 -6 l-175 -3 -3 138 -3 137 28 1 c15 1 87 5
158 9 72 4 141 7 155 6 l25 -1 -2 -139z m6960 128 l77 -7 0 -133 0 -133 -167
6 c-93 3 -170 7 -172 10 -3 2 -6 62 -9 133 l-4 130 100 0 c54 0 133 -3 175 -6z
m-7353 -1074 c-6 -492 -13 -915 -15 -940 -5 -67 4 1015 12 1550 5 256 10 425
12 375 1 -49 -2 -493 -9 -985z m7768 1054 c10 -3 13 -33 10 -131 l-3 -128
-155 4 c-85 1 -158 5 -162 8 -5 2 -8 62 -8 134 l0 129 153 -6 c83 -3 158 -8
165 -10z m52 -146 c1 -90 2 -210 4 -268 6 -178 11 -1628 6 -1632 -3 -1 -295
-1 -650 2 -604 5 -645 6 -648 23 -3 14 4 17 45 17 227 2 1148 -2 1183 -5 l45
-3 -2 400 c0 219 -3 401 -5 402 -4 5 -648 26 -1003 35 -181 4 -278 10 -275 16
6 12 310 10 868 -6 221 -7 404 -10 407 -7 3 2 5 271 5 596 1 366 5 592 11 592
5 0 9 -67 9 -162z m-5948 105 c2 -5 2 -65 0 -135 l-3 -128 -190 0 -189 0 0
130 0 129 73 4 c150 7 306 7 309 0z m192 -128 c15 -9 16 -28 14 -137 l-3 -127
-75 45 c-109 65 -114 72 -106 169 3 44 6 99 6 122 l0 43 74 -53 c41 -28 81
-56 90 -62z m4414 -17 l-3 -133 -65 -3 c-36 -2 -116 -1 -177 3 l-113 7 0 129
0 129 180 0 181 0 -3 -132z m-383 -10 c-2 -66 -5 -121 -7 -123 -2 -1 -51 -27
-110 -59 l-108 -56 0 124 0 124 98 52 c53 29 101 56 106 61 21 19 25 -8 21
-123z m-6343 60 c2 -7 2 -66 0 -131 -4 -116 -5 -119 -26 -113 -11 3 -85 6
-163 6 l-143 0 0 120 0 119 108 4 c59 1 132 4 163 5 38 1 58 -2 61 -10z m141
-44 l87 -28 0 -118 c0 -81 -4 -118 -11 -118 -7 0 -52 14 -100 32 l-89 32 0
119 c0 91 3 118 13 114 6 -2 51 -17 100 -33z m8489 26 l78 0 0 -126 0 -127
-61 7 c-34 3 -111 6 -170 6 l-109 0 0 126 0 127 92 -7 c50 -3 126 -6 170 -6z
m-292 -123 l0 -123 -103 -31 c-56 -18 -110 -35 -120 -39 -15 -6 -17 4 -17 110
l0 116 28 12 c75 30 198 77 205 77 4 1 7 -54 7 -122z m-5322 -173 l-3 -189
-207 -3 -208 -2 0 195 0 195 203 2 c111 2 206 0 210 -3 4 -3 7 -91 5 -195z
m419 9 l-6 -198 -196 -3 -195 -2 0 193 c0 107 3 197 7 200 3 4 94 7 201 7
l194 0 -5 -197z m463 -3 l0 -200 -195 0 -195 0 0 200 0 200 195 0 195 0 0
-200z m470 0 l0 -200 -220 0 -220 0 0 200 0 200 220 0 220 0 0 -200z m440 0
l0 -200 -210 0 -210 0 0 200 0 200 210 0 210 0 0 -200z m398 194 l92 -7 0
-193 c0 -106 -3 -195 -7 -197 -5 -2 -97 -1 -205 1 l-198 4 0 199 0 199 113 0
c63 0 155 -3 205 -6z m1671 0 l61 -7 0 -248 0 -249 -90 0 -90 0 0 158 c0 86
-3 201 -7 255 l-6 97 35 0 c19 0 63 -3 97 -6z m-5447 -14 c2 -5 2 -120 0 -255
l-3 -245 -190 0 -189 0 2 248 3 247 165 3 c91 1 172 4 180 6 27 6 28 6 32 -4z
m278 -245 l0 -255 -131 0 c-131 0 -131 0 -125 23 3 12 6 127 6 255 l0 232 125
0 125 0 0 -255z m4018 53 l4 -198 -199 0 -200 0 -6 83 c-4 45 -7 135 -7 200
l0 117 202 -2 202 -3 4 -197z m1582 -60 l0 -251 -112 6 c-62 4 -141 7 -175 7
l-63 0 0 245 0 245 175 0 175 0 0 -252z m261 242 l109 0 0 -250 0 -250 -107 0
c-60 0 -138 3 -175 7 l-68 6 0 242 c0 133 3 245 8 249 4 5 34 5 66 2 32 -3
108 -6 167 -6z m-6931 -248 l0 -249 -122 -6 c-66 -4 -149 -7 -183 -7 l-61 0 4
238 c2 130 5 242 7 248 2 7 49 12 131 13 71 1 131 4 133 7 2 2 24 4 48 4 l43
0 0 -248z m380 4 l0 -243 -77 -7 c-120 -10 -271 -7 -278 5 -4 6 -4 118 0 250
l8 239 173 0 174 0 0 -244z m6998 229 c9 -3 12 -62 12 -250 l0 -245 -107 1
c-60 1 -131 4 -160 7 l-52 7 -5 241 c-3 133 -3 244 0 247 6 5 291 -2 312 -8z
m-5898 -165 l0 -130 -137 0 c-76 0 -162 -3 -190 -6 l-53 -7 0 131 0 131 38 4
c20 2 106 4 190 5 l152 2 0 -130z m4608 -15 l3 -125 -178 2 -178 3 -3 114 c-1
63 -1 120 1 125 3 7 63 10 178 9 l174 -2 3 -126z m-4518 75 c34 -21 75 -45 91
-52 l29 -13 0 -122 c0 -68 -2 -123 -5 -123 -3 0 -46 23 -95 51 l-90 50 0 125
c0 68 2 124 5 124 2 0 32 -18 65 -40z m4131 13 c0 -16 2 -73 2 -127 l2 -99
-50 -17 c-27 -10 -76 -29 -108 -43 -44 -20 -59 -23 -63 -13 -3 7 -3 59 -2 116
l3 105 100 52 c55 29 103 53 108 53 4 0 7 -12 8 -27z m-6346 -143 l0 -125
-159 -3 c-88 -1 -163 1 -168 6 -5 5 -6 62 -2 131 l7 122 161 -3 161 -3 0 -125z
m134 82 l95 -38 -3 -114 c-1 -63 -4 -116 -6 -118 -2 -2 -34 10 -71 26 -38 16
-81 32 -96 36 l-28 6 0 114 c0 92 4 127 14 126 1 0 43 -17 95 -38z m8469 21
l112 -6 0 -130 c0 -114 -2 -128 -16 -123 -9 3 -85 6 -169 6 l-154 0 -3 126
c-2 69 -1 128 1 130 6 6 99 5 229 -3z m-258 -127 l0 -125 -52 -14 c-29 -8 -75
-20 -103 -26 -27 -7 -58 -14 -67 -17 -16 -5 -18 5 -18 109 l0 115 73 26 c135
49 152 55 160 55 4 1 7 -55 7 -123z m-6222 -192 l3 -131 -137 -6 c-76 -4 -164
-7 -197 -7 l-60 0 7 77 c3 42 6 102 6 134 l0 58 58 4 c31 2 116 3 187 3 l130
-1 3 -131z m4613 104 c5 -7 9 -66 9 -131 l0 -117 -182 2 -183 3 -3 134 -4 134
178 -6 c129 -4 179 -10 185 -19z m-4553 -17 c15 -10 55 -33 90 -50 l62 -31 0
-115 c0 -63 -2 -115 -5 -115 -3 0 -44 18 -93 39 l-87 40 -3 125 c-1 70 0 126
4 126 3 0 18 -8 32 -19z m4172 -110 l0 -128 -102 -37 c-57 -20 -106 -36 -110
-36 -5 0 -8 56 -8 124 0 109 2 124 18 129 9 3 53 21 97 41 44 20 86 36 93 36
9 0 12 -32 12 -129z m-3335 -66 l-1 -160 -207 -3 -207 -2 0 165 0 165 208 -2
207 -3 0 -160z m415 0 l0 -165 -195 0 -195 0 0 165 0 165 195 0 195 0 0 -165z
m470 0 l0 -165 -197 2 -197 3 0 50 c0 28 1 101 2 163 l2 112 195 0 195 0 0
-165z m470 0 l0 -165 -220 0 -219 0 -3 161 c-2 88 -1 163 1 165 2 2 103 4 223
4 l218 0 0 -165z m434 154 c2 -2 6 -76 7 -164 l4 -160 -75 1 c-41 0 -137 1
-212 2 l-138 2 0 158 c0 87 3 162 8 166 7 8 399 3 406 -5z m493 -3 c1 -1 4
-74 5 -161 l3 -160 -205 0 -205 0 -3 167 -2 166 202 -5 c112 -3 204 -6 205 -7z
m-5297 -90 c0 -51 -3 -108 -6 -125 l-7 -31 -161 2 -161 3 -3 123 -3 122 171 0
170 0 0 -94z m135 60 l80 -33 3 -118 3 -118 -23 7 c-13 4 -58 15 -100 24 l-78
17 0 127 c0 150 -7 144 115 94z m5595 -131 l0 -165 -200 0 -200 0 0 165 0 165
200 0 200 0 0 -165z m2980 13 l0 -131 -122 6 c-66 4 -143 7 -170 7 l-48 0 0
125 0 125 170 0 170 0 0 -132z m-366 11 c5 -74 4 -115 -3 -122 -12 -12 -183
-56 -218 -57 -23 0 -23 2 -23 114 0 131 -12 116 120 151 127 34 116 42 124
-86z m-2244 -68 l0 -126 -131 3 c-85 2 -135 0 -142 -7 -8 -8 29 -11 131 -11
166 0 153 14 149 -150 l-2 -105 -145 -5 c-160 -6 -129 -17 45 -17 l100 0 6
-239 c3 -131 5 -282 5 -334 l-1 -95 -152 -3 -153 -3 0 213 0 213 140 -3 c95
-2 140 0 140 7 0 7 -47 11 -140 11 l-140 0 0 178 c0 97 -3 266 -7 374 -3 108
-3 203 0 210 3 10 40 13 151 14 l146 1 0 -126z m838 -69 l2 -173 -87 3 -88 3
-3 173 -2 173 87 -3 88 -3 3 -173z m289 168 l83 0 0 -176 0 -176 -92 5 c-51 4
-130 6 -175 7 l-83 0 0 176 0 177 92 -7 c50 -3 129 -6 175 -6z m-5799 -172
l-3 -173 -192 -3 -193 -2 0 168 c0 93 3 172 7 175 3 4 91 7 195 7 l188 0 -2
-172z m280 0 l-3 -173 -127 -3 -128 -3 0 169 c0 93 3 172 7 175 3 4 62 7 130
7 l123 0 -2 -172z m5818 162 l154 0 0 -174 0 -174 -162 5 c-90 2 -167 5 -171
7 -4 1 -8 76 -8 166 -1 200 -2 183 17 176 9 -3 85 -6 170 -6z m-6893 -174 c-2
-93 -4 -170 -5 -172 -2 -1 -83 -6 -181 -10 l-177 -7 0 176 0 177 163 3 c89 1
171 3 182 2 19 0 20 -6 18 -169z m387 4 l0 -170 -112 0 c-62 0 -143 -3 -180
-7 l-68 -6 0 170 c0 93 3 173 7 176 3 4 84 7 180 7 l173 0 0 -170z m7008 -19
l2 -174 -112 6 c-62 4 -134 7 -160 7 l-47 0 -3 170 -3 170 160 -2 160 -3 3
-174z m-5913 -46 l0 -130 -193 -3 -193 -2 3 127 3 128 160 6 c88 3 174 5 190
5 l30 -1 0 -130z m4625 -4 l0 -129 -132 3 c-73 1 -154 3 -180 4 l-48 1 0 125
0 125 180 0 180 0 0 -129z m-4496 78 c34 -16 67 -29 74 -29 9 0 12 -33 12
-130 0 -71 -2 -130 -5 -130 -2 0 -35 14 -72 31 -38 17 -78 35 -90 40 -22 8
-23 13 -23 134 0 145 -9 138 104 84z m4115 -127 c1 -66 -1 -73 -21 -81 -27
-11 -193 -61 -202 -61 -3 0 -6 51 -6 113 l0 112 108 41 107 41 7 -46 c3 -25 7
-79 7 -119z m-6369 8 l0 -130 -127 0 c-71 0 -145 -3 -165 -6 l-38 -7 0 137 0
136 165 0 165 0 0 -130z m133 101 c43 -10 80 -21 83 -24 7 -7 8 -38 6 -158
l-2 -96 -97 21 c-79 17 -98 25 -97 39 0 9 1 67 2 127 2 80 5 110 15 110 6 0
47 -9 90 -19z m8220 -124 c-3 -67 -7 -124 -9 -126 -3 -4 -190 -40 -211 -41
-10 0 -13 30 -13 119 l0 118 88 23 c48 12 98 26 112 30 14 4 28 5 32 3 4 -2 5
-59 1 -126z m243 123 l124 0 0 -126 0 -126 -170 3 -170 4 0 129 0 129 46 -7
c26 -3 102 -6 170 -6z m-5161 -170 l0 -125 -130 -8 c-71 -4 -158 -5 -192 -1
l-63 6 0 127 0 127 193 0 192 -1 0 -125z m938 123 c251 -3 457 -10 457 -15 0
-4 -295 -8 -655 -8 -576 0 -655 2 -655 15 0 18 122 19 853 8z m-1353 -128 l0
-125 -52 -1 c-29 -1 -122 -2 -205 -3 l-153 -1 0 128 0 127 205 0 205 0 0 -125z
m2295 -5 l0 -125 -200 4 c-110 2 -201 4 -201 5 -1 0 -5 56 -9 124 l-7 122 209
-2 208 -3 0 -125z m427 -302 c1 -236 2 -447 3 -470 l0 -43 -200 0 -200 0 0
328 0 329 176 -2 c96 0 183 2 192 6 45 17 1 24 -175 26 l-193 3 -3 128 -3 129
201 -4 200 -3 2 -427z m-919 -54 c4 -245 4 -450 1 -455 -3 -5 -22 -9 -44 -9
l-38 0 -8 98 c-4 53 -4 250 -1 438 l7 341 -218 6 c-119 4 -375 7 -569 7 l-352
0 6 -445 6 -445 -52 0 -52 0 3 363 c1 199 4 404 6 455 l3 92 648 0 648 0 6
-446z m-298 397 l189 -6 1 -70 0 -70 -545 0 -545 0 -3 72 c-3 72 -3 72 25 76
43 6 665 5 878 -2z m-2807 -53 c-5 -13 -12 -13 -643 -22 -220 -4 -489 -9 -597
-13 -180 -5 -198 -5 -198 10 0 14 13 17 83 18 45 1 233 5 417 8 611 13 942 12
938 -1z m401 -27 c11 -7 13 -33 9 -130 -3 -67 -7 -123 -9 -125 -2 -2 -88 -6
-191 -10 l-188 -7 0 134 c0 74 3 137 7 140 10 10 356 8 372 -2z m4250 -157 l1
-90 -106 -27 c-58 -15 -110 -25 -114 -22 -5 3 -8 58 -7 122 l2 117 105 32 105
32 7 -37 c4 -20 7 -77 7 -127z m389 34 c1 -71 -1 -128 -5 -128 -320 -7 -352
-5 -357 15 -3 11 -6 71 -6 133 l0 112 183 -2 182 -3 3 -127z m-5042 -207 c-3
-174 -6 -346 -6 -383 l0 -68 -125 0 -125 0 0 385 0 384 123 3 c67 2 126 1 131
-1 5 -2 6 -143 2 -320z m546 286 l77 -32 1 -132 0 -133 -67 26 c-38 14 -80 30
-95 36 l-28 10 0 135 c0 125 1 135 18 129 9 -4 52 -21 94 -39z m4688 -347 l0
-390 -85 0 -84 0 0 373 c0 205 -3 380 -7 390 -5 15 3 17 85 17 l91 0 0 -390z
m367 376 c1 -1 3 -175 4 -386 l2 -385 -47 0 c-25 1 -104 2 -176 3 l-130 2 0
383 c0 211 3 386 6 389 4 5 334 -1 341 -6z m-5883 -106 c0 -58 -1 -230 -2
-382 l-2 -278 -197 0 -196 0 6 218 c4 119 7 290 7 379 l0 162 73 4 c39 2 126
3 192 3 l120 -1 -1 -105z m6178 100 l78 0 0 -385 0 -385 -170 0 -170 0 0 391
0 392 92 -7 c50 -3 126 -6 170 -6z m-6586 -52 c-3 -29 -6 -200 -6 -380 l0
-328 -183 0 -184 0 4 368 c3 202 6 373 8 380 3 9 49 12 186 12 l182 0 -7 -52z
m6915 42 l99 0 0 -380 0 -380 -158 0 -159 0 -6 377 c-3 207 -3 381 0 386 3 6
32 7 66 3 33 -3 104 -6 158 -6z m-7941 -136 l0 -136 -165 4 -165 3 0 127 0
127 48 4 c26 2 100 4 165 5 l117 2 0 -136z m636 -236 c-4 -205 -10 -376 -12
-380 -3 -4 -84 -8 -180 -8 l-174 0 0 313 c0 171 3 342 7 380 l6 67 180 0 180
0 -7 -372z m-505 341 l89 -21 0 -129 c0 -71 -3 -129 -7 -129 -5 0 -30 7 -57
15 -27 8 -62 15 -77 15 -51 0 -59 19 -59 151 0 81 4 119 11 119 6 0 51 -9 100
-21z m8589 -119 l0 -130 -170 0 -170 0 0 130 0 130 170 0 170 0 0 -130z m-370
-3 l0 -123 -101 -13 c-55 -7 -107 -15 -115 -18 -12 -5 -14 13 -12 118 l3 123
85 17 c47 9 97 17 113 18 l27 1 0 -123z m-3640 77 c0 -15 -47 -16 -537 -9
-296 4 -542 11 -547 16 -6 5 214 9 537 9 497 0 547 -1 547 -16z m-1695 -339
l0 -330 -207 -3 -208 -2 0 309 c0 169 3 321 6 337 l5 29 202 -5 202 -5 0 -330z
m425 67 c0 -147 -3 -297 -7 -335 l-6 -67 -191 2 -191 3 0 330 0 330 183 2
c101 1 186 4 189 7 19 18 23 -33 23 -272z m1878 -71 l2 -331 -202 2 -203 3 -3
334 -2 333 202 -4 203 -5 3 -332z m-1478 84 l0 -225 -77 0 c-43 0 -85 -5 -93
-10 -10 -7 14 -10 78 -10 l92 0 0 -85 0 -85 -100 0 -100 0 0 320 0 320 100 0
100 0 0 -225z m308 -2 l2 -223 -138 0 -139 0 -6 107 c-4 58 -7 160 -7 225 l0
119 143 -3 142 -3 3 -222z m306 219 c2 -4 6 -104 7 -222 l3 -215 -142 -3 -142
-3 0 134 c0 74 -3 175 -6 225 l-7 92 141 0 c77 0 143 -3 146 -8z m250 -46 c3
-30 6 -174 6 -320 l-1 -266 -109 0 -110 0 0 85 0 85 78 0 c42 0 84 5 92 10 10
7 -14 10 -77 10 l-93 0 0 225 0 225 104 0 103 0 7 -54z m1668 -191 c1 -63 2
-127 2 -142 1 -29 5 -28 -181 -57 l-43 -6 0 133 0 132 98 26 c53 15 103 27
110 28 9 1 12 -29 14 -114z m386 -22 l3 -133 -180 0 -180 0 -3 128 c-2 70 -2
130 0 135 2 4 83 6 180 5 l177 -3 3 -132z m-4655 117 c15 0 17 -13 17 -132 l0
-133 -190 -3 -190 -2 0 135 0 134 153 4 c83 1 161 2 172 0 11 -1 28 -3 38 -3z
m149 -41 l88 -32 0 -118 c0 -100 -2 -118 -15 -113 -8 3 -52 13 -97 22 l-83 17
-3 128 c-2 97 0 127 10 127 7 0 52 -14 100 -31z m-2252 -119 l0 -130 -43 0
c-24 0 -99 -3 -165 -7 l-122 -6 0 136 0 137 165 0 165 0 0 -130z m143 105 l77
-16 0 -57 0 -58 -69 -68 c-59 -58 -73 -68 -94 -62 -25 6 -25 7 -29 138 -2 73
-2 136 -1 140 2 3 11 5 21 3 9 -2 52 -11 95 -20z m8207 -114 l0 -129 -46 -7
c-39 -6 -50 -3 -68 14 -42 41 -94 81 -105 81 -16 0 -15 140 2 141 6 0 48 6 92
14 139 22 125 35 125 -114z m278 123 l92 -7 0 -126 0 -126 -167 4 c-112 2
-170 7 -175 15 -4 6 -8 64 -8 129 l0 117 83 0 c46 0 125 -3 175 -6z m-8412
-206 c-3 -13 -6 -35 -6 -50 0 -25 -4 -28 -33 -28 -19 0 -36 3 -40 6 -7 7 63
93 77 94 4 0 6 -10 2 -22z m7971 -64 c-2 -2 -18 -7 -35 -10 l-32 -6 0 48 0 48
35 -39 c20 -21 34 -39 32 -41z m-1430 22 c4 -3 7 -256 3 -255 -3 0 -31 34 -63
75 -31 41 -62 74 -67 74 -6 0 -10 -32 -10 -75 l0 -75 -110 0 -110 0 0 128 c0
71 3 132 8 136 5 6 342 -1 349 -8z m-4637 -126 l0 -130 -80 0 -80 0 0 40 c0
56 -26 54 -37 -2 -7 -37 -12 -43 -36 -46 -15 -2 -27 0 -27 3 0 4 20 32 44 63
66 86 83 119 68 134 -17 17 -29 3 -95 -107 -52 -89 -54 -90 -95 -93 l-42 -3 0
129 c0 71 3 132 7 135 3 4 89 7 190 7 l183 0 0 -130z m115 113 c25 -3 48 -9
50 -14 6 -8 -127 -180 -134 -173 -3 2 -6 50 -8 105 l-5 102 26 -7 c14 -3 46
-9 71 -13z m4145 -95 c0 -61 -2 -109 -3 -107 -2 2 -41 47 -87 99 -45 52 -79
95 -74 97 15 5 118 21 142 22 22 1 22 -1 22 -111z m-6384 79 c1 -1 5 -21 9
-44 6 -41 6 -43 -66 -118 l-73 -76 -100 3 -101 3 0 115 0 115 120 6 c99 5 205
3 211 -4z m6233 -52 c38 -46 41 -54 41 -112 l0 -63 -60 0 -60 0 0 113 c0 63 3
117 6 120 11 10 29 -4 73 -58z m-3890 -41 c-1 -60 2 -99 10 -107 8 -8 11 -8
11 1 0 9 426 12 1885 12 1878 0 1885 0 1885 -20 0 -20 -7 -20 -1897 -21 -1823
-1 -2074 -1 -2081 6 -2 2 29 43 68 92 99 121 109 133 116 133 3 0 4 -43 3 -96z
m1811 11 l0 -86 -142 3 -143 3 0 75 c0 41 1 78 3 83 2 4 66 7 143 7 l139 0 0
-85z m318 -3 l3 -83 -143 3 -143 3 -3 83 -3 83 143 -3 143 -3 3 -83z m4257
-50 l0 -127 -87 -3 -86 -3 -86 77 -86 76 0 59 0 59 173 -5 172 -6 0 -127z
m-8665 114 c0 -7 -7 -19 -15 -26 -13 -11 -15 -8 -15 14 0 16 5 26 15 26 8 0
15 -6 15 -14z m8290 -21 c0 -19 -2 -35 -4 -35 -2 0 -16 16 -30 35 l-27 35 30
0 c29 0 31 -3 31 -35z m-8148 6 c8 -7 13 -76 10 -148 l-2 -53 -65 0 -65 0 0
49 c0 57 -12 71 -34 39 l-16 -22 0 28 c0 18 14 45 41 78 41 48 43 49 83 43 23
-4 44 -10 48 -14z m8061 -9 c19 -19 25 -35 21 -46 -8 -21 -11 -45 -13 -103
l-1 -43 -75 0 -75 0 0 104 0 105 28 4 c70 10 88 7 115 -21z m81 -84 c3 -13 7
-60 11 -105 l5 -83 -761 0 c-695 0 -764 1 -781 17 -50 45 -67 44 745 42 l762
-2 -4 76 c-2 51 1 77 8 77 6 0 13 -10 15 -22z m-1650 -51 l38 -48 -43 3 -44 3
-3 55 c-2 31 1 51 5 45 5 -5 26 -32 47 -58z m-6684 -12 l0 -45 -47 0 -46 0 19
23 c69 83 74 84 74 22z m6351 -7 l20 -28 -35 0 c-35 0 -36 1 -36 41 0 36 2 40
15 29 9 -7 25 -26 36 -42z m2064 2 l39 -40 -42 0 -42 0 0 40 c0 22 1 40 3 40
2 0 21 -18 42 -40z m-6715 -15 l0 -25 -722 2 c-635 3 -723 5 -723 18 0 13 69
16 540 20 297 3 622 6 723 8 l182 2 0 -25z m-1702 -72 c-3 -28 -4 -28 -80 -29
-43 -1 -78 1 -78 4 0 3 10 16 22 29 18 19 32 23 80 23 59 0 59 0 56 -27z m217
17 c4 -7 13 -7 25 0 19 10 1550 15 1550 4 0 -2 -7 -16 -16 -29 l-16 -25 -844
0 -844 0 0 30 0 30 69 0 c39 0 73 -5 76 -10z m1685 -20 c0 -36 -24 -41 -34 -7
l-7 22 -11 -22 c-6 -13 -20 -23 -30 -23 -19 0 -19 1 -1 30 14 24 24 30 50 30
30 0 33 -3 33 -30z m220 0 l0 -30 -85 0 -85 0 0 30 0 30 85 0 85 0 0 -30z
m4250 16 c0 -8 3 -21 6 -30 6 -15 -185 -16 -2115 -16 l-2121 0 0 30 0 30 2115
0 c1819 0 2115 -2 2115 -14z m238 -13 l-3 -28 -107 -3 -108 -3 0 31 0 30 111
0 110 0 -3 -27z m140 15 c7 -7 12 -20 12 -30 0 -17 -7 -19 -57 -16 -55 3 -58
4 -61 31 -3 26 -2 27 45 27 27 0 54 -5 61 -12z m1750 -11 c12 -11 22 -24 22
-29 0 -4 -35 -8 -78 -8 l-79 0 5 29 c4 27 6 29 55 29 39 0 58 -5 75 -21z m222
-21 c0 -32 -105 -37 -141 -6 l-24 19 83 1 c64 0 82 -3 82 -14z m-6888 -66 c-1
-19 -4 -36 -6 -38 -2 -2 -23 -2 -45 0 l-42 3 32 38 c39 47 65 46 61 -3z
m-1964 -2 c-3 -32 -4 -33 -55 -36 -29 -2 -53 0 -53 3 0 3 10 19 22 35 17 23
30 30 56 30 32 0 33 -2 30 -32z m1855 0 l-19 -33 -897 -3 -897 -2 0 35 0 35
916 0 916 0 -19 -32z m4887 7 c12 -31 18 -31 29 -2 8 20 17 24 60 26 l51 2 0
-36 0 -35 -2435 0 -2435 0 0 35 0 35 2360 0 2361 -1 9 -24z m1898 -12 l3 -33
-804 0 -804 0 -20 23 c-47 52 -99 49 793 45 l829 -3 3 -32z m-1684 2 c22 -33
21 -35 -14 -35 -27 0 -30 3 -30 30 0 37 21 40 44 5z m1775 -1 c17 -14 29 -29
27 -33 -3 -4 -23 -5 -45 -3 -38 4 -41 6 -41 33 0 37 18 37 59 3z m-8739 -88
l0 -35 -87 -3 c-49 -2 -92 -2 -96 0 -5 3 6 19 24 38 31 32 37 34 96 34 l63 0
0 -34z m1812 28 c4 -3 -1 -19 -10 -35 l-17 -29 -867 0 -868 0 0 35 0 35 878 0
c483 0 881 -3 884 -6z m88 -28 c0 -28 -4 -35 -26 -40 -39 -10 -46 4 -23 42 28
43 49 42 49 -2z m4998 -3 l3 -33 -2479 0 -2480 0 -6 23 c-3 12 -6 28 -6 35 0
10 500 12 2483 10 l2482 -3 3 -32z m72 1 c0 -31 -3 -35 -22 -32 -39 5 -37 68
2 68 16 0 20 -6 20 -36z m78 -5 l24 -29 -35 0 c-31 0 -35 3 -39 30 -7 49 11
49 50 -1z m1597 3 l0 -32 -765 0 -765 0 -22 27 c-13 16 -23 32 -23 36 0 4 354
7 788 5 l787 -3 0 -33z m167 27 c13 -6 33 -24 46 -40 l24 -29 -86 0 c-84 0
-87 1 -96 26 -15 38 -13 42 23 47 60 7 66 7 89 -4z m-8977 -119 c0 -33 -2 -35
-39 -38 -54 -5 -60 8 -25 46 40 42 64 39 64 -8z m168 12 c15 -31 29 -33 42 -5
l10 23 850 2 c467 2 852 2 854 1 2 -1 -7 -18 -19 -37 l-22 -36 -924 0 -924 0
0 33 c0 19 3 37 6 40 4 3 31 6 61 5 46 -1 55 -5 66 -26z m1897 7 c0 -5 7 -9
15 -9 8 0 15 5 15 10 0 7 845 10 2515 10 l2515 0 0 -35 0 -35 -2549 0 -2548 0
-7 31 c-7 36 -28 35 -36 -2 -6 -25 -40 -40 -40 -17 0 27 31 57 63 60 37 4 57
-1 57 -13z m5218 -22 l22 -32 -56 -3 c-31 -2 -57 -2 -59 0 -1 2 -5 18 -8 36
l-6 32 42 0 c36 0 45 -5 65 -33z m1532 13 c0 -15 7 -20 26 -20 17 0 28 6 31
20 5 17 14 20 70 20 63 0 65 -1 59 -22 -3 -13 -6 -29 -6 -35 0 -10 -171 -13
-819 -13 l-819 0 -26 35 -27 35 755 0 c749 0 756 0 756 -20z m288 -10 c17 -16
32 -32 32 -35 0 -3 -22 -5 -50 -5 l-50 0 0 35 c0 45 22 46 68 5z m-9108 -94
l0 -35 -85 -3 c-47 -2 -85 1 -85 5 0 5 13 22 29 38 26 25 37 29 85 29 l56 0 0
-34z m1860 22 c0 -8 -7 -24 -16 -36 l-15 -22 -895 0 -894 0 0 28 c0 16 3 31 6
34 3 4 412 7 910 8 743 1 904 -1 904 -12z m120 -23 c0 -35 0 -35 -45 -35 -49
0 -54 8 -29 45 11 17 26 25 45 25 26 0 29 -3 29 -35z m5388 -3 l25 -32 -36 0
c-26 0 -36 5 -40 20 -7 27 -25 25 -29 -2 -2 -13 -9 -23 -15 -22 -7 1 -1190 2
-2628 3 l-2615 1 0 35 0 35 2656 -2 2656 -3 26 -33z m1635 6 c2 -18 4 -34 3
-35 -2 -2 -1480 -5 -1552 -3 -7 0 -24 16 -38 35 l-27 35 804 0 805 0 5 -32z
m212 -4 c38 -29 38 -44 -2 -44 -16 0 -27 7 -30 19 -8 30 -32 34 -42 7 -7 -16
-16 -22 -33 -20 -12 1 -33 3 -45 3 -18 1 -23 7 -23 29 0 16 3 32 8 36 4 5 35
6 70 2 46 -4 71 -12 97 -32z m-9381 -62 c3 -5 3 -25 -1 -45 -5 -36 -7 -37 -49
-37 -24 0 -44 3 -44 8 0 10 70 82 80 82 5 0 11 -4 14 -8z m2070 0 c3 -5 3 -25
-1 -45 -5 -35 -8 -37 -44 -37 -22 0 -39 3 -39 8 0 4 11 24 25 45 25 35 48 47
59 29z m76 -14 c20 -22 22 -22 34 -5 13 16 150 17 2640 17 l2626 0 0 -40 0
-40 -2667 2 -2668 3 -3 28 c-3 28 3 57 12 57 3 0 15 -10 26 -22z m7338 -23
l47 -45 -86 0 -87 0 -4 30 c-7 44 3 52 70 59 7 0 34 -19 60 -44z m-9314 20 c3
-8 12 -15 21 -15 8 0 15 7 15 15 0 13 105 15 885 15 l885 0 -26 -40 -27 -40
-941 2 -941 3 -2 38 -1 37 63 0 c47 0 64 -4 69 -15z m7446 -17 c16 -18 30 -36
30 -40 0 -5 -33 -8 -74 -8 l-74 0 -4 35 c-2 20 -2 38 1 40 2 3 24 5 48 5 36 0
48 -5 73 -32z m1690 -8 l0 -40 -793 0 -794 0 -19 23 c-56 63 -134 57 780 57
l826 0 0 -40z m-9317 -104 c-2 -22 -5 -41 -7 -43 -2 -2 -41 -3 -87 -1 l-84 3
39 43 c38 41 41 43 90 40 l51 -3 -2 -39z m1907 32 c0 -7 -9 -28 -20 -45 l-20
-33 -904 0 -904 0 -6 35 c-4 20 -4 40 -1 45 10 16 1855 13 1855 -2z m170 -32
l0 -44 -71 -4 c-39 -2 -73 0 -75 4 -3 4 7 25 21 48 24 38 28 40 75 40 l50 0 0
-44z m5386 29 c8 -20 30 -19 38 0 4 13 19 15 68 13 l63 -3 3 -42 3 -43 -2760
0 -2761 0 0 38 c0 21 3 42 7 45 3 4 1205 7 2670 7 2358 0 2664 -2 2669 -15z
m261 -25 c39 -48 38 -56 -6 -52 -37 4 -39 6 -43 43 -2 22 -2 42 0 44 7 7 27
-7 49 -35z m1591 -7 l3 -43 -738 -2 -738 -3 -42 40 c-24 21 -43 43 -43 47 0 5
350 7 778 6 l777 -3 3 -42z m210 0 l3 -43 -80 0 -81 0 0 45 0 46 78 -3 77 -3
3 -42z m97 2 l50 -45 -57 0 -58 0 0 45 c0 25 4 45 8 45 4 0 30 -20 57 -45z
m-9787 -112 c-3 -38 -3 -38 -50 -41 -27 -2 -48 0 -48 3 0 4 12 22 26 41 17 22
35 34 51 34 22 0 24 -4 21 -37z m162 17 c0 -10 7 -23 16 -28 33 -19 3 -32 -72
-32 l-74 0 0 40 0 40 65 0 c58 0 65 -2 65 -20z m1830 13 c0 -5 -9 -23 -20 -40
l-20 -33 -857 0 c-472 0 -864 4 -871 8 -8 6 -10 19 -6 40 l7 32 883 0 c486 0
884 -3 884 -7z m136 -9 c-3 -9 -6 -27 -6 -40 0 -22 -3 -24 -55 -24 l-55 0 26
40 c23 34 32 40 61 40 28 0 34 -3 29 -16z m5674 -24 l0 -40 -2817 2 -2818 3
-3 38 -3 37 2820 0 2821 0 0 -40z m179 4 c12 -19 21 -36 21 -38 0 -6 -57 -10
-107 -8 l-43 2 0 40 0 40 54 0 c51 0 55 -2 75 -36z m1711 -5 l0 -39 -806 0
-806 0 -19 23 c-11 12 -24 30 -30 40 -9 17 28 17 826 17 l835 -1 0 -40z m204
10 c14 -17 26 -35 26 -40 0 -5 -40 -9 -90 -9 -49 0 -93 -1 -97 -2 -5 -2 -9 16
-11 40 l-3 42 75 0 c71 0 75 -1 100 -31z m121 -110 c25 -23 45 -45 45 -50 0
-5 -22 -9 -50 -9 l-50 0 0 50 c0 28 2 50 5 50 3 0 26 -19 50 -41z m-10017 -11
l-3 -43 -47 -3 -48 -3 0 45 0 46 51 0 50 0 -3 -42z m1902 -3 l-31 -45 -919 0
-920 0 0 45 0 45 950 0 951 0 -31 -45z m220 19 c0 -21 4 -25 23 -22 14 2 23
11 25 26 l3 22 2900 0 2899 0 0 -45 0 -45 -3015 0 c-1658 0 -3015 3 -3015 7 0
4 12 24 26 45 26 37 28 38 90 38 62 0 64 -1 64 -26z m5963 -19 l38 -45 -46 0
-45 0 0 45 c0 25 4 45 8 45 4 0 25 -20 45 -45z m1609 25 c4 -27 22 -27 26 0 3
18 11 20 93 20 l89 0 0 -45 0 -45 -857 0 -857 0 -38 37 c-21 20 -38 41 -38 45
0 4 355 8 789 8 787 0 790 0 793 -20z m-9845 -27 c-3 -32 -8 -38 -31 -41 -14
-2 -26 0 -26 3 0 8 51 75 56 75 3 0 3 -17 1 -37z m-1 -99 c8 -45 -5 -55 -66
-52 l-45 3 3 35 c5 42 15 50 64 50 35 0 38 -2 44 -36z m1994 11 c4 -10 5 -29
2 -42 l-4 -23 -969 0 -969 0 0 43 0 42 967 0 c938 -1 966 -1 973 -20z m135
-20 l0 -40 -47 -3 c-56 -4 -62 10 -27 60 16 22 28 28 48 26 23 -3 26 -7 26
-43z m6000 18 c8 -32 52 -32 57 0 2 17 10 23 38 24 19 2 50 0 68 -3 30 -5 32
-8 32 -44 l0 -40 -3074 0 -3073 0 -6 36 c-4 21 -5 40 -3 43 2 3 1343 6 2980 6
l2975 0 6 -22z m1930 -15 c7 -21 10 -40 7 -43 -3 -3 -387 -5 -854 -5 l-848 0
0 40 0 40 203 2 c111 2 489 3 840 3 l639 0 13 -37z m195 -3 l0 -45 -70 0 -70
0 0 38 c0 21 3 42 7 45 3 4 35 7 70 7 l63 0 0 -45z m-10095 -75 c537 6 1835 4
1838 -3 1 -5 1 -26 -1 -48 l-4 -39 -1052 2 -1051 3 -3 33 c-6 58 2 66 56 57
26 -4 124 -6 217 -5z m1943 0 c18 0 22 -6 22 -29 0 -17 6 -31 16 -35 23 -9 34
2 34 35 l0 29 3075 0 3075 0 0 -45 0 -45 -3145 0 -3145 0 0 51 c0 48 1 51 23
45 12 -3 32 -6 45 -6z m7221 0 l932 -1 -3 -42 -3 -42 -942 -3 -943 -2 0 43 c0
44 6 60 20 52 4 -3 427 -5 939 -5z m-7329 -160 l0 -50 -1049 0 -1049 0 -7 40
c-4 21 -4 44 0 50 4 7 342 10 1056 10 l1049 0 0 -50z m6330 -2 l0 -48 -3144 0
-3144 0 -4 39 c-2 22 -2 45 0 50 3 8 918 10 3148 9 l3144 -3 0 -47z m1928 -3
l3 -45 -943 2 -943 3 -3 33 c-2 19 -1 39 1 45 3 9 241 11 943 9 l939 -2 3 -45z
m-8260 -118 l-3 -52 -1045 0 -1045 0 -3 47 -3 47 113 3 c62 2 535 4 1051 5
l938 2 -3 -52z m4800 44 l1532 -1 0 -27 c0 -16 -3 -38 -6 -51 l-6 -22 -3141 2
-3142 3 4 45 c1 25 4 47 6 50 2 3 727 4 1612 3 884 0 2298 -2 3141 -2z m3462
-51 l0 -50 -937 2 -938 3 -3 48 -3 47 940 0 941 0 0 -50z"/>
<path d="M6852 7670 c0 -19 2 -27 5 -17 2 9 2 25 0 35 -3 9 -5 1 -5 -18z"/>
<path d="M5730 7676 c0 -8 5 -18 10 -21 6 -3 10 3 10 14 0 12 -4 21 -10 21 -5
0 -10 -6 -10 -14z"/>
<path d="M4670 7628 c0 -15 5 -30 10 -33 13 -8 13 25 0 45 -8 12 -10 9 -10
-12z"/>
<path d="M4730 3330 c-10 -7 7 -10 58 -10 46 0 71 4 67 10 -8 13 -105 13 -125
0z"/>
<path d="M4725 2900 c-4 -6 18 -10 60 -10 42 0 64 4 60 10 -3 6 -30 10 -60 10
-30 0 -57 -4 -60 -10z"/>
<path d="M4730 2280 c-11 -7 3 -10 48 -10 35 0 62 4 62 10 0 13 -90 13 -110 0z"/>
<path d="M4735 2030 c7 -12 49 -12 85 0 19 6 11 8 -33 9 -36 1 -56 -3 -52 -9z"/>
<path d="M4720 1780 c0 -6 27 -10 60 -10 33 0 60 4 60 10 0 6 -27 10 -60 10
-33 0 -60 -4 -60 -10z"/>
<path d="M8185 1770 c4 -6 57 -10 126 -10 73 0 119 4 119 10 0 6 -49 10 -126
10 -81 0 -123 -4 -119 -10z"/>
<path d="M5880 2290 c0 -13 20 -13 40 0 12 8 9 10 -12 10 -16 0 -28 -4 -28
-10z"/>
<path d="M7100 2290 c0 -5 9 -10 20 -10 11 0 20 5 20 10 0 6 -9 10 -20 10 -11
0 -20 -4 -20 -10z"/>
<path d="M2450 1600 c-11 -7 -7 -10 18 -10 17 0 32 5 32 10 0 13 -30 13 -50 0z"/>
</g>
</svg>
