<svg width="1340" height="384" viewBox="0 0 1340 384" fill="none" xmlns="http://www.w3.org/2000/svg">
<path d="M170.711 201.104C166.778 166.576 145.145 149.698 105.431 149.698C70.4148 149.698 47.9629 163.937 47.9629 185.709C47.9629 204.128 61.729 215.014 95.161 222.161L137.661 231.178C168.744 237.94 184.477 244.318 197.041 255.204C203.956 261.093 209.473 268.466 213.188 276.781C216.903 285.096 218.721 294.142 218.51 303.256C218.51 350.594 178.413 379.843 114.718 379.843C46.4333 379.843 5.46274 346.8 0 286.762H38.9494C42.8825 326.568 70.4148 348.67 115.428 348.67C153.175 348.67 179.943 331.021 179.943 305.895C179.943 287.092 165.794 274.722 138.262 268.344L79.4283 254.819C31.4654 243.933 9.83294 223.646 9.83294 189.888C9.83294 145.904 48.0721 118.414 108.162 118.414C168.253 118.414 200.592 145.079 208.895 201.379L170.711 201.104Z" fill="url(#paint0_linear_690_20784)"/>
<path d="M170.711 201.104C166.778 166.576 145.145 149.698 105.431 149.698C70.4148 149.698 47.9629 163.937 47.9629 185.709C47.9629 204.128 61.729 215.014 95.161 222.161L137.661 231.178C168.744 237.94 184.477 244.318 197.041 255.204C203.956 261.093 209.473 268.466 213.188 276.781C216.903 285.096 218.721 294.142 218.51 303.256C218.51 350.594 178.413 379.843 114.718 379.843C46.4333 379.843 5.46274 346.8 0 286.762H38.9494C42.8825 326.568 70.4148 348.67 115.428 348.67C153.175 348.67 179.943 331.021 179.943 305.895C179.943 287.092 165.794 274.722 138.262 268.344L79.4283 254.819C31.4654 243.933 9.83294 223.646 9.83294 189.888C9.83294 145.904 48.0721 118.414 108.162 118.414C168.253 118.414 200.592 145.079 208.895 201.379L170.711 201.104Z" fill="url(#paint1_radial_690_20784)" style="mix-blend-mode:overlay"/>
<path d="M304.81 374.242H267.663V123.754H304.81V374.242Z" fill="url(#paint2_linear_690_20784)"/>
<path d="M304.81 374.242H267.663V123.754H304.81V374.242Z" fill="url(#paint3_radial_690_20784)" style="mix-blend-mode:overlay"/>
<path d="M460.946 374.242H423.581V154.927H341.64V123.754H542.778V154.927H460.837L460.946 374.242Z" fill="url(#paint4_linear_690_20784)"/>
<path d="M460.946 374.242H423.581V154.927H341.64V123.754H542.778V154.927H460.837L460.946 374.242Z" fill="url(#paint5_radial_690_20784)" style="mix-blend-mode:overlay"/>
<path d="M752.43 202.272C744.564 169.284 718.179 149.326 682.015 149.326C631.649 149.326 598.599 188.362 598.599 247.3C598.599 307.778 631.376 348.683 680.54 348.683C721.456 348.683 749.808 322.403 755.708 278.858H793.455C791.776 300.055 783.971 320.295 771.003 337.082C749.152 365.617 719.107 379.856 679.776 379.856C640.444 379.856 609.743 365.617 587.728 337.082C568.44 311.527 558.312 280.155 558.994 248.07C558.994 171.868 609.743 118.152 681.742 118.152C737.571 118.152 777.34 148.171 788.703 198.863L752.43 202.272Z" fill="url(#paint6_linear_690_20784)"/>
<path d="M752.43 202.272C744.564 169.284 718.179 149.326 682.015 149.326C631.649 149.326 598.599 188.362 598.599 247.3C598.599 307.778 631.376 348.683 680.54 348.683C721.456 348.683 749.808 322.403 755.708 278.858H793.455C791.776 300.055 783.971 320.295 771.003 337.082C749.152 365.617 719.107 379.856 679.776 379.856C640.444 379.856 609.743 365.617 587.728 337.082C568.44 311.527 558.312 280.155 558.994 248.07C558.994 171.868 609.743 118.152 681.742 118.152C737.571 118.152 777.34 148.171 788.703 198.863L752.43 202.272Z" fill="url(#paint7_radial_690_20784)" style="mix-blend-mode:overlay"/>
<path d="M1302.26 374.242L1194.86 216.175C1181.91 196.602 1174.05 184.232 1167.55 172.961C1168.31 183.957 1168.69 207.873 1168.69 220.299V374.242H1133.51V123.754H1171.75L1274.78 276.213C1285.92 292.957 1296.2 310.261 1305.59 328.059C1304.83 314.149 1304.39 298.755 1304.39 281.106V125.293H1339.79V374.242H1302.26Z" fill="url(#paint8_linear_690_20784)"/>
<path d="M1302.26 374.242L1194.86 216.175C1181.91 196.602 1174.05 184.232 1167.55 172.961C1168.31 183.957 1168.69 207.873 1168.69 220.299V374.242H1133.51V123.754H1171.75L1274.78 276.213C1285.92 292.957 1296.2 310.261 1305.59 328.059C1304.83 314.149 1304.39 298.755 1304.39 281.106V125.293H1339.79V374.242H1302.26Z" fill="url(#paint9_radial_690_20784)" style="mix-blend-mode:overlay"/>
<path d="M1005.97 11.8643C1012.88 6.8517 1020.73 3.31459 1029.04 1.47079C1037.36 -0.373009 1045.96 -0.484468 1054.32 1.14327C1054.32 1.14327 1049.95 32.8117 1027.77 49.8554C1005.59 66.8992 974.07 62.8857 974.07 62.8857C979.062 55.1088 983.639 47.0704 987.782 38.8045C991.934 30.8874 997.779 18.187 1005.97 11.8643Z" fill="url(#paint10_linear_690_20784)"/>
<path d="M1005.97 11.8643C1012.88 6.8517 1020.73 3.31459 1029.04 1.47079C1037.36 -0.373009 1045.96 -0.484468 1054.32 1.14327C1054.32 1.14327 1049.95 32.8117 1027.77 49.8554C1005.59 66.8992 974.07 62.8857 974.07 62.8857C979.062 55.1088 983.639 47.0704 987.782 38.8045C991.934 30.8874 997.779 18.187 1005.97 11.8643Z" fill="url(#paint11_radial_690_20784)" style="mix-blend-mode:overlay"/>
<path d="M952.753 37.698C949.527 35.3451 945.855 33.6824 941.966 32.8124C938.076 31.9425 934.051 31.8837 930.138 32.6399C931.527 41.4435 935.91 49.4886 942.538 55.4015C949.941 60.2974 958.804 62.4545 967.612 61.5043C965.281 57.9505 963.129 54.2805 961.166 50.5083C959.277 45.6961 956.412 41.3332 952.753 37.698Z" fill="url(#paint12_linear_690_20784)"/>
<path d="M952.753 37.698C949.527 35.3451 945.855 33.6824 941.966 32.8124C938.076 31.9425 934.051 31.8837 930.138 32.6399C931.527 41.4435 935.91 49.4886 942.538 55.4015C949.941 60.2974 958.804 62.4545 967.612 61.5043C965.281 57.9505 963.129 54.2805 961.166 50.5083C959.277 45.6961 956.412 41.3332 952.753 37.698Z" fill="url(#paint13_radial_690_20784)" style="mix-blend-mode:overlay"/>
<path d="M955.278 113.196C958.283 113.196 961.342 113.196 964.346 113.526C960.819 97.4405 962.983 80.6199 970.464 65.9688C955.988 77.6795 948.941 95.6579 945.281 113.636C948.614 113.361 951.946 113.196 955.278 113.196Z" fill="url(#paint14_linear_690_20784)"/>
<path d="M955.278 113.196C958.283 113.196 961.342 113.196 964.346 113.526C960.819 97.4405 962.983 80.6199 970.464 65.9688C955.988 77.6795 948.941 95.6579 945.281 113.636C948.614 113.361 951.946 113.196 955.278 113.196Z" fill="url(#paint15_radial_690_20784)" style="mix-blend-mode:overlay"/>
<path d="M955.274 118.594C929.279 118.594 903.868 126.352 882.254 140.887C860.64 155.422 843.794 176.082 833.846 200.253C823.898 224.425 821.295 251.022 826.366 276.682C831.438 302.342 843.956 325.913 862.337 344.412C880.718 362.912 904.138 375.511 929.633 380.615C955.129 385.719 981.556 383.1 1005.57 373.087C1029.59 363.075 1050.12 346.121 1064.56 324.367C1079 302.613 1086.71 277.038 1086.71 250.875C1086.71 215.792 1072.86 182.146 1048.21 157.338C1023.56 132.531 990.133 118.594 955.274 118.594ZM1008.97 304.92L955.274 267.699L901.357 304.92L938.34 250.875L901.357 196.83L955.056 233.996L1008.75 196.83L971.827 250.875L1008.97 304.92Z" fill="url(#paint16_linear_690_20784)"/>
<path d="M955.274 118.594C929.279 118.594 903.868 126.352 882.254 140.887C860.64 155.422 843.794 176.082 833.846 200.253C823.898 224.425 821.295 251.022 826.366 276.682C831.438 302.342 843.956 325.913 862.337 344.412C880.718 362.912 904.138 375.511 929.633 380.615C955.129 385.719 981.556 383.1 1005.57 373.087C1029.59 363.075 1050.12 346.121 1064.56 324.367C1079 302.613 1086.71 277.038 1086.71 250.875C1086.71 215.792 1072.86 182.146 1048.21 157.338C1023.56 132.531 990.133 118.594 955.274 118.594ZM1008.97 304.92L955.274 267.699L901.357 304.92L938.34 250.875L901.357 196.83L955.056 233.996L1008.75 196.83L971.827 250.875L1008.97 304.92Z" fill="url(#paint17_radial_690_20784)" style="mix-blend-mode:overlay"/>
<defs>
<linearGradient id="paint0_linear_690_20784" x1="2.79869e-05" y1="272.378" x2="542.242" y2="-518.637" gradientUnits="userSpaceOnUse">
<stop offset="0.0677083" stop-color="#69501D"/>
<stop offset="0.21875" stop-color="#B09764"/>
<stop offset="0.453125" stop-color="#A28956"/>
<stop offset="0.524381" stop-color="#745B28"/>
<stop offset="0.796875" stop-color="#69501D"/>
<stop offset="0.895833" stop-color="#8E7542"/>
<stop offset="1" stop-color="#6A511E"/>
</linearGradient>
<radialGradient id="paint1_radial_690_20784" cx="0" cy="0" r="1" gradientTransform="matrix(614.336 306.661 -1072.3 215.6 -2.95352e-05 -33.1708)" gradientUnits="userSpaceOnUse">
<stop stop-color="white"/>
<stop offset="1" stop-color="white" stop-opacity="0"/>
</radialGradient>
<linearGradient id="paint2_linear_690_20784" x1="2.79869e-05" y1="272.378" x2="542.242" y2="-518.637" gradientUnits="userSpaceOnUse">
<stop offset="0.0677083" stop-color="#69501D"/>
<stop offset="0.21875" stop-color="#B09764"/>
<stop offset="0.453125" stop-color="#A28956"/>
<stop offset="0.524381" stop-color="#745B28"/>
<stop offset="0.796875" stop-color="#69501D"/>
<stop offset="0.895833" stop-color="#8E7542"/>
<stop offset="1" stop-color="#6A511E"/>
</linearGradient>
<radialGradient id="paint3_radial_690_20784" cx="0" cy="0" r="1" gradientTransform="matrix(614.336 306.661 -1072.3 215.6 -2.95352e-05 -33.1708)" gradientUnits="userSpaceOnUse">
<stop stop-color="white"/>
<stop offset="1" stop-color="white" stop-opacity="0"/>
</radialGradient>
<linearGradient id="paint4_linear_690_20784" x1="2.79869e-05" y1="272.378" x2="542.242" y2="-518.637" gradientUnits="userSpaceOnUse">
<stop offset="0.0677083" stop-color="#69501D"/>
<stop offset="0.21875" stop-color="#B09764"/>
<stop offset="0.453125" stop-color="#A28956"/>
<stop offset="0.524381" stop-color="#745B28"/>
<stop offset="0.796875" stop-color="#69501D"/>
<stop offset="0.895833" stop-color="#8E7542"/>
<stop offset="1" stop-color="#6A511E"/>
</linearGradient>
<radialGradient id="paint5_radial_690_20784" cx="0" cy="0" r="1" gradientTransform="matrix(614.336 306.661 -1072.3 215.6 -2.95352e-05 -33.1708)" gradientUnits="userSpaceOnUse">
<stop stop-color="white"/>
<stop offset="1" stop-color="white" stop-opacity="0"/>
</radialGradient>
<linearGradient id="paint6_linear_690_20784" x1="2.79869e-05" y1="272.378" x2="542.242" y2="-518.637" gradientUnits="userSpaceOnUse">
<stop offset="0.0677083" stop-color="#69501D"/>
<stop offset="0.21875" stop-color="#B09764"/>
<stop offset="0.453125" stop-color="#A28956"/>
<stop offset="0.524381" stop-color="#745B28"/>
<stop offset="0.796875" stop-color="#69501D"/>
<stop offset="0.895833" stop-color="#8E7542"/>
<stop offset="1" stop-color="#6A511E"/>
</linearGradient>
<radialGradient id="paint7_radial_690_20784" cx="0" cy="0" r="1" gradientTransform="matrix(614.336 306.661 -1072.3 215.6 -2.95352e-05 -33.1708)" gradientUnits="userSpaceOnUse">
<stop stop-color="white"/>
<stop offset="1" stop-color="white" stop-opacity="0"/>
</radialGradient>
<linearGradient id="paint8_linear_690_20784" x1="2.79869e-05" y1="272.378" x2="542.242" y2="-518.637" gradientUnits="userSpaceOnUse">
<stop offset="0.0677083" stop-color="#69501D"/>
<stop offset="0.21875" stop-color="#B09764"/>
<stop offset="0.453125" stop-color="#A28956"/>
<stop offset="0.524381" stop-color="#745B28"/>
<stop offset="0.796875" stop-color="#69501D"/>
<stop offset="0.895833" stop-color="#8E7542"/>
<stop offset="1" stop-color="#6A511E"/>
</linearGradient>
<radialGradient id="paint9_radial_690_20784" cx="0" cy="0" r="1" gradientTransform="matrix(614.336 306.661 -1072.3 215.6 -2.95352e-05 -33.1708)" gradientUnits="userSpaceOnUse">
<stop stop-color="white"/>
<stop offset="1" stop-color="white" stop-opacity="0"/>
</radialGradient>
<linearGradient id="paint10_linear_690_20784" x1="2.79869e-05" y1="272.378" x2="542.242" y2="-518.637" gradientUnits="userSpaceOnUse">
<stop offset="0.0677083" stop-color="#69501D"/>
<stop offset="0.21875" stop-color="#B09764"/>
<stop offset="0.453125" stop-color="#A28956"/>
<stop offset="0.524381" stop-color="#745B28"/>
<stop offset="0.796875" stop-color="#69501D"/>
<stop offset="0.895833" stop-color="#8E7542"/>
<stop offset="1" stop-color="#6A511E"/>
</linearGradient>
<radialGradient id="paint11_radial_690_20784" cx="0" cy="0" r="1" gradientTransform="matrix(614.336 306.661 -1072.3 215.6 -2.95352e-05 -33.1708)" gradientUnits="userSpaceOnUse">
<stop stop-color="white"/>
<stop offset="1" stop-color="white" stop-opacity="0"/>
</radialGradient>
<linearGradient id="paint12_linear_690_20784" x1="2.79869e-05" y1="272.378" x2="542.242" y2="-518.637" gradientUnits="userSpaceOnUse">
<stop offset="0.0677083" stop-color="#69501D"/>
<stop offset="0.21875" stop-color="#B09764"/>
<stop offset="0.453125" stop-color="#A28956"/>
<stop offset="0.524381" stop-color="#745B28"/>
<stop offset="0.796875" stop-color="#69501D"/>
<stop offset="0.895833" stop-color="#8E7542"/>
<stop offset="1" stop-color="#6A511E"/>
</linearGradient>
<radialGradient id="paint13_radial_690_20784" cx="0" cy="0" r="1" gradientTransform="matrix(614.336 306.661 -1072.3 215.6 -2.95352e-05 -33.1708)" gradientUnits="userSpaceOnUse">
<stop stop-color="white"/>
<stop offset="1" stop-color="white" stop-opacity="0"/>
</radialGradient>
<linearGradient id="paint14_linear_690_20784" x1="2.79869e-05" y1="272.378" x2="542.242" y2="-518.637" gradientUnits="userSpaceOnUse">
<stop offset="0.0677083" stop-color="#69501D"/>
<stop offset="0.21875" stop-color="#B09764"/>
<stop offset="0.453125" stop-color="#A28956"/>
<stop offset="0.524381" stop-color="#745B28"/>
<stop offset="0.796875" stop-color="#69501D"/>
<stop offset="0.895833" stop-color="#8E7542"/>
<stop offset="1" stop-color="#6A511E"/>
</linearGradient>
<radialGradient id="paint15_radial_690_20784" cx="0" cy="0" r="1" gradientTransform="matrix(614.336 306.661 -1072.3 215.6 -2.95352e-05 -33.1708)" gradientUnits="userSpaceOnUse">
<stop stop-color="white"/>
<stop offset="1" stop-color="white" stop-opacity="0"/>
</radialGradient>
<linearGradient id="paint16_linear_690_20784" x1="2.79869e-05" y1="272.378" x2="542.242" y2="-518.637" gradientUnits="userSpaceOnUse">
<stop offset="0.0677083" stop-color="#69501D"/>
<stop offset="0.21875" stop-color="#B09764"/>
<stop offset="0.453125" stop-color="#A28956"/>
<stop offset="0.524381" stop-color="#745B28"/>
<stop offset="0.796875" stop-color="#69501D"/>
<stop offset="0.895833" stop-color="#8E7542"/>
<stop offset="1" stop-color="#6A511E"/>
</linearGradient>
<radialGradient id="paint17_radial_690_20784" cx="0" cy="0" r="1" gradientTransform="matrix(614.336 306.661 -1072.3 215.6 -2.95352e-05 -33.1708)" gradientUnits="userSpaceOnUse">
<stop stop-color="white"/>
<stop offset="1" stop-color="white" stop-opacity="0"/>
</radialGradient>
</defs>
</svg>
