<svg xmlns="http://www.w3.org/2000/svg" width="140" height="41" viewBox="0 0 140 41" fill="none">
  <path d="M17.8353 21.0102C17.4244 17.4029 15.1643 15.6395 11.0151 15.6395C7.35671 15.6395 5.01101 17.1272 5.01101 19.4019C5.01101 21.3262 6.44925 22.4635 9.94211 23.2102L14.3824 24.1523C17.6298 24.8588 19.2735 25.5251 20.5862 26.6625C21.3086 27.2778 21.8851 28.048 22.2732 28.9167C22.6613 29.7854 22.8513 30.7306 22.8292 31.6828C22.8292 36.6285 18.64 39.6844 11.9853 39.6844C4.8512 39.6844 0.57073 36.2321 0 29.9596H4.0693C4.48023 34.1183 7.35671 36.4274 12.0595 36.4274C16.0033 36.4274 18.7998 34.5836 18.7998 31.9585C18.7998 29.994 17.3216 28.7016 14.4452 28.0353L8.29841 26.6222C3.2874 25.4849 1.02731 23.3653 1.02731 19.8384C1.02731 15.2432 5.02242 12.3711 11.3004 12.3711C17.5785 12.3711 20.9572 15.157 21.8247 21.039L17.8353 21.0102Z" fill="white"/>
  <path d="M31.8458 39.0999H27.9648V12.9297H31.8458V39.0999Z" fill="white"/>
  <path d="M48.1581 39.0999H44.2543V16.1866H35.6934V12.9297H56.7076V16.1866H48.1467L48.1581 39.0999Z" fill="white"/>
  <path d="M78.6114 21.1322C77.7895 17.6858 75.0329 15.6007 71.2546 15.6007C65.9925 15.6007 62.5396 19.679 62.5396 25.8367C62.5396 32.1552 65.964 36.4288 71.1006 36.4288C75.3753 36.4288 78.3374 33.6831 78.9538 29.1338H82.8975C82.7221 31.3484 81.9067 33.4629 80.5518 35.2168C78.2689 38.198 75.1299 39.6857 71.0206 39.6857C66.9114 39.6857 63.7039 38.198 61.4039 35.2168C59.3886 32.5469 58.3306 29.2692 58.4018 25.9171C58.4018 17.9558 63.7039 12.3438 71.2261 12.3438C77.059 12.3438 81.2139 15.48 82.401 20.7761L78.6114 21.1322Z" fill="white"/>
  <path d="M136.056 39.0999L124.835 22.5855C123.482 20.5406 122.661 19.2482 121.981 18.0707C122.061 19.2195 122.101 21.7182 122.101 23.0164V39.0999H118.426V12.9297H122.421L133.185 28.8581C134.349 30.6074 135.423 32.4153 136.404 34.2748C136.324 32.8216 136.278 31.2132 136.278 29.3693V13.0905H139.977V39.0999H136.056Z" fill="white"/>
  <path d="M105.101 1.23955C105.822 0.715843 106.642 0.346297 107.511 0.153663C108.38 -0.0389708 109.278 -0.0506157 110.152 0.119445C110.152 0.119445 109.695 3.42806 107.378 5.20873C105.061 6.98941 101.768 6.57009 101.768 6.57009C102.289 5.75758 102.767 4.91776 103.2 4.05416C103.634 3.22701 104.245 1.90012 105.101 1.23955Z" fill="white"/>
  <path d="M99.5406 3.93894C99.2035 3.69312 98.8199 3.5194 98.4135 3.42851C98.0071 3.33762 97.5866 3.33149 97.1777 3.41048C97.3229 4.33026 97.7808 5.17079 98.4733 5.78855C99.2468 6.30006 100.173 6.52542 101.093 6.42614C100.849 6.05486 100.625 5.67143 100.419 5.27732C100.222 4.77456 99.9228 4.31874 99.5406 3.93894Z" fill="white"/>
  <path d="M99.8042 11.8268C100.118 11.8268 100.438 11.8268 100.752 11.8612C100.383 10.1806 100.609 8.42328 101.391 6.89258C99.8784 8.11607 99.1422 9.9944 98.7598 11.8727C99.1079 11.844 99.4561 11.8268 99.8042 11.8268Z" fill="white"/>
  <path d="M99.804 12.3945C97.0881 12.3945 94.4332 13.2051 92.1751 14.7237C89.9169 16.2423 88.1569 18.4007 87.1175 20.9261C86.0782 23.4514 85.8063 26.2302 86.3361 28.9111C86.866 31.592 88.1738 34.0545 90.0942 35.9873C92.0146 37.9201 94.4614 39.2364 97.1251 39.7697C99.7888 40.3029 102.55 40.0292 105.059 38.9832C107.568 37.9372 109.713 36.1658 111.222 33.893C112.73 31.6203 113.536 28.9483 113.536 26.2149C113.536 22.5495 112.089 19.0342 109.514 16.4424C106.939 13.8506 103.446 12.3945 99.804 12.3945ZM105.414 31.8613L99.804 27.9726L94.1709 31.8613L98.0348 26.2149L94.1709 20.5684L99.7812 24.4514L105.391 20.5684L101.533 26.2149L105.414 31.8613Z" fill="white"/>
</svg>