<svg xmlns="http://www.w3.org/2000/svg" width="600" height="400" viewBox="0 0 600 400">
    <title>amd with padding</title>
    
<svg id="logo" xmlns="http://www.w3.org/2000/svg" baseProfile="tiny" version="1.2" xmlns:i="http://ns.adobe.com/AdobeIllustrator/10.0/" viewBox="0 0 243.64 93.83" x="50" y="103.33333333333333" width="500" height="193.33333333333334">
  <!-- Generator: Adobe Illustrator 30.1.0, SVG Export Plug-In . SVG Version: 2.1.1 Build 136)  -->
  <rect width="243.64" height="93.83" fill="none"/>
  <g>
    <path d="M69.66,67.26h-10.91l-3.34-8.05h-18.18l-3.04,8.05h-10.73l16.39-40.66h11.74l18.06,40.66ZM45.87,36.31l-5.96,15.8h12.52l-6.56-15.8Z"/>
    <path d="M109.29,26.6h8.82v40.66h-10.14v-25.4l-10.97,12.76h-1.55l-10.97-12.76v25.4h-10.14V26.6h8.82l13.06,15.08,13.06-15.08Z"/>
    <path d="M143.8,26.6c14.84,0,22.47,9.24,22.47,20.39s-7.39,20.27-23.61,20.27h-16.81V26.6h17.94ZM135.99,59.8h6.62c10.19,0,13.23-6.92,13.23-12.88,0-6.98-3.76-12.88-13.35-12.88h-6.5v25.75Z"/>
  </g>
  <g>
    <polygon points="207.4 36.24 186.44 36.24 173.66 23.46 220.18 23.46 220.18 69.98 207.4 57.2 207.4 36.24"/>
    <polygon points="186.42 57.22 186.42 38.8 173.26 51.96 173.26 70.38 191.68 70.38 204.84 57.22 186.42 57.22"/>
  </g>
  
</svg>
</svg>