<svg xmlns="http://www.w3.org/2000/svg" width="600" height="400" viewBox="0 0 600 400">
    <title>archilife with padding</title>
    <svg xmlns="http://www.w3.org/2000/svg" xmlns:svg="http://www.w3.org/2000/svg" viewBox="0 0 419.27873 77.93399" version="1.1" id="svg59" x="50" y="153.48837209302326" width="500" height="93.02325581395348">
  <defs id="defs59"/>
  <path fill-rule="nonzero" fill="#231916" fill-opacity="1" d="m 345.95239,68.594143 -4.90235,-12.265626 h -2.96093 l -0.004,21.292969 h 3.30859 V 65.508205 l 5.34766,12.113281 h 2.36719 V 56.328517 h -3.14844 z m 0,0" id="path1"/>
  <path fill-rule="nonzero" fill="#231916" fill-opacity="1" d="m 416.03051,68.578517 -4.90234,-12.265624 h -2.96094 l -0.004,21.292968 h 3.3086 l 0.004,-12.117187 5.34375,12.117187 h 2.36719 l 0.004,-21.292968 h -3.14844 z m 0,0" id="path2"/>
  <path fill-rule="nonzero" fill="#231916" fill-opacity="1" d="m 402.26489,72.574611 c 0,1.355469 -0.61719,2.042969 -1.82032,2.042969 -1.20312,0 -1.82031,-0.6875 -1.82031,-2.042969 V 61.687893 c 0,-1.355469 0.61719,-2.019532 1.82031,-2.019532 1.20313,0 1.82032,0.664063 1.82032,2.019532 z m -1.69141,-16.546875 c -3.50781,0 -5.55859,2.023438 -5.55859,5.292969 v 10.761719 c 0,3.835937 1.91797,5.828125 5.42968,5.828125 3.44532,0 5.46094,-2.019532 5.46094,-5.734375 V 61.410549 c 0,-3.390625 -2.11328,-5.382813 -5.33203,-5.382813" id="path3"/>
  <path fill-rule="nonzero" fill="#000100" fill-opacity="1" d="m 388.74536,77.58633 h 3.66015 V 56.293361 h -3.66015 z m 0,0" id="path4"/>
  <path fill-rule="nonzero" fill="#231916" fill-opacity="1" d="m 376.28832,59.699611 h 3.67188 v 17.894532 h 3.53906 V 59.699611 h 3.70313 v -3.402344 h -10.91407 z m 0,0" id="path5"/>
  <path fill-rule="nonzero" fill="#231916" fill-opacity="1" d="m 368.79614,69.551174 1.22656,-6.910157 h 0.23437 l 1.16016,6.910157 z m -0.98047,-13.257813 -3.82813,21.296875 h 3.53125 l 0.75782,-4.617187 h 3.625 l 0.72656,4.617187 h 3.6914 l -3.82031,-21.296875 z m 0,0" id="path6"/>
  <path fill-rule="nonzero" fill="#231916" fill-opacity="1" d="m 358.66332,72.226955 c 0,1.449219 -0.52734,2.230469 -1.88281,2.230469 h -1.8125 V 59.437893 h 0.82422 c 1.97656,0 2.87109,0.785156 2.87109,2.535156 z M 356.51879,56.30508 h -5.11328 v 21.289063 h 5.27735 c 3.99218,0 5.64062,-1.871094 5.64062,-5.941407 v -9.5 c 0,-3.949219 -1.81641,-5.847656 -5.80469,-5.847656" id="path7"/>
  <path fill-rule="nonzero" fill="#231916" fill-opacity="1" d="m 332.36254,72.687893 c 0,1.289062 -0.71484,2.007812 -1.78515,2.007812 -1.07422,0 -1.88672,-0.71875 -1.88672,-2.007812 V 56.301174 h -3.60938 v 15.726562 c 0,3.867188 1.95313,5.871094 5.46094,5.871094 3.44531,0 5.42969,-2.035156 5.42969,-5.78125 V 56.301174 h -3.60938 z m 0,0" id="path8"/>
  <path fill-rule="nonzero" fill="#231916" fill-opacity="1" d="m 319.62036,72.558986 c 0,1.355469 -0.61329,2.042969 -1.82032,2.042969 -1.19922,0 -1.8164,-0.6875 -1.8164,-2.042969 V 61.672267 c 0,-1.355468 0.61718,-2.019531 1.8164,-2.019531 1.20703,0 1.82032,0.664063 1.82032,2.019531 z m -1.6875,-16.546875 c -3.51172,0 -5.5586,2.023438 -5.5586,5.292969 v 10.761719 c 0,3.835937 1.91797,5.828125 5.42578,5.828125 3.44922,0 5.46485,-2.019531 5.46485,-5.738281 V 61.391017 c 0,-3.386718 -2.11328,-5.378906 -5.33203,-5.378906" id="path9"/>
  <path fill-rule="nonzero" fill="#231916" fill-opacity="1" d="m 301.20629,77.598049 h 3.64063 v -9.320313 h 4.10937 v -3.5 h -4.10937 v -4.800781 h 5.83984 v -3.675781 h -9.48047 z m 0,0" id="path10"/>
  <path fill-rule="nonzero" fill="#3d505e" fill-opacity="1" d="m 34.624261,37.558986 c -0.6875,0.398438 -0.925781,1.277344 -0.527343,1.964844 0.398437,0.6875 1.277343,0.921875 1.964843,0.527344 0.6875,-0.398438 0.921876,-1.277344 0.523438,-1.964844 -0.394531,-0.6875 -1.273438,-0.925781 -1.960938,-0.527344" id="path11"/>
  <path fill-rule="nonzero" fill="#3d505e" fill-opacity="1" d="m 19.405511,40.539455 c -6.1875,-3.570312 -14.0976558,-1.453125 -17.6718738,4.730469 -3.570313,6.1875 -1.44921892,14.101562 4.738281,17.671875 6.1874998,3.574218 14.0976558,1.453125 17.6679688,-4.734375 3.574218,-6.1875 1.453124,-14.097657 -4.734376,-17.667969" id="path12"/>
  <path fill-rule="nonzero" fill="#3d505e" fill-opacity="1" d="m 51.280511,37.070705 c 6.1875,3.574219 14.097657,1.453125 17.667969,-4.730469 3.570313,-6.1875 1.453125,-14.101562 -4.734375,-17.667969 -6.1875,-3.574218 -14.097656,-1.457031 -17.667968,4.730469 -3.574219,6.1875 -1.453126,14.097657 4.734374,17.667969" id="path13"/>
  <path fill-rule="nonzero" fill="#3d505e" fill-opacity="1" d="m 28.874261,53.473049 c -6.183593,3.570312 -8.304687,11.484375 -4.734374,17.671875 3.570312,6.1875 11.484374,8.304687 17.671874,4.734375 6.183594,-3.574219 8.304688,-11.484375 4.734376,-17.671875 -3.574219,-6.1875 -11.484376,-8.304688 -17.671876,-4.734375" id="path14"/>
  <path fill-rule="nonzero" fill="#3d505e" fill-opacity="1" d="m 41.811761,24.137111 c 6.183594,-3.570312 8.304688,-11.480468 4.734376,-17.6718747 -3.574219,-6.18359295 -11.484376,-8.300781 -17.671876,-4.730469 -6.1875,3.570313 -8.304687,11.4804687 -4.734374,17.6679687 3.570312,6.1875 11.484374,8.304688 17.671874,4.734375" id="path15"/>
  <path fill-rule="nonzero" fill="#3d505e" fill-opacity="1" d="m 57.745355,38.80508 c -7.144531,0 -12.933594,5.792969 -12.933594,12.933594 0,7.148437 5.789063,12.933593 12.933594,12.9375 7.144532,-0.0039 12.9375,-5.789063 12.9375,-12.9375 0,-7.140625 -5.792968,-12.933594 -12.9375,-12.933594" id="path16"/>
  <path fill-rule="nonzero" fill="#3d505e" fill-opacity="1" d="m 12.936761,38.80508 c 7.144532,0 12.9375,-5.792969 12.9375,-12.933594 0,-7.144531 -5.792968,-12.9375 -12.9375,-12.9375 -7.1406238,0 -12.93359272,5.792969 -12.93359272,12.9375 0,7.140625 5.79296892,12.933594 12.93359272,12.933594" id="path17"/>
  <path fill-rule="nonzero" fill="#3d505e" fill-opacity="1" d="m 25.718011,46.851955 c 2.0625,1.191406 4.699219,0.484375 5.890626,-1.582031 1.191406,-2.058594 0.484374,-4.699219 -1.578126,-5.886719 -2.0625,-1.191406 -4.699218,-0.484375 -5.890624,1.574219 -1.191407,2.066406 -0.484376,4.703125 1.578124,5.894531" id="path18"/>
  <path fill-rule="nonzero" fill="#3d505e" fill-opacity="1" d="m 40.655511,38.226955 c 2.0625,1.191406 4.695313,0.484375 5.886719,-1.578125 1.191407,-2.0625 0.484375,-4.699219 -1.574219,-5.890625 -2.0625,-1.191406 -4.703124,-0.484375 -5.890624,1.582031 -1.191407,2.0625 -0.488282,4.695313 1.578124,5.886719" id="path19"/>
  <path fill-rule="nonzero" fill="#3d505e" fill-opacity="1" d="m 37.499261,51.160549 c 2.058594,-1.1875 2.769532,-3.824219 1.574219,-5.890625 -1.1875,-2.058594 -3.824219,-2.765625 -5.886719,-1.574219 -2.0625,1.1875 -2.769531,3.828125 -1.578124,5.890625 1.191406,2.0625 3.828124,2.765625 5.890624,1.574219" id="path20"/>
  <path fill-rule="nonzero" fill="#3d505e" fill-opacity="1" d="m 33.186761,26.449611 c -2.0625,1.1875 -2.769531,3.824219 -1.578124,5.890625 1.191406,2.058594 3.828124,2.765625 5.890624,1.574219 2.058594,-1.1875 2.765626,-3.824219 1.578126,-5.890625 -1.191407,-2.058594 -3.828126,-2.765625 -5.890626,-1.574219" id="path21"/>
  <path fill-rule="nonzero" fill="#3d505e" fill-opacity="1" d="m 42.811761,47.426174 c 2.378907,0 4.3125,-1.925781 4.3125,-4.308594 0,-2.382813 -1.933593,-4.3125 -4.3125,-4.3125 -2.382812,0 -4.3125,1.929687 -4.3125,4.3125 0,2.382813 1.929688,4.308594 4.3125,4.308594" id="path22"/>
  <path fill-rule="nonzero" fill="#3d505e" fill-opacity="1" d="m 27.874261,30.18008 c -2.382812,0 -4.3125,1.929687 -4.3125,4.3125 0,2.382813 1.929688,4.3125 4.3125,4.3125 2.382813,0 4.3125,-1.929687 4.3125,-4.3125 0,-2.382813 -1.929687,-4.3125 -4.3125,-4.3125" id="path23"/>
  <path fill-rule="nonzero" fill="#3d505e" fill-opacity="1" d="m 32.132074,38.996486 c -0.683594,0.398438 -0.921875,1.277344 -0.523437,1.964844 0.394531,0.6875 1.273437,0.921875 1.964843,0.527344 0.683594,-0.398438 0.921875,-1.277344 0.523438,-1.964844 -0.398438,-0.6875 -1.277344,-0.921875 -1.964844,-0.527344" id="path24"/>
  <path fill-rule="nonzero" fill="#3d505e" fill-opacity="1" d="m 39.077387,36.64883 c -0.398438,-0.6875 -1.277344,-0.921875 -1.964844,-0.527344 -0.6875,0.398438 -0.921875,1.277344 -0.527344,1.964844 0.398438,0.6875 1.277344,0.921875 1.964844,0.527344 0.6875,-0.398438 0.921875,-1.277344 0.527344,-1.964844" id="path25"/>
  <path fill-rule="nonzero" fill="#3d505e" fill-opacity="1" d="m 35.343011,40.24258 c -0.792968,0 -1.4375,0.640625 -1.4375,1.4375 0,0.792969 0.644532,1.4375 1.4375,1.4375 0.792969,0 1.4375,-0.644531 1.4375,-1.4375 0,-0.796875 -0.644531,-1.4375 -1.4375,-1.4375" id="path26"/>
  <path fill-rule="nonzero" fill="#3d505e" fill-opacity="1" d="m 35.343011,37.36758 c 0.792969,0 1.4375,-0.640625 1.4375,-1.4375 0,-0.792969 -0.644531,-1.4375 -1.4375,-1.4375 -0.792968,0 -1.4375,0.644531 -1.4375,1.4375 0,0.796875 0.644532,1.4375 1.4375,1.4375" id="path27"/>
  <path fill-rule="nonzero" fill="#3d505e" fill-opacity="1" d="m 37.112543,41.488674 c 0.6875,0.394531 1.566406,0.15625 1.960937,-0.527344 0.398438,-0.6875 0.164063,-1.566406 -0.523437,-1.964844 -0.6875,-0.394531 -1.566406,-0.160156 -1.964844,0.527344 -0.394531,0.6875 -0.160156,1.566406 0.527344,1.964844" id="path28"/>
  <path fill-rule="nonzero" fill="#3d505e" fill-opacity="1" d="m 33.569574,36.121486 c -0.6875,-0.398437 -1.5625,-0.160156 -1.960937,0.527344 -0.398438,0.6875 -0.160157,1.566406 0.523437,1.964844 0.6875,0.394531 1.570313,0.160156 1.964844,-0.527344 0.398437,-0.6875 0.160156,-1.566406 -0.527344,-1.964844" id="path29"/>
  <path fill-rule="nonzero" fill="#231916" fill-opacity="1" d="m 283.90551,64.984767 h -3.64453 v -8.6875 h -3.60937 v 21.292969 h 3.60937 l -0.0273,-9.050781 h 3.64453 l 0.0273,9.050781 h 3.64453 V 56.297267 h -3.64453 z m 0,0" id="path30"/>
  <path fill-rule="nonzero" fill="#231916" fill-opacity="1" d="m 269.82348,56.05508 c -3.51953,0 -5.57031,2.019531 -5.57031,5.292969 v 10.757812 c 0,3.835938 1.85547,5.828125 5.4375,5.828125 3.45312,0 5.47265,-2.023437 5.47265,-5.738281 v -2.199219 h -3.64843 v 2.851563 c 0,1.460937 -1.46094,1.597656 -1.80469,1.597656 -0.34766,0 -1.84375,-0.136719 -1.84375,-1.597656 V 61.137111 c 0,-1.453125 1.82422,-1.445312 1.82422,-1.445312 0,0 1.82422,-0.0078 1.82422,1.445312 v 2.320313 h 3.64843 v -2.023438 c 0,-3.386719 -2.11718,-5.378906 -5.33984,-5.378906" id="path31"/>
  <path fill-rule="nonzero" fill="#231916" fill-opacity="1" d="m 257.19457,65.348049 h -1.52734 V 60.02383 h 1.39453 c 1.02735,-0.0039 2.34375,0.597656 2.34375,2.542969 0,2.027344 -0.94531,2.734375 -2.21094,2.78125 m 6.03125,-2.902344 c -0.0351,-2.820312 -1.17187,-5.910156 -5.73046,-6.152344 h -5.39844 V 77.58633 l 3.58594,-0.0039 v -8.597657 l 1.60546,0.0078 2.5,8.59375 3.65235,-0.0039 -2.79297,-9.367188 c 1.85937,-1.132812 2.60937,-3.234375 2.57812,-5.769531" id="path32"/>
  <path fill-rule="nonzero" fill="#231916" fill-opacity="1" d="m 242.35864,69.55508 1.23047,-6.910156 h 0.23046 l 1.16016,6.910156 z m -0.98047,-13.261719 -3.82422,21.296875 h 3.52734 l 0.75782,-4.613281 h 3.6289 l 0.72266,4.613281 h 3.69531 l -3.82422,-21.296875 z m 0,0" id="path33"/>
  <path fill-rule="nonzero" fill="#231916" fill-opacity="1" d="m 226.25317,77.598049 h 9.52734 v -3.695313 h -5.87109 v -5.582031 h 4.22656 v -3.363281 h -4.22656 v -4.960938 h 5.87109 V 56.30508 h -9.52734 z m 0,0" id="path34"/>
  <path fill-rule="nonzero" fill="#231916" fill-opacity="1" d="m 221.38207,65.766017 c -2.19921,-1.632812 -3.57812,-2.425781 -3.61328,-4.234374 -0.0195,-1.1875 0.96094,-1.984376 1.83203,-1.9375 1.35938,0.07031 2.03125,1.433593 2.53125,2.894531 l 3.11329,-0.851563 c 0.12109,-2.054687 -2.4375,-5.539062 -5.40625,-5.597656 -3.37891,-0.07031 -5.57813,2.222656 -5.46875,5.816406 0.0898,2.988282 2.11328,4.792969 4.22265,6.578125 1.96485,1.660157 3.14844,2.097657 3.14844,3.855469 0,1.21875 -0.88672,2.113281 -2.19922,2.113281 -1.50781,0 -2.28125,-1.019531 -2.5,-3.40625 l -3.16406,0.554688 c -0.12891,3.796875 2.51562,6.351562 5.99609,6.351562 3.1836,0 5.3086,-2.765625 5.39453,-5.222656 0.11328,-3.152344 -1.52343,-5.160156 -3.88672,-6.914063" id="path35"/>
  <path fill-rule="nonzero" fill="#231916" fill-opacity="1" d="m 202.74926,77.590236 h 9.52735 V 73.89883 h -5.8711 v -5.582031 h 4.22656 v -3.363282 h -4.22656 V 59.99258 h 5.8711 v -3.695313 h -9.52735 z m 0,0" id="path36"/>
  <path fill-rule="nonzero" fill="#231916" fill-opacity="1" d="m 195.40942,65.355861 h -1.52735 v -5.324218 h 1.39454 c 1.02734,-0.0039 2.34375,0.59375 2.34375,2.542968 0,2.027344 -0.94532,2.734375 -2.21094,2.78125 m 6.03125,-2.902344 c -0.0352,-2.820312 -1.17188,-5.910156 -5.73047,-6.152343 h -5.39453 v 21.292969 l 3.58203,-0.0039 v -8.601562 l 1.60547,0.0078 2.5,8.597657 3.65234,-0.0039 -2.79297,-9.367187 c 1.85938,-1.132813 2.60938,-3.234375 2.57813,-5.769532" id="path37"/>
  <path fill-rule="nonzero" fill="#231916" fill-opacity="1" d="m 165.65161,77.582424 h 9.53125 v -3.691407 h -5.8711 v -5.582031 h 4.22656 v -3.363281 h -4.22656 v -4.960938 h 5.8711 v -3.695312 h -9.53125 z m 0,0" id="path38"/>
  <path fill-rule="nonzero" fill="#231916" fill-opacity="1" d="m 154.55786,77.590236 h 3.64062 v -9.324219 h 4.11328 v -3.496093 h -4.11328 v -4.800781 h 5.83984 v -3.679688 h -9.48046 z m 0,0" id="path39"/>
  <path fill-rule="nonzero" fill="#231916" fill-opacity="1" d="m 141.15942,56.289455 h -3.69922 v 21.292969 h 9.48437 v -3.296875 h -5.78515 z m 0,0" id="path40"/>
  <path fill-rule="nonzero" fill="#000100" fill-opacity="1" d="m 131.22973,77.566799 h 3.66016 V 56.27383 h -3.66016 z m 0,0" id="path41"/>
  <path fill-rule="nonzero" fill="#231916" fill-opacity="1" d="m 125.70629,64.976955 h -3.64453 v -8.6875 h -3.60937 v 21.292969 h 3.60937 l -0.0273,-9.050781 h 3.64453 l 0.0273,9.050781 h 3.64453 V 56.289455 h -3.64453 z m 0,0" id="path42"/>
  <path fill-rule="nonzero" fill="#231916" fill-opacity="1" d="m 111.46411,56.004299 c -3.51953,0 -5.57032,2.023437 -5.57032,5.292968 V 72.05508 c 0,3.835937 1.85547,5.828125 5.4375,5.828125 3.45313,0 5.47266,-2.019531 5.47266,-5.738281 v -2.199219 h -3.64844 v 2.851562 c 0,1.460938 -1.46093,1.601563 -1.80859,1.601563 -0.34375,0 -1.83984,-0.140625 -1.83984,-1.601563 V 61.08633 c 0,-1.453125 1.82421,-1.445313 1.82421,-1.445313 0,0 1.82422,-0.0078 1.82422,1.445313 v 2.320313 h 3.64844 v -2.023438 c 0,-3.386719 -2.11719,-5.378906 -5.33984,-5.378906" id="path43"/>
  <path fill-rule="nonzero" fill="#231916" fill-opacity="1" d="m 98.495359,65.348049 h -1.52735 V 60.02383 h 1.39453 c 1.02735,0 2.343751,0.597656 2.343751,2.542969 0,2.027344 -0.945311,2.734375 -2.210931,2.78125 m 6.035151,-2.902344 c -0.0352,-2.820312 -1.17578,-5.910156 -5.734371,-6.152344 h -5.39453 V 77.58633 l 3.58593,-0.0039 v -8.597657 l 1.60157,0.0078 2.500001,8.59375 3.65234,-0.0039 -2.79297,-9.367188 c 1.86328,-1.132812 2.61328,-3.234375 2.58203,-5.769531" id="path44"/>
  <path fill-rule="nonzero" fill="#231916" fill-opacity="1" d="m 83.88598,69.547267 1.226563,-6.90625 h 0.230468 l 1.164063,6.90625 z M 82.901605,56.289455 79.077387,77.58633 h 3.527343 l 0.761719,-4.613281 h 3.625 l 0.72656,4.613281 h 3.69141 l -3.82422,-21.296875 z m 0,0" id="path45"/>
  <path fill-rule="nonzero" fill="#000100" fill-opacity="1" d="m 148.68676,77.590236 h 3.66016 V 56.293361 h -3.66016 z m 0,0" id="path46"/>
  <path fill-rule="nonzero" fill="#000100" fill-opacity="1" d="m 98.280509,31.230861 c 0,0 -1.25781,-0.882812 -1.375,-0.984375 -0.11718,-0.101562 -1.94531,-1.421875 -2.17187,-1.609375 -0.22656,-0.1875 -1.73438,-1.296875 -1.92188,-1.484375 -0.082,-0.08203 -0.38672,-0.289062 -0.71484,-0.5 0.39453,-0.351562 0.66016,-0.589843 0.71484,-0.640625 0.28125,-0.273437 2.21875,-2.390625 2.07813,-2.28125 -0.0977,0.07422 1.35937,-1.691406 2.25781,-2.828125 0,0 0.008,0 0.008,0 0.0859,-0.01563 0.91407,-1.046875 0.96875,-1.140625 0.0547,-0.09375 0.0625,-0.515625 0.0156,-0.65625 -0.0469,-0.140625 -0.69531,-1.03125 -0.92188,-1.171875 -0.22656,-0.140625 -0.39062,-0.273437 -0.70312,-0.25 -0.3125,0.02344 -4.90625,-0.117187 -5.10938,-0.07813 -0.043,0.0078 -0.33984,0.0078 -0.76562,0.0078 0,-0.945313 -0.004,-2.554688 -0.0312,-2.804688 -0.0391,-0.359375 -0.0469,-1.210937 0.125,-1.4375 0.17187,-0.226562 0.57031,-0.484375 0.71875,-0.546875 0.14844,-0.0625 0.39844,-0.265625 0.39062,-0.4375 -0.008,-0.171875 -0.13281,-0.316406 -0.39062,-0.382812 -0.26172,-0.0625 -1.84375,-0.222656 -1.9375,-0.230469 -0.0937,-0.0039 -1.98047,-0.195313 -2.0625,-0.199219 -0.082,0 -0.34766,-0.03906 -0.375,-0.04687 0,0 -1.078128,-0.34375 -1.031252,0.75 0.03516,0.828125 0.03516,3.828125 0.03125,5.285157 -0.355469,-0.0039 -0.585938,-0.0078 -0.609376,-0.0039 -0.125,0.0078 -5.296874,0.05469 -5.421874,0.01563 0,0 -0.726563,-0.109375 -0.765626,0.484375 -0.03906,0.59375 -0.0078,1.414063 0,1.609375 0.0078,0.195313 0.02344,0.976563 0.140626,1.1875 0.117187,0.210938 0.164062,0.445313 0.96875,0.375 0.804687,-0.07031 8.609372,-0.28125 8.953122,-0.28125 0.10938,0 0.96875,-0.0039 2.07032,-0.0078 -0.15625,0.289062 -0.29297,0.539062 -0.33594,0.601562 -0.11719,0.164063 -2.03906,2.398438 -2.375,2.6875 -0.33594,0.289063 -1.6875,1.570313 -2.031252,1.859375 -0.34375,0.289063 -3.429688,2.773438 -3.875,3.046875 -0.445313,0.273438 -2.367188,1.398438 -2.734376,1.609375 -0.367187,0.210938 -0.914062,0.53125 -1.140624,0.640625 -0.226563,0.109375 -1,0.382813 -0.703126,0.671875 0.296876,0.289063 2.992188,1.796875 3.40625,2.015625 0.414063,0.21875 0.390626,0.4375 1.15625,0.09375 0.765626,-0.34375 2.976563,-2.007812 3.1875,-2.140625 0.0078,-0.0078 0.03516,-0.03125 0.05859,-0.04687 0,0.699219 0.0039,1.269532 0.0039,1.355469 0,0.238281 -0.125,11.175781 -0.140624,11.472656 -0.01563,0.300781 -0.140626,2.367188 0.03906,2.523438 0.179688,0.152343 0.25,0.195312 0.421875,0.238281 0.171875,0.04297 3.960935,0.0078 4.093755,-0.03516 0.13281,-0.03906 0.14062,0 0.26562,-0.152344 0.124802,-0.156262 0.156052,-0.222668 0.156052,-0.753918 0,-0.53125 -0.0703,-4.695313 -0.0703,-5.003906 0,-0.308594 -0.0312,-2.9375 -0.0312,-3.203126 0,-0.265624 0.0234,-3 0.0156,-3.324218 -0.008,-0.269532 -0.0352,-3.222656 -0.0273,-4.414063 0.39062,0.289063 0.82422,0.585938 0.94922,0.671875 0.20312,0.140625 1.57812,1.460938 1.90625,1.71875 0.32812,0.257813 1.79687,1.3125 2.01562,1.421875 0.21875,0.109375 0.54688,-0.304687 0.75,-0.515625 0.20313,-0.210937 1.33594,-1.382812 1.70313,-1.609375 0.36719,-0.226562 0.54687,-0.445312 0.625,-0.640625 0.0781,-0.195312 -0.42188,-0.5 -0.42188,-0.5" id="path47"/>
  <path fill-rule="nonzero" fill="#000100" fill-opacity="1" d="m 115.49536,31.914455 c 0.13281,-0.0039 1.07812,0.03906 2.1914,0.09766 0.004,0.925782 0.0586,4.902344 0.0586,4.902344 -0.0156,0.21875 -0.0234,2.265625 -0.0273,4.390625 -1.25781,0.04297 -5.76172,0.03516 -5.97265,0.04687 -0.14453,0.01172 -1.76953,-0.0039 -2.9961,-0.01563 -0.0195,-2.339844 -0.0273,-7.273437 -0.0352,-9.363281 0.83593,-0.04297 6.78125,-0.05859 6.78125,-0.05859 m 8.34375,-12.78125 c -0.34375,-0.171875 -0.3125,-0.125 -0.65625,-0.125 -0.34375,0 -11.26563,0.07813 -11.625,0.09375 -0.0352,0 -0.19141,0 -0.4336,0 0.0273,-0.179688 0.0508,-0.316406 0.0586,-0.375 0,0 0.28906,-4.273438 0.32812,-4.53125 0,0 0.008,-0.953125 0.42188,-1.140625 0,0 0.60937,-0.351563 0.4375,-0.640625 0,0 -0.14063,-0.3125 -1.40625,-0.5 0,0 -2.01563,-0.3125 -2.5,-0.375 0,0 -1.35938,-0.203125 -1.53125,-0.03125 0,0 -0.4375,0.15625 -0.40625,0.5625 0,0 -0.0156,3.84375 -0.0312,4.0625 0,0 -0.0898,1.5 -0.1836,2.917969 -2.95703,-0.03516 -6.0664,-0.07422 -6.0664,-0.07422 0,0 -1.320321,-0.08594 -1.343751,0.5 -0.0352,0.921875 -0.0312,1.90625 -0.0312,2.03125 0,0.125 -0.10938,1.109375 0.28125,1.21875 0.39062,0.109375 1.328121,0.09375 1.718751,0.09375 0.17187,0 2.45312,-0.01563 4.97265,-0.03125 -0.44922,1.996094 -1.35547,5.738281 -2.0664,7.25 -0.95313,2.03125 -2.6875,5.25 -4.562501,7.15625 -1.875,1.90625 -2.79688,2.84375 -5.71875,4.8125 0,0 -0.65625,0.421875 -0.46875,0.625 0,0 0.34375,0.34375 1.21875,0.53125 0,0 0.98437,0.3125 1.71875,0.8125 0,0 0.73437,0.703125 1.21875,0.625 0,0 0.32812,0.03125 1.125,-0.625 0,0 2.671871,-2.140625 3.031251,-2.53125 0,0 2.21875,-2.25 2.59375,-2.71875 0,0 0.043,-0.0625 0.10547,-0.152344 -0.0156,2.703125 -0.0156,7.714844 -0.0156,7.714844 -0.0469,1.171875 0.23438,1.222656 0.32031,1.273438 0.0898,0.05078 3.65235,0.0078 3.65235,0.0078 0.67968,-0.04687 0.66406,-0.117188 0.78125,-0.238281 0.10937,-0.117188 0.125,-0.511719 0.125,-0.511719 0,0 0.004,-0.933594 -0.0273,-1.824219 1.89453,-0.1875 7.9336,-0.08203 7.9336,-0.08203 0.14843,0 0.54687,0.01953 0.90625,0.04297 0,0.800781 0,1.332031 0,1.332031 -0.0469,1.171875 0.21875,1.125 0.21875,1.125 0.15625,0.25 3.625,0.15625 3.625,0.15625 0.65625,-0.04687 0.71875,-0.21875 0.71875,-0.21875 0.0937,-0.101562 0.125,-0.21875 0.13281,-0.316406 0,-0.0039 0.004,-0.0039 0.004,-0.0078 0,-0.0039 0,-0.01563 0,-0.01953 0,-0.0039 0.004,-0.0039 0.004,-0.0039 0.0195,-0.121094 0.0156,-0.386719 0.0117,-0.5 0.0153,-0.972663 -0.12144,-3.902351 -0.12144,-3.902351 -0.0391,-0.273438 -0.0469,-7.824219 -0.0547,-10.59375 0.0664,-0.3125 0.0234,-2.75 0.0234,-2.75 0.0312,-0.640625 -0.25,-0.6875 -0.25,-0.6875 -0.15625,-0.1875 -0.25,-0.125 -0.25,-0.125 -0.23438,-0.09375 -8.21875,0.09375 -8.21875,0.09375 -0.3086,0 -3.02344,-0.06641 -4.44532,-0.101562 0.0234,-0.08203 0.0508,-0.160157 0.0703,-0.242188 0,0 1.03125,-3.609375 1.3125,-5.09375 0,0 0.0234,-0.132812 0.0547,-0.351562 1.28516,-0.0078 2.19532,-0.01953 2.25782,-0.02344 0.23437,-0.01563 10.51562,0.21875 10.75,0.09375 0.23437,-0.125 0.26562,-0.125 0.34375,-0.375 0.0781,-0.25 0.125,-1.421875 0.125,-1.625 0,-0.203125 0.15625,-1.515625 -0.1875,-1.6875" id="path48"/>
  <path fill-rule="nonzero" fill="#000100" fill-opacity="1" d="m 172.60082,44.707424 c 0.008,-0.140625 0,-0.261719 -0.0156,-0.351563 -0.0195,-0.238281 -0.10156,-0.636718 -0.40234,-0.667968 0.0156,-0.02344 -3.16797,0.113281 -3.41797,0.152343 0,0 -3.40235,0.136719 -3.64063,0.136719 0,0 -4,0.07813 -4.24219,0.07031 0,0 -3.24218,0.02734 -3.48046,0.03516 0,0 -1.76954,-0.0039 -3.16407,-0.01172 0.004,-2.042969 0.004,-5.730469 0,-9.398438 0.8125,-0.0078 1.36719,-0.01172 1.46094,-0.01172 0.45313,-0.01172 11.26953,0.378906 11.47266,0.308594 0,0 0.1875,-0.08984 0.21875,-0.167969 0,0 0.0312,-0.113281 0.0273,-0.210938 0,0 0.082,-2.679687 0.0742,-2.753906 -0.008,-0.07422 -0.0195,-0.375 -0.0664,-0.4375 -0.0508,-0.0625 -0.1289,-0.320313 -0.45312,-0.332031 -0.32813,-0.01172 -4.20313,0.160156 -4.58594,0.171875 -0.38672,0.0078 -5.9375,0.121093 -6.29297,0.121093 -0.10937,0 -0.86328,-0.0039 -1.86328,-0.01172 0,-2.398438 -0.004,-4.535156 -0.008,-5.878906 v -1.390626 c 0,0 0,-0.08594 0,-0.199218 v 0.199218 c 1.80078,-0.0039 3.30469,-0.0039 3.30469,-0.0039 0.16406,0.0078 5.14062,0.0625 5.14062,0.0625 0.22656,-0.0078 3.89063,0.109375 3.89063,0.109375 0.39062,0.0078 2.27734,0.0078 2.27734,0.0078 0.42969,-0.03516 0.47266,-0.304688 0.47266,-0.304688 0.0391,-0.140625 -0.0156,-1.21875 -0.0156,-1.21875 0.0156,-0.109375 0,-1.625 0,-1.625 -0.0312,-0.171875 -0.1875,-0.25 -0.1875,-0.25 -0.15234,-0.08594 -0.67187,-0.07813 -0.67187,-0.07813 -0.34375,-0.02344 -4.53125,0.03125 -4.53125,0.03125 -0.11719,0.02344 -5.21875,0 -5.21875,0 -0.082,0 -2.48047,-0.02344 -4.45313,-0.03906 0,-0.148438 0,-0.226563 0,-0.226563 -0.004,-0.05469 -0.004,-0.214844 -0.008,-0.417968 v -2.265626 c 0.043,-0.949218 0.17969,-4.238281 0.17969,-4.238281 0.0703,-0.296875 1.0625,-0.671875 1.0625,-0.671875 0.53906,-0.273437 0.25,-0.84375 0.25,-0.84375 -0.42579,-0.359375 -1.06641,-0.441406 -1.49219,-0.453125 -0.25391,-0.0039 -0.42969,0.01563 -0.42969,0.01563 -0.25,-0.01563 -3.26562,-0.25 -3.26562,-0.25 -0.875,-0.164062 -1.01563,0.03125 -1.01563,0.03125 -0.29687,0.125 -0.26562,0.46875 -0.26562,0.46875 -0.0703,0.203125 0.0312,4.59375 0.0312,4.59375 0.004,0.152344 -0.0117,2.183594 -0.0273,4.242188 -2.14453,-0.0078 -4.95703,-0.02344 -4.95703,-0.02344 -0.125,0 -2.54297,-0.04297 -4.03516,-0.07031 0.53907,-0.953125 1.12891,-2.105469 1.46094,-2.839844 0.46875,-1.042969 0.9375,-1 0.9375,-1 0.91797,-0.199219 1.07813,-0.429688 1.07813,-0.429688 0.27734,-0.339843 -0.22266,-0.882812 -0.22266,-0.882812 -0.26172,-0.261719 -2.21094,-0.835938 -2.21094,-0.835938 -0.48828,-0.09375 -2.53906,-0.832031 -2.53906,-0.832031 -0.89844,-0.230469 -1.02344,1.082031 -1.02344,1.082031 -0.0312,0.230469 -0.19531,0.648438 -0.33203,1.023438 -0.13672,0.375 -0.79297,1.582031 -1.14453,2.351562 -0.35547,0.773438 -1.57422,2.636719 -2.375,3.667969 -0.80469,1.03125 -3.15625,3.144531 -3.79297,3.667969 -0.63672,0.519531 -2.0625,1.457031 -2.0625,1.457031 -0.5625,0.144531 -0.625,0.605469 -0.625,0.605469 0.0195,0.289062 0.39453,0.351562 0.39453,0.351562 0.375,0.1875 1.39844,0.730469 1.39844,0.730469 0.53906,0.261719 1.39453,0.875 1.39453,0.875 0.60547,0.417969 1,0.394531 1,0.394531 0.6875,-0.144531 2.375,-2.019531 3.48047,-2.914062 0.64453,-0.523438 1.58984,-1.582031 2.62891,-2.878906 0.5,-0.0078 1.97265,-0.07422 3.6289,-0.08984 3.02344,-0.03516 6.75782,-0.07422 6.75782,-0.07422 0.043,-0.0039 0.48437,-0.0039 1.13281,-0.0039 -0.004,0.402344 0.008,4.203125 0.0195,7.222656 h -0.12891 c -0.51172,-0.0039 -0.8789,-0.0078 -0.97656,-0.01172 -0.5,-0.0078 -5.39844,-0.07031 -5.8125,-0.0625 -0.41797,0.01172 -6.47656,-0.1875 -6.71484,-0.1875 -0.23828,0 -0.28125,0.05078 -0.40235,0.15625 -0.12109,0.101563 -0.21093,0.203126 -0.20312,0.554688 0.008,0.355469 -0.0312,1.859375 -0.0664,2.074219 0,0 -0.11719,0.742187 0.10938,0.949219 0,0 0.10547,0.191406 1.1289,0.191406 0,0 7.32422,-0.207032 7.66016,-0.214844 0.15625,-0.0039 2.61328,-0.02344 5.25391,-0.04687 h 0.16015 c 0.004,0.238281 0.004,0.375 0.004,0.375 v 3.992187 c -0.004,0.277344 0.0273,3.199219 0.004,4.960938 h -0.0859 c -0.0625,0 -0.1211,0 -0.17969,0 -0.8125,-0.0078 -1.46484,-0.01172 -1.54297,-0.01172 0,0 -4.75,-0.06641 -4.96484,-0.07422 0,0 -10.40235,-0.105468 -11.08203,-0.199218 0.0195,0.0078 -2.12891,-0.101563 -2.32422,-0.04687 0,0 -0.30078,0.03516 -0.33594,0.222656 0,0 -0.0937,0.4375 -0.0937,0.800781 0,0 -0.11719,1.890625 -0.0937,2.070313 0,0 0.0117,0.300781 0.11719,0.414062 0,0 0.23047,0.46875 0.77343,0.410157 0,0 9.4375,-0.335938 9.67188,-0.339844 0,0 11.12891,0.08594 11.51562,0.08594 h 10.42579 c 0,0 6.89062,0.136719 7.1289,0.148438 0,0 3.33985,0.06641 3.44922,0.04687 0.10547,-0.01563 1.01563,0.05469 0.95703,-0.671875 0,0 0.0391,-1.742188 0.008,-2.1875" id="path49"/>
  <path fill-rule="nonzero" fill="#000100" fill-opacity="1" d="m 190.55395,38.019924 c -0.97656,0.210937 -2.64453,0.105469 -2.64453,0.105469 -0.11719,0.0039 -0.92188,-0.03125 -1.44922,-0.05859 0.004,-0.429688 0.0117,-0.738282 0.0156,-0.789063 0,0 0.0117,-1.265625 0.0117,-1.480469 0,0 0.0391,-2.136718 0.0352,-2.472656 0,0 0.082,-2.683594 0.082,-2.8125 0,0 0.0898,-2.523437 0.12109,-3.203125 0.0117,-0.03906 0.0273,-0.08203 0.0391,-0.125 0.52734,0.0039 2.51562,-0.0078 2.71093,-0.01172 0.0703,0 0.50782,0 1.0586,0.0039 0.0117,1.40625 0.10547,8.480469 0.10547,8.480469 -0.0156,0.07422 -0.0508,1.136718 -0.0859,2.363281 m 3.62891,5.46875 c 0.625,-0.179688 0.5625,-0.523438 0.5625,-0.523438 0.0625,-0.183593 -0.14844,-5.789062 -0.14844,-5.789062 0,-0.125 -0.0391,-5.625 -0.0391,-5.625 0,-0.125 -0.043,-4.1875 -0.043,-4.1875 -0.008,-0.05859 0.0195,-0.285157 0.0312,-0.476563 0.004,-0.04687 0.008,-0.08984 0.0117,-0.113281 0.004,-0.07813 0.0586,-1.332031 0.0586,-1.496094 0,-0.164062 -0.0703,-0.695312 -0.15234,-0.871093 -0.082,-0.175782 -0.70704,-0.140626 -0.70704,-0.140626 -0.0703,0.01953 -2.01953,0.05469 -2.60156,0.05859 -0.46484,0.0039 -2.5664,-0.04297 -3.55469,-0.05469 0.0625,-0.265625 0.12891,-0.523438 0.1836,-0.804688 0,0 1.01953,-4.90625 1.32812,-7.421875 1.24219,0.0039 2.21875,0.0078 2.28125,0.01172 0.16797,0.0039 3.48047,0.03516 3.48047,0.03516 0.26563,-0.03516 0.30469,-0.222656 0.30469,-0.222656 0.20703,-0.277344 0.16406,-2.402344 0.16406,-2.402344 0.0586,-0.585937 -0.30469,-0.691406 -0.30469,-0.691406 -0.26953,-0.152344 -1.03515,-0.08203 -1.03515,-0.08203 -0.14844,0.01563 -3.85938,-0.03516 -3.85938,-0.03516 h -2.14062 c -0.1211,0.0039 -5.10547,-0.04688 -5.10547,-0.04688 -0.24219,-0.0078 -3.375,0.01172 -3.375,0.01172 -0.27344,0.0078 -0.27344,0.316407 -0.27344,0.316407 -0.0352,0.152343 -0.0469,1.683593 -0.0469,1.847656 0,0.164062 0.0352,0.917968 0.0352,0.917968 0.10938,0.515626 0.51953,0.421876 0.51953,0.421876 0.26954,0.03125 3.52344,-0.08984 3.77735,-0.09375 0.0586,0 0.51172,0 1.16406,0 -0.14062,1.75 -0.40625,4.761718 -0.53906,5.171874 0,0 -0.6875,3.507813 -1.57422,4.921876 0,0 -2.19922,4.097656 -2.48828,4.464843 0,0 -2.94531,3.480469 -3.1875,3.691407 0,0 -0.28906,0.210937 -0.0937,0.46875 0,0 3.11719,1.367187 3.39453,1.421874 0,0 0.26953,0.148438 0.63672,-0.09375 0,0 1.03906,-0.949218 1.32812,-1.238281 0,0 0.0781,-0.0625 0.20313,-0.183593 -0.0156,1.894531 -0.0352,4.585937 -0.0508,4.726562 -0.0195,0.21875 -0.26172,4.65625 -0.29297,4.792969 -0.0273,0.132812 -0.125,1.019531 -0.125,1.019531 0,0 -0.0703,0.660156 -0.0117,0.789062 0,0 0.0703,0.339844 0.50391,0.316407 0,0 3.58593,0.04687 3.68359,0 0,0 0.30078,-0.0039 0.30859,-0.445313 0,0 0.0391,-3.5 0.0195,-3.777344 0,0 0.004,-0.199218 0.008,-0.511718 0.98437,-0.117188 2.76953,-0.113282 2.76953,-0.113282 0.2539,0.01563 0.88672,0.03125 1.27344,0.03906 -0.008,0.277344 -0.0117,0.453125 -0.0117,0.453125 -0.043,1.011719 0.0625,1.355469 0.0625,1.355469 0.24218,0.34375 2.08203,0.25 2.08203,0.25 0.36719,0 1.58594,-0.0625 1.58594,-0.0625" id="path50"/>
  <path fill-rule="nonzero" fill="#000100" fill-opacity="1" d="m 209.90942,15.902736 c 0,0 1.28906,0.02344 2.83984,0.05078 0,0.01172 -0.004,0.01953 -0.004,0.02734 0,0 -0.043,8.058594 -0.043,8.269532 0,0 0,0.179687 -0.004,0.480468 -2.65234,-0.0039 -5.4375,-0.0078 -5.55859,0.0039 -0.0352,0.0039 -0.19922,0.0078 -0.44141,0.0078 0.004,-0.582031 0.004,-1.019531 -0.008,-1.109375 -0.0312,-0.347656 -0.0937,-3.847656 -0.0937,-4.347656 0,-0.421875 -0.0117,-2.5 -0.0625,-3.335938 1.67187,-0.02344 3.26562,-0.04687 3.375,-0.04687 m -7.78125,16.230469 c -0.0625,0.375 -0.35938,2.25 -0.625,3.152344 -0.26563,0.910156 -0.76563,2.285156 -1,2.785156 -0.23438,0.5 -0.64063,1.359375 -1.125,2.0625 -0.48438,0.699219 -1.53125,2.09375 -1.9375,2.402344 -0.40625,0.316406 -1.14063,0.957031 -1.625,1.222656 -0.48438,0.265625 -1.20313,0.75 -1.46875,0.84375 -0.26563,0.09375 -0.59375,0.296875 -0.59375,0.40625 0,0.109375 0.21875,0.265625 0.65625,0.46875 0.4375,0.203125 2,1.21875 2.125,1.375 0.125,0.15625 0.42187,0.421875 0.59375,0.5 0.17187,0.07813 0.5,0.25 0.96875,-0.06641 0.46875,-0.308594 1.5,-1.011719 1.71875,-1.214844 0.21875,-0.203125 1.26562,-1.203125 1.625,-1.625 0.35937,-0.421875 1.17187,-1.410156 1.46875,-1.84375 0.29687,-0.441406 0.96875,-1.609375 1.1914,-2.066406 0.21485,-0.453125 0.90235,-1.730469 1.125,-2.339844 0.21485,-0.613281 0.63672,-2.046875 0.77735,-2.660156 0.14062,-0.605469 0.39062,-2.636719 0.4375,-3 0.0469,-0.355469 0.23437,-2.761719 0.21875,-3.214844 -0.004,-0.136719 0,-0.660156 0.008,-1.335938 h 0.28516 c 0,0 5.3125,0.04297 5.45703,0.04297 0,0 0.10547,0 0.26953,0 -0.0195,3.035157 -0.0469,6.824219 -0.0586,7.011719 0,0 -0.375,11.542969 -0.375,11.839844 0,0 0.125,0.4375 0.41406,0.503906 0,0 4.10547,0.08203 4.375,0 0,0 0.29297,-0.08594 0.375,-0.546875 0,0 -0.1875,-9.96875 -0.16406,-10.285156 0,0 -0.0234,-8.1875 0,-8.394531 0,0 0,-0.03906 0,-0.09375 1.48046,0.01172 2.76171,0.02344 2.875,0.02734 0,0 2.53125,0.07031 2.73046,0.04297 0,0 0.5,0.03906 0.58204,-0.5625 0,0 0.14453,-2.148438 -0.0625,-2.417969 0,0 -0.043,-0.53125 -1.21094,-0.457031 0,0 -4.40625,0.03125 -4.64453,0.03906 -0.0195,0 -0.10547,0.0039 -0.22657,0.0039 0.0391,-3.402344 0.0937,-8.132813 0.082,-8.253907 0,0 0.0156,-0.1875 0.0352,-0.449218 0.375,0.0078 0.63281,0.01172 0.67188,0.01172 0,0 4.3125,0.136719 4.48047,0.04297 0,0 0.17578,-0.04297 0.25,-0.25 0,0 0.10156,-2.519531 0.082,-2.625 0,0 0.0195,-0.417969 -0.58203,-0.417969 0,0 -3.24219,-0.03906 -3.45704,-0.03906 0,0 -5.25,-0.03125 -5.4414,-0.02344 0,0 -10.33203,-0.03125 -10.51953,-0.01953 0,0 -4.26953,0.03125 -4.4375,-0.04297 0,0 -0.78125,-0.113281 -0.98047,0.04297 0,0 -0.32031,0.05078 -0.33203,0.542969 0,0 -0.082,2.25 -0.043,2.414062 0,0 0,0.25 0.125,0.355469 0,0 0.19922,0.144531 0.64844,0.105469 0,0 3.20703,-0.08203 4.32421,-0.113281 0.0508,0.203125 0.0937,0.40625 0.1211,0.582031 0.10937,0.695312 0.0937,3.53125 0.0937,3.78125 0,0.25 -0.0156,4.046875 0,4.277344 0.004,0.01563 0.004,0.04687 0.004,0.08984 -0.86718,0.0039 -1.53125,0.0039 -1.60546,0.0078 0,0 -2.96094,0.0078 -3.39844,-0.08594 0,0 -1.0625,-0.125 -1.10156,0.375 0,0 -0.11719,0.917969 -0.10547,1.148438 0,0 -0.0117,1.289062 0.0195,1.394531 0,0 0.19922,0.425781 0.58594,0.394531 h 5.57031 c -0.008,0.59375 -0.0195,1.070313 -0.0273,1.210938 -0.0352,0.4375 -0.16015,2.5625 -0.22265,2.9375" id="path51"/>
  <path fill-rule="nonzero" fill="#000100" fill-opacity="1" d="m 255.96801,18.965236 c 1,-0.0078 1.78125,-0.01172 1.83594,-0.0078 0.11328,0.01172 5.52344,0.02734 8.35547,0.04687 0.0312,0.800781 0.0586,1.484375 0.0586,1.484375 0.008,0.113281 0.004,1.019531 -0.0156,1.941406 -0.1875,-0.09375 -0.36719,-0.179687 -0.50782,-0.253906 0,0 -0.83593,-0.765625 -1.15625,-0.671875 0,0 -0.28125,-0.125 -0.59375,0.78125 0,0 -0.23828,0.574218 -0.39062,0.828125 -0.25391,0.414062 -0.49609,0.601562 -0.72656,0.726562 -0.375,0.203125 -2.58203,0.304688 -3.21485,0.304688 -0.6289,0 -3.47656,0.0625 -3.66797,-0.6875 -0.18359,-0.695313 -0.0664,-3.753907 0.0234,-4.492188 m -27.21094,5.589844 c 0,0 -0.0469,0.460937 0.67188,0.464844 h 3.07812 c 0,0 0.42188,0.03906 0.625,-0.07422 0,0 0.30469,-0.08203 0.25,-0.859375 -0.0547,-0.773437 -0.11328,-3.679687 0.0625,-4.589844 0,0 0.043,-0.335937 0.0742,-0.546875 2.85157,0.0039 6.08985,0.0078 6.16016,0.0078 0.125,0 11.28906,-0.0625 11.51562,0 0.0274,0.0078 0.17969,0.01563 0.40235,0.01953 -0.0508,0.128906 -0.0742,0.28125 -0.043,0.480469 0,0 -0.15625,5.523437 0,5.765625 0,0 0.23437,1.0625 1.64062,1.65625 0,0 1.25,0.484375 6.01563,0.390625 0,0 4.53906,0.09375 5.6875,-0.359375 0,0 1.14844,-0.46875 1.625,-1.09375 0,0 0.20703,-0.289063 0.44922,-0.65625 1.07422,0.03516 3.30859,0.02344 3.30859,0.02344 0.49219,0.0078 0.4375,-0.230469 0.4375,-0.230469 0.0625,-0.21875 -0.14453,-2.1875 -0.14453,-2.1875 -0.0625,-0.46875 -0.043,-2.625 -0.043,-2.625 0.0234,-0.855468 0.1875,-3.269531 0.1875,-3.269531 0.0234,-0.460937 0.0312,-0.773437 -0.25,-1 -0.0742,-0.0625 -0.38672,-0.07813 -0.74609,-0.07422 0,0 -7.88672,0.128907 -8.23047,0.128907 -0.34375,0 -9.03906,-0.05469 -9.15625,-0.04687 -0.004,0 -0.0117,0 -0.0117,0 0,-0.0078 0,-0.02344 0,-0.02344 0,0 -0.0625,-1.675781 0.16797,-2.0625 0.22656,-0.386718 1.16406,-0.773437 1.16406,-1.246094 0,0 0.29297,-0.449218 -0.95703,-0.640624 0,0 -4.20703,-0.582032 -4.54297,-0.472657 0,0 -0.58203,-0.08594 -0.625,0.34375 0,0 -0.10156,0.597657 -0.082,0.902344 0,0 0.0195,2.46875 0.043,2.875 0,0 -0.008,0.148437 -0.0156,0.34375 -2.28125,0.0078 -4.53125,0.01172 -4.60937,0.01172 0,0 -9.1875,-0.04687 -9.40625,-0.04687 0,0 -1.46094,0 -3.15625,-0.15625 0,0 -0.67188,-0.140625 -1.0625,0.03125 0,0 -0.36719,0.140625 -0.375,0.46875 0,0 0.0195,2.117187 0.0156,2.234375 -0.004,0.496094 0.0547,1.363281 0.0469,1.539062 0,0 -0.1875,4.316406 -0.17188,4.574219" id="path52"/>
  <path fill-rule="nonzero" fill="#000100" fill-opacity="1" d="m 243.51489,19.519924 c 0,0 -0.31641,0.0078 -0.53907,0.351562 0,0 -0.98437,1.300781 -1.41406,1.695313 0,0 -1.26562,1.113281 -2.08203,1.636718 -0.81641,0.523438 -2.09375,1.433594 -3.4375,1.953126 0,0 -2.62109,0.851562 -2.86719,0.929687 0,0 -0.21484,0.101563 -0.15234,0.230469 0.0586,0.132812 3.10547,2.597656 3.41016,2.589844 0,0 0.0742,0.01953 0.25781,-0.05859 0,0 4.13672,-1.703125 6.14062,-3.304688 2.00782,-1.597656 2.91407,-2.660156 3.34375,-2.917968 0,0 0.25,-0.222657 1.09375,-0.140626 0,0 0.58203,-0.09375 0.63282,-0.4375 0,0 0.20312,-0.492187 -1.11719,-1.101562 0,0 -1.31641,-0.613281 -1.39063,-0.660156 0,0 0,0 0.004,0.0039 -0.29297,-0.179688 -1.46094,-0.867188 -1.88281,-0.769531" id="path53"/>
  <path fill-rule="nonzero" fill="#000100" fill-opacity="1" d="m 256.70629,33.652736 c -0.15234,0.757813 -0.36328,1.757813 -0.40234,1.953125 -0.0625,0.296875 -0.57813,3.859375 -0.625,4.21875 -0.0469,0.359375 -0.32813,3.09375 -0.40625,4 -0.0781,0.90625 0.29687,1.46875 0.5,1.75 0.20312,0.28125 0.6875,0.71875 1,0.90625 0.3125,0.1875 0.98437,0.390625 1.40625,0.5 0.42187,0.109375 2.70312,0.1875 3.0625,0.1875 0.35937,0 3.26562,0.01563 4.5,0.0625 1.23437,0.04687 2.03125,-0.296875 2.71875,-0.5 0.6875,-0.203125 1.59375,-1.25 1.8125,-1.46875 0.21875,-0.21875 1.0625,-1.5625 1.3125,-2.09375 0.25,-0.53125 0.35937,-1.015625 0.4375,-1.3125 0.0781,-0.296875 0.0781,-0.625 0.0625,-0.84375 -0.0156,-0.21875 -0.32813,-0.28125 -0.53125,-0.375 -0.20313,-0.09375 -0.875,-0.375 -1.15625,-0.46875 -0.28125,-0.09375 -1.3125,-0.875 -1.5625,-1.0625 -0.25,-0.1875 -0.26563,-0.171875 -0.5,-0.09375 -0.23438,0.07813 -0.34375,0.796875 -0.4375,1.25 -0.0937,0.453125 -0.3125,0.875 -0.46875,1.3125 -0.15625,0.4375 -0.39063,0.8125 -0.5625,1.125 -0.17188,0.3125 -0.53125,0.703125 -0.78125,0.875 -0.25,0.171875 -0.92188,0.25 -1.25,0.28125 -0.32813,0.03125 -2.26563,0.09375 -2.625,0.09375 -0.35938,0 -1.1875,-0.07813 -1.5625,-0.15625 -0.375,-0.07813 -0.54688,-0.25 -0.6875,-0.53125 -0.14063,-0.28125 -0.20313,-0.640625 -0.1875,-1 0.0156,-0.359375 0.23437,-2.8125 0.3125,-3.28125 0.0781,-0.46875 0.45312,-3 0.59375,-3.65625 0.0937,-0.445312 0.28906,-1.519531 0.41406,-2.253906 0.10938,-0.417969 0.33203,-1.304688 0.36719,-1.542969 0,0 0.27344,-0.804687 0.0781,-1.125 0,0 -0.0469,-0.234375 -0.46875,-0.234375 -0.42187,0 -6.08593,0.28125 -6.32812,0.3125 -0.11719,0.01563 -2.32422,0.113282 -4.63672,0.210938 0.0781,-0.929688 0.15234,-2.277344 0.23828,-2.367188 0.10938,-0.121094 0.0899,-0.214844 0.66797,-0.320312 0,0 0.69922,-0.292969 0.69922,-0.5625 0,0 0.0391,-0.53125 -0.60547,-0.636719 l -3.96484,-0.519531 c 0,0 -1.51172,-0.152344 -1.60547,-0.144532 -0.0899,0.01172 -0.28906,0.04297 -0.27735,0.5 0,0 -0.0469,2.207032 -0.0469,2.46875 0,0 -0.11719,1.089844 -0.25391,1.808594 -0.13281,0.0078 -0.23047,0.01563 -0.24609,0.01563 -0.20313,0.02344 -10.67969,0.320313 -11.5,0.296875 0,0 -1.1875,-0.132812 -1.51563,0.15625 0,0 -0.32812,0.08594 -0.32812,0.734375 0,0 0.0781,1.945313 0.20312,2.1875 0,0 0.0547,0.117188 0.15625,0.21875 0,0 -0.0859,0.179688 1.875,0.109375 0,0 8.89063,-0.46875 9.375,-0.5 0,0 0.47266,-0.01953 1.19141,-0.05078 -0.14062,0.464844 -0.26953,0.84375 -0.37109,1.050781 0,0 -0.39453,1.101563 -0.84375,1.726563 0,0 -1.35938,1.824219 -2.77735,2.929687 0,0 -1,1.066406 -3.46093,2.175782 -2.45704,1.113281 -4.83594,1.714843 -6.15235,1.882812 0,0 -1.1875,0.07031 -1.46875,0.210938 0,0 -0.30078,0.113281 -0.29687,0.320312 0,0 -0.17578,0.152344 0.7539,0.738281 0,0 1.60547,1.261719 2.0586,2.070313 0,0 0.21093,0.320312 0.71875,0.226562 0.5039,-0.09375 2.86328,-0.832031 3.38672,-1 0.52343,-0.171875 5.39453,-2.371094 5.76562,-2.589844 0.37109,-0.21875 2.52344,-1.707031 3.92969,-3.210937 1.40625,-1.507813 2.17969,-2.804687 2.48047,-3.351563 0.24609,-0.445312 0.80859,-1.246093 1.33203,-3.109374 0.0273,-0.09375 0.0586,-0.1875 0.0937,-0.285157 1.64062,-0.07031 3.0039,-0.128906 3.1914,-0.140625 0,0 2.125,-0.03125 4.19922,-0.07813" id="path54"/>
  <path fill-rule="nonzero" fill="#000100" fill-opacity="1" d="m 306.46411,37.207424 c 0,0 -2.78907,0.03125 -5.55079,0.05859 0.0195,-0.738281 0.0312,-1.292968 0.0312,-1.363281 0,0 -0.0195,-1.125 0.48829,-1.132812 0,0 0.4375,-0.09375 0.4375,-0.410157 0,0 -0.0274,-0.347656 -0.22657,-0.398437 0,0 -4.28125,-0.523437 -4.59765,-0.480469 0,0 -0.34766,0.02344 -0.54297,0.207032 -0.043,0.04297 -0.11719,0.109374 -0.14063,0.160156 -0.0898,0.195312 -0.18359,0.234375 -0.1289,0.769531 0,0 0.0117,1.265625 0.0234,2.691406 -0.41796,0.0039 -0.68359,0.0078 -0.72265,0.0078 0,0 -4.51953,-0.03516 -4.77344,-0.05859 0,0 -0.42578,-0.04297 -0.96875,-0.08594 0.83984,-0.589843 1.57031,-1.125 1.88672,-1.4375 0,0 2.38672,-2.378906 3.40625,-3.480468 1.08594,-0.0078 1.875,-0.01172 2.00391,-0.01563 0,0 3.36718,-0.0078 6.01171,-0.01172 0.32032,0.464844 0.6836,0.945312 0.6836,0.945312 0.58203,0.925782 2.64453,2.894532 3.03906,3.230469 0.10547,0.08594 0.53516,0.382813 1.12109,0.78125 -0.72265,0.01172 -1.39062,0.01953 -1.48046,0.02344 m -13.84758,-9.968732 c 0.35547,-0.136719 8.625,0.03906 8.625,0.03906 0.21875,0.01172 3.86719,0.09375 4.07422,0.09375 0.082,0 0.16797,-0.01953 0.24609,-0.04687 h 0.0156 c -0.004,0.449219 -0.0195,1.019532 -0.0195,1.042969 -0.008,0.05078 -0.0117,0.421875 -0.0117,0.878906 -0.10547,0 -0.17188,0 -0.1836,0 -0.15234,0 -7.36718,-0.01563 -7.52734,0 -0.0781,0.0078 -2.89453,0.01172 -5.79688,0.01563 0,-0.05859 0.004,-0.832031 0.008,-1.917968 0.27343,-0.07813 0.57031,-0.105469 0.57031,-0.105469 m -0.54688,-4.832031 c 0.29668,-0.140634 0.77715,-0.179696 0.77715,-0.179696 0.35156,-0.136719 8.625,0.03906 8.625,0.03906 0.21875,0.01172 3.86328,0.09375 4.07031,0.09375 0.004,0 0.0117,0.132813 0.0195,0.253907 h -0.004 c 0,0.46875 0.0156,1.3125 0.0156,1.863281 h -0.0117 c -0.37109,0.351562 -0.94531,0.363281 -0.94531,0.363281 h -8.61328 c -0.22266,0 -2.74219,-0.105469 -3.94141,-0.160156 0.004,-0.765625 0.008,-1.546875 0.008,-2.273437 m 0.0156,-2.953126 c 0,-0.210937 0,-0.332031 0,-0.332031 l 0.0234,-1.65625 c 2.43359,-0.0078 4.96484,-0.01953 5.19922,-0.02734 0,0 6.97656,-0.01563 8.24218,-0.01563 0,0.511719 0,1.484376 0.004,2.21875 -0.33984,0.183594 -0.70703,0.1875 -0.70703,0.1875 h -8.61328 c -0.23828,0 -3.0625,-0.121093 -4.14844,-0.167968 0,-0.07031 0,-0.148438 0,-0.207032 m 28.95312,10.058594 c 0,0 -0.10546,-0.289062 -0.58593,-0.292968 -0.47657,-0.0039 -4.19141,0.02734 -4.45703,0.03125 -0.14454,0.0039 -3.22657,0 -6.03516,0 0,-0.101563 -0.004,-0.171876 -0.004,-0.195313 0,-0.04687 0.004,-0.941406 0.004,-1.820313 0.004,-0.695312 0.004,-1.558593 0.008,-2.445312 h 0.0156 c 0,-0.511719 -0.0117,-1.4375 -0.0117,-2.003906 h 0.0117 c 0.004,-1.386719 -0.004,-2.871094 -0.008,-3.234375 h 0.008 l 0.0508,-2.058594 c 2.53515,0.04297 5.28125,0.08594 5.44531,0.08594 0,0 3.37109,0.152344 3.8125,-0.195312 0,0 0.14844,-0.175781 0.17969,-0.621094 0.0312,-0.441406 0.125,-1.769531 0,-1.929687 0,0 -0.0977,-0.277344 -0.54297,-0.28125 -0.44141,-0.0039 -3.87891,0.02734 -4.125,0.03125 -0.11719,0.0039 -2.35547,0 -4.66797,0 l 0.0391,-1.203125 c 0.0625,-0.21875 0.67969,-0.730469 0.67969,-0.730469 0.40625,-0.214844 0.33594,-0.5 0.33594,-0.5 0.043,-0.226563 -0.0781,-0.269531 -0.0781,-0.269531 -0.20703,-0.363282 -3.7539,-0.457032 -4.3789,-0.457032 -0.62891,0 -0.6211,0 -0.83985,0.167969 -0.21875,0.164063 -0.23828,0.558594 -0.23828,0.558594 -0.0234,0.136719 -0.0547,1.34375 -0.0781,2.429687 -0.35547,0 -0.58985,0 -0.61328,0 -0.14063,0 -6.81641,-0.01562 -6.96875,0 -0.0742,0.01172 -2.95313,0.01172 -5.78125,0.01563 l 0.0469,-1.367188 c 0.0625,-0.21875 0.71094,-0.730469 0.71094,-0.730469 0.42578,-0.21875 0.35156,-0.5 0.35156,-0.5 0.043,-0.230469 -0.082,-0.269531 -0.082,-0.269531 -0.21875,-0.367188 -3.92578,-0.460938 -4.58203,-0.460938 -0.65625,0 -0.64844,0 -0.875,0.167969 -0.23047,0.167969 -0.25,0.5625 -0.25,0.5625 -0.0274,0.140625 -0.0625,1.472657 -0.0859,2.597657 -0.42578,0 -0.69141,0 -0.71484,0 -0.19141,0 -6.30078,-0.01953 -6.63672,-0.04297 0,0 -1.47266,-0.121094 -1.66016,0 0,0 -0.36719,0.04297 -0.33203,0.566406 0,0 -0.0312,1.839844 0,1.914063 0,0 0.0156,0.21875 0.12891,0.328124 0,0 0.0625,0.210938 1.75781,0.1875 1.63672,-0.02344 6.84375,-0.05469 7.42969,-0.0625 0.004,0.542969 -0.008,11.039063 -0.004,11.777344 -1.01953,0 -1.71094,0 -1.75781,0 -0.20313,0 -6.80469,-0.01953 -7.16406,-0.04297 0,0 -1.59375,-0.128907 -1.79688,0 0,0 -0.39844,0.04297 -0.35937,0.589843 0,0 -0.0352,1.929688 0,2.003907 0,0 0.0156,0.230468 0.13671,0.34375 0,0 0.0703,0.222656 1.89844,0.199218 1.83203,-0.02734 7.79297,-0.0625 8.09375,-0.06641 0,0 1.06641,-0.0039 2.51953,-0.01172 -0.125,0.171875 -1.23828,1.652344 -2.60156,2.625 0,0 -1.44531,1.582031 -6.08203,3.375 0,0 -1.86328,0.65625 -3.20703,0.9375 0,0 -0.83594,0.15625 -0.85547,0.4375 0,0 -0.043,0.226563 0.48047,0.5 0,0 1.75,0.832031 2.28906,1.476563 0,0 0.39844,0.648437 0.54297,0.648437 0,0 1.48828,-0.199219 2.14453,-0.480469 0,0 3.46875,-1.574218 4.04297,-1.9375 0,0 0.58984,-0.378906 1.39844,-0.90625 0.004,0.441407 0.0312,0.980469 0.13672,1.125 0,0 0.28906,0.347657 1.95312,0.253907 1.66406,-0.09375 6.55469,-0.04687 6.80078,-0.05078 0,0 0.10938,-0.0039 0.26563,-0.0039 0.008,0.503907 0.0117,0.871094 0.0195,0.964844 0,0 -0.082,2.382813 -0.082,2.519531 0,0 -0.008,0.214844 0.0664,0.507813 -0.3125,0.0039 -0.51953,0.0039 -0.55468,0.0078 -0.17188,0.0078 -6.74219,-0.101562 -7.01172,-0.09375 -0.27735,0.0078 -3.91016,0.01563 -4.19141,0.01563 l -3.54687,-0.07813 c 0,0 -0.58985,-0.125 -0.83985,0.07813 0,0 -0.26953,0.101563 -0.29687,0.53125 0,0 -0.0508,2.226563 0,2.28125 0,0 -0.0274,0.203125 0.40234,0.390625 0,0 3.99219,0.01563 4.53125,0 0,0 6.71875,-0.125 6.94141,-0.125 h 8.46484 c 0,0 9.12109,0.210938 9.46875,0.203125 0,0 6.33594,0.1875 6.67188,0.109375 0,0 0.375,0.04687 0.625,-0.21875 0,0 0.17187,-0.289062 0.17187,-0.796875 0,0 0.1875,-1.695312 -0.125,-2.0625 0,0 -0.0156,-0.210937 -0.48047,-0.234375 -0.47265,-0.02344 -1.16015,-0.07031 -1.34765,-0.0625 -0.1875,0.0078 -6.96875,-0.03906 -7.15235,-0.03125 -0.1914,0.0078 -6.54687,0.03125 -6.72265,0.04687 -0.0234,0 -0.16407,0.0039 -0.3711,0.0039 -0.004,-0.03125 -0.16797,-1.878906 -0.14062,-2.558593 0.008,-0.195313 0.0273,-0.742188 0.043,-1.417969 2.29687,-0.01172 4.57812,-0.01953 4.69921,-0.01563 0,0 3.96094,0.121094 4.23438,0.03906 0,0 0.15234,0.0039 0.32812,-0.132813 0,0 0.10157,-0.05859 0.10547,-0.691406 0,0 0.0391,-0.320313 0.0547,-0.71875 1.33594,0.886719 2.64453,1.75 3.0625,2.015625 0.91797,0.578125 3.98047,1.648437 3.98047,1.648437 0.34375,0.125 0.76953,0 0.76953,0 0.4375,-0.15625 1.35547,-1.523437 1.35547,-1.523437 0.13672,-0.144532 0.98047,-0.769532 0.98047,-0.769532 0.55078,-0.417968 0,-0.613281 0,-0.613281 -0.19922,-0.105469 -1.33594,-0.449219 -1.33594,-0.449219 -1.17578,-0.207031 -5.5,-2.269531 -5.5,-2.269531 -2.875,-1.5625 -4.75781,-3.625 -4.95703,-3.917969 -0.082,-0.121093 -0.22266,-0.347656 -0.40234,-0.605468 2.98046,0.05078 8.27343,0.132812 8.50781,0.132812 0,0 3.64844,0.160156 4.12109,-0.207031 0,0 0.16016,-0.183594 0.19531,-0.648437 0.0352,-0.460938 0.13672,-1.851563 0,-2.019532" id="path55"/>
  <path fill-rule="nonzero" fill="#000100" fill-opacity="1" d="m 355.28832,24.512111 c -1.39843,0.0039 -2.65625,0.01172 -2.7539,0.01953 0,0 -6.44922,-0.0625 -6.71875,-0.03125 0,0 -2.96875,-0.105469 -5.33594,-0.1875 -0.52734,-0.01953 -1.02344,-0.03516 -1.45312,-0.05078 0.30859,-0.183594 0.5,-0.296875 0.5,-0.296875 0.40625,-0.308593 3.96484,-3.328125 3.96484,-3.328125 0.46875,-0.339844 3.5,-3.429687 3.5,-3.429687 0.14453,-0.140625 0.49219,-0.429688 0.92187,-0.777344 1.15235,1.585937 2.47266,2.953125 5.29688,5.367187 1.05078,0.902344 2.42969,1.855469 3.76562,2.710938 -0.54296,0 -1.125,0.0039 -1.6875,0.0039 m 15.79688,1.785156 c -0.40625,-0.25 -2.96875,-0.78125 -2.96875,-0.78125 -1.5625,-0.34375 -5.40625,-2.046874 -6.46875,-2.558593 -1.0625,-0.515625 -5.17188,-3.140625 -7.65625,-5.410157 -1.64453,-1.5 -2.58203,-2.804687 -3.03516,-3.527343 0.0391,-0.03125 0.0664,-0.05469 0.082,-0.0625 0.21094,-0.171875 0.54688,-0.332031 0.54688,-0.765625 0,-0.441406 -0.57813,-0.550782 -0.57813,-0.550782 -0.30468,-0.05859 -4.03125,-1.21875 -4.03125,-1.21875 -1,-0.414062 -1.29687,-0.125 -1.29687,-0.125 -0.375,0.21875 -0.65625,0.828126 -0.65625,0.828126 -0.53125,1.410156 -3.28516,4.371093 -3.28516,4.371093 -0.49215,0.605475 -4.66794,4.105475 -4.66794,4.105475 -0.76171,0.59375 -4.65625,2.925781 -5.64843,3.398438 -0.99219,0.480468 -6.83594,2.546874 -6.83594,2.546874 -0.21094,0.277344 1.84766,1.5625 1.84766,1.5625 0.23437,0.199219 1.78906,1.292969 1.78906,1.292969 0.55078,-0.03125 1.17578,-0.386719 1.17578,-0.386719 1.3125,-0.308593 4.46875,-1.84375 4.46875,-1.84375 0.25781,-0.08594 1.32812,-0.679687 2.46875,-1.335937 0,0.175781 0.004,0.375 0.0156,0.601563 0,0 -0.0351,0.75 0.11719,0.9375 0,0 0.0703,0.1875 0.8711,0.1875 h 8.18359 c -0.004,1.003906 0.004,3.753906 0.004,4.898437 -0.19922,0 -0.34375,0.0039 -0.37891,0.0078 0,0 -10.40234,-0.28125 -10.90625,-0.28125 0,0 -1.125,-0.0625 -1.40625,0.21875 0,0 -0.40625,0.109374 -0.28125,2 0,0 -0.0469,0.75 0.15625,0.9375 0,0 0.0937,0.1875 1.15625,0.1875 h 11.66016 v 8.589843 c -1.21485,-0.0078 -2.34375,-0.02344 -2.56641,-0.0078 -0.27344,0.01953 -1.91406,0.0078 -3.69922,-0.01563 0.33203,-0.109375 0.76953,-0.269532 1.07422,-0.453125 0,0 1.45312,-0.5625 1.65625,-0.90625 0,0 0.3125,-0.222657 -0.4375,-1.480469 0,0 -2.51563,-3.925781 -3.3125,-4.019531 0,0 -0.3125,-0.296875 -1.5625,0.367187 l -1.25,0.664063 c 0,0 -0.85938,0.375 -0.71875,0.75 0,0 0.1875,0.515625 0.90625,1.15625 0,0 1.75,2.53125 1.90625,2.78125 0,0 0.4375,0.785156 0.86328,1.128906 -1.90234,-0.02734 -3.74609,-0.05859 -4.08203,-0.06641 -0.70313,-0.01563 -5.125,-0.109375 -5.6875,-0.1875 0,0 -0.9375,-0.03125 -1.21875,0.1875 0,0 -0.28125,0.125 -0.28125,0.46875 v 2.4375 c 0,0 -0.0469,0.46875 0.5,0.5625 0.54687,0.09375 7.45312,-0.15625 7.71875,-0.15625 h 16.25 c 0,0 9.45312,0.152343 9.90625,0.175781 0,0 6.34766,0.257812 6.92969,0.09375 0,0 0.23828,-0.140625 0.19531,-0.582031 0,0 0.20312,-2.5625 -0.15625,-2.78125 0,0 -0.34375,-0.28125 -2.125,-0.1875 -1.44922,0.07813 -6.80859,0.05078 -9.05859,0.05469 1.24609,-1.1875 2.99609,-3.617187 2.99609,-3.617187 0.32812,-0.375 0.84375,-0.4375 0.84375,-0.4375 1.03125,-0.28125 0.75,-0.5625 0.75,-0.5625 0.125,-0.5625 -0.96875,-0.8125 -0.96875,-0.8125 -0.89063,-0.296875 -2.59375,-1.070313 -2.59375,-1.070313 -1.17188,-0.679687 -1.5625,0.171875 -1.65625,0.601563 -0.13672,0.613281 -1.0625,1.71875 -1.0625,1.71875 -0.48438,0.671875 -2.59375,2.65625 -2.59375,2.65625 -0.5625,0.53125 0.59375,0.75 0.59375,0.75 0.42969,0.02734 1.23437,0.566406 1.56641,0.796875 -1.60547,0.0078 -4.28516,0.0039 -4.62891,0.01563 -0.043,0.0039 -0.12109,0 -0.25391,0 v -8.613281 h 2.56641 c 0.28125,0 5.73437,0.21875 6.21875,0.21875 0,0 3.71875,0.109374 4.0625,0 0,0 0.34375,0.109374 0.34375,-0.5625 v -2.25 c 0,0 0.0781,-0.46875 -0.46875,-0.46875 0,0 -8.60938,0.01562 -8.90625,0.03125 0,0 -1.82031,-0.01563 -3.81641,-0.02734 -0.004,-1.210938 0,-4.15625 0,-4.910156 h 1.32813 c 0.21094,0 4.30859,0.21875 4.67187,0.21875 0,0 2.79688,0.109374 3.05469,0 0,0 0.25781,0.109374 0.25781,-0.5625 v -1.125 c 1.19141,0.691406 2.03516,1.144531 2.03516,1.144531 1.9375,1.078125 5.96875,2.558593 5.96875,2.558593 0.75,0.171876 0.78125,-0.183593 0.78125,-0.183593 0.29687,-0.453125 1.0625,-1.40625 1.0625,-1.40625 0.42187,-0.566407 1.46875,-1.375 1.46875,-1.375 0.5,-0.332031 0.1875,-0.535157 0.1875,-0.535157" id="path56"/>
  <path fill-rule="nonzero" fill="#000100" fill-opacity="1" d="m 406.85864,43.863674 c -0.69141,0.07031 -8.625,0.03125 -8.86328,0.03906 -0.1875,0.0078 -8.08985,-0.08984 -11.51563,-0.140625 -0.0156,-0.441406 -0.0234,-0.738281 -0.0234,-0.738281 0,-0.01953 0.004,-0.238281 0.008,-0.550781 0.10546,-0.02734 0.20312,-0.05078 0.27343,-0.06641 0.29297,-0.0625 1.76953,-0.09766 1.92188,-0.09766 0.15234,0 10.10156,-0.01953 10.24219,-0.01953 0.14453,0 8.0625,0.0625 8.66015,0.105469 0.17188,0.01563 0.29688,0.04297 0.40235,0.07813 -0.004,0.253906 -0.008,0.433594 -0.0117,0.472656 -0.008,0.07031 -0.0274,0.414062 -0.0508,0.878906 -0.41407,0.0039 -0.8086,0.01172 -1.04297,0.03906 m -20.35938,-5.964844 c 0.45313,-0.01563 2.16406,-0.07031 2.38281,-0.07031 0.25,0 7.01563,-0.01172 7.19532,-0.01172 0.17968,0 10.69922,0.02734 10.97265,0.03906 0.0703,0.0039 0.44532,0.01172 0.95313,0.02734 -0.004,0.421875 -0.008,1.007812 -0.0117,1.628906 -0.25391,0.07422 -0.64844,0.117188 -0.72266,0.125 -0.12109,0.01172 -10.86328,0 -10.90625,0 -0.0469,0 -8.75781,0 -9.50781,-0.05469 -0.125,-0.0078 -0.25,-0.02734 -0.375,-0.04687 0.004,-0.195313 0,-0.335938 0,-0.363282 -0.004,-0.06641 0.008,-0.625 0.0195,-1.273437 m 21.33985,9.152344 c 0.0625,0.570312 0.46875,0.609375 0.46875,0.609375 0.28125,0.179687 2.4375,0.05469 3.1875,0.0625 0.75,0.0078 0.84375,-0.359375 0.84375,-0.359375 0.19531,-0.3125 -0.0742,-4.300781 -0.0742,-4.636719 0,-0.269531 0.0703,-4.226562 0.0976,-5.753906 0.0156,-0.414063 0.0195,-0.867188 -0.004,-0.953125 -0.0352,-0.15625 0.043,-0.96875 -0.77344,-0.960938 -0.81641,0.0078 -3.3125,0.148438 -3.52344,0.15625 -0.21094,0.0039 -6.44531,0.07422 -6.59765,0.06641 -0.15235,-0.0039 -7.3125,0.0078 -7.50782,0 -0.19922,-0.0039 -8.08593,-0.07813 -8.30078,-0.07422 -0.21484,0.0078 -1.39062,-0.05859 -1.52344,-0.07813 0,0 -1.41406,-0.121094 -1.66406,-0.0078 -0.25,0.109375 -0.38281,0.3125 -0.39453,0.480469 -0.0117,0.152344 -0.0469,1.683594 -0.0195,2.066406 0,0.04297 0.004,0.08594 0.004,0.101563 0,0.171875 -0.13282,5.949219 -0.16016,6.339843 -0.0234,0.386719 -0.14844,2.867188 -0.17969,3.273438 -0.0351,0.40625 0.98438,0.371094 0.98438,0.371094 0,0 2.0039,0.04297 2.75781,-0.01563 0.75781,-0.05859 1.00391,-0.363281 1.00391,-0.363281 0.0586,-0.08203 0.043,-0.183594 0.0508,-0.804688 1.26172,-0.03125 2.42578,-0.05859 2.59765,-0.0625 0.39453,-0.01172 8.31641,0.08203 8.51172,0.0625 0.15625,-0.01563 7.09766,0.03125 10.16406,0.02344 -0.008,0.390624 0.0352,0.324218 0.0508,0.457031" id="path57"/>
  <path fill-rule="nonzero" fill="#000100" fill-opacity="1" d="m 402.59301,20.133205 c -0.26562,0.01563 -6.64062,-0.125 -7.03125,-0.09375 -0.34375,0.02734 -7.03515,-0.08984 -8.92187,-0.140625 2.60547,-0.8125 4.64843,-1.628906 7.04297,-2.570313 1.28125,-0.503906 2.58203,-1.148437 3.66796,-1.734374 1.13672,0.699218 3.02735,1.804687 4.72266,2.519531 1.23047,0.519531 3.51953,1.292969 5.92188,2.042969 -1.72657,-0.03906 -5.19532,-0.03516 -5.40235,-0.02344 m 16.44922,-0.582031 c 0,0 -2.55469,-0.523438 -3.54297,-0.75 0,0 -6.30078,-1.4375 -8.25,-2.230469 -1.94922,-0.792969 -5.4375,-2.269531 -6.25,-3 -0.0351,-0.03125 -0.0859,-0.05469 -0.13281,-0.07813 0.38672,-0.3125 0.35156,-0.4375 0.35156,-0.4375 0.27735,-0.511719 -0.46484,-0.816406 -0.46484,-0.816406 -0.15625,-0.09375 -2.60938,-0.917969 -2.60938,-0.917969 -1.09765,-0.449219 -1.53906,0.382812 -1.53906,0.382812 -3.45312,2.5625 -6.03125,3.441407 -9.67578,4.746094 -3.64063,1.300782 -9.84766,1.992188 -10.89844,2.292969 -1.05078,0.296875 0.15625,1.097656 0.15625,1.097656 0.36328,0.285157 0.33203,0.191407 1.32031,1.289063 0.98829,1.101562 1.44532,0.878906 1.44532,0.878906 1.09765,-0.109375 5.30859,-1.414062 5.30859,-1.414062 0.21484,-0.05859 0.41406,-0.117188 0.62109,-0.175782 -0.004,0.02344 -0.008,0.03516 -0.008,0.05859 -0.0156,0.296875 -0.0781,1.609375 -0.0781,1.609375 0,0 -0.0937,0.578125 0.0625,0.828125 0.15625,0.25 0.73437,0.328125 1.14062,0.28125 0.40625,-0.04687 12.65625,0 13.09375,-0.03125 0.4375,-0.03125 9.53125,0.265625 9.875,0.25 0.34375,-0.01563 0.40625,0.0625 0.625,-0.125 0.21875,-0.1875 0.23438,-0.4375 0.25,-0.625 0.0156,-0.1875 0,-1.671875 -0.0312,-1.8125 -0.0117,-0.05078 -0.0117,-0.101562 -0.0117,-0.148438 3.25391,0.96875 6.28907,1.757813 6.75391,1.652344 0,0 0.28125,0.09375 0.59375,-0.191406 0,0 1.11328,-1.292969 1.37109,-1.511719 0,0 0.41797,-0.5 0.64844,-0.601562 0,0 0.32031,-0.28125 -0.125,-0.5" id="path58"/>
  <path fill-rule="nonzero" fill="#000100" fill-opacity="1" d="m 382.52661,27.58633 c 0.86718,-0.0039 1.59765,-0.01172 1.78906,-0.01172 0.10937,0 0.60937,0 1.32031,0 0.35547,0.460938 0.69922,0.917969 0.82422,1.0625 0,0 0.78125,1.285156 1.35156,2.179688 -0.13672,0 -0.24609,0 -0.27734,0.0039 -0.22656,0.01172 -2.89063,-0.01953 -5.00391,-0.04687 -0.008,-1.019531 -0.0117,-1.910156 -0.0117,-1.941406 0,-0.03906 0.004,-0.636719 0.008,-1.246094 m 12.41796,0.01172 c 0.0977,0.210937 0.16797,0.421875 0.17969,0.613281 0.0469,0.925781 -0.0312,2.179687 -0.0312,2.179687 0,0 -0.0195,0.214844 -0.0625,0.476563 -0.95703,-0.0078 -2.10547,-0.01563 -3.21875,-0.02734 -0.35937,-0.710937 -1.14453,-2.253906 -1.66406,-3.261719 2.28125,0 4.42187,0.0078 4.79687,0.01953 m 4.33594,0.363281 c 0.008,-0.08984 0.043,-0.210937 0.10156,-0.347656 2.30469,0.0078 4.73438,0.01563 5.19922,0.01563 -0.19922,0.523437 -1.19531,2.285156 -1.93359,3.308594 -1.08984,-0.01172 -2.23828,-0.02344 -3.19922,-0.03125 -0.10937,-0.289063 -0.20703,-0.632813 -0.19922,-0.964844 0.0156,-0.773438 0,-1.628906 0.0312,-1.980469 m 9.54688,-0.269531 c 0.96484,0.01172 1.98828,0.02344 2.95312,0.03125 -0.0351,0.992187 -0.0742,2.144531 -0.11328,3.179687 -0.12109,0 -0.20703,0 -0.23828,0.0039 -0.21484,0.02344 -2.98828,0.05859 -4.32031,0.06641 0.30078,-0.660156 1.08203,-2.3125 1.71875,-3.28125 m -30.26563,4.023437 c 0,0.0039 0,0.02344 0,0.02734 0,0.148437 -0.0703,2.210937 -0.0508,2.316406 0,0 0.11719,0.339844 0.37891,0.425781 0,0 3.24609,0.04297 3.32812,0.01563 0.082,-0.03125 0,0 0,0 0,0 0.32813,0 0.33985,-0.597657 0,0 0,-0.125 -0.004,-0.316406 0.875,-0.0078 1.61719,-0.01172 1.80859,-0.01172 0.54688,-0.0039 10.31641,0 10.69922,0.02344 0,0 9.15625,0.03516 9.64063,0.03125 0.27343,0 3.8125,0.06641 6.875,0.08984 -0.008,0.503906 0.30859,0.648437 0.30859,0.648437 0.32031,0.316406 3.51953,0.152344 3.51953,0.152344 0.82813,-0.0078 0.7461,-0.414063 0.7461,-0.414063 0.10937,-0.105468 0.0312,-4.621094 -0.0195,-7.082031 0.0156,-0.332031 0.0274,-0.855469 -0.0273,-1.292969 -0.004,-0.160156 -0.008,-0.269531 -0.008,-0.269531 -0.0195,-0.121094 -0.0742,-0.207031 -0.13672,-0.28125 -0.0547,-0.09766 -0.11328,-0.171875 -0.19531,-0.191406 0,0 -0.0469,0 -0.10938,-0.0039 -0.36719,-0.117187 -0.82031,-0.02734 -0.82031,-0.02734 -0.0156,0.0039 -0.0391,0.0039 -0.0664,0.0078 -1.23437,-0.03125 -3.19531,-0.07813 -3.3789,-0.05859 -0.27344,0.03125 -4.66016,0.07422 -5.01563,0.07031 -0.35547,-0.0078 -8.96875,-0.08984 -9.16797,-0.08984 -0.20312,0 -9.33593,-0.08594 -9.71875,-0.06641 -0.38281,0.01953 -7.60156,-0.07813 -7.60156,-0.07813 0,0 -1.33984,-0.04687 -1.36719,0.460937 -0.0117,0.269532 -0.008,0.539063 -0.004,0.773438 0,0 0,0.0039 0,0.0039 0,0.01953 0.004,0.222656 0.0117,0.515625 0,0.0078 0.004,0.02734 0.004,0.05859 0.0274,0.953125 0.0781,2.765625 0.0742,2.835937 -0.008,0.07031 -0.0273,1.242188 -0.0352,1.90625 -0.008,0.140626 -0.008,0.28125 -0.008,0.417969" id="path59"/>
</svg>
</svg>