<svg xmlns="http://www.w3.org/2000/svg" width="600" height="400" viewBox="0 0 600 400">
    <title>black_banner_logo with padding</title>
    <svg xmlns="http://www.w3.org/2000/svg" viewBox="0 0 839 101" fill="none" x="50" y="169.9046483909416" width="500" height="60.1907032181168">
<path fill-rule="evenodd" clip-rule="evenodd" d="M109.103 25.691C109.035 25.8956 109 26.1099 109 26.3255V80.5C109 81.6046 109.895 82.5 111 82.5H128C129.105 82.5 130 81.6046 130 80.5V71.5C130 70.3954 130.895 69.5 132 69.5H161C162.105 69.5 163 70.3954 163 71.5V80.5C163 81.6046 163.895 82.5 165 82.5H182C183.105 82.5 184 81.6046 184 80.5V26.2225C184 26.0746 183.984 25.9258 183.95 25.7819C183.208 22.6421 182.152 21.4494 179.385 20.1732C179.133 20.0571 178.857 20 178.579 20H114.271C114.091 20 113.911 20.0235 113.739 20.0756C110.617 21.0214 110.067 22.7909 109.103 25.691ZM130.5 53C129 52 129 38 130.5 37C132 36 160.5 35.5 162.5 37C164.5 38.5 164 51.5 162.5 53C161 54.5 132 54 130.5 53Z" fill="black"/>
<path d="M198 20C196.895 20 196 20.8954 196 22V80.5C196 81.6046 196.895 82.5 198 82.5H215C216.105 82.5 217 81.6046 217 80.5V52.1449C217 50.3898 219.099 49.4859 220.374 50.692L253.422 81.9529C253.793 82.3042 254.285 82.5 254.796 82.5H269C270.105 82.5 271 81.6046 271 80.5V22C271 20.8954 270.105 20 269 20H252.5C251.395 20 250.5 20.8954 250.5 22V48.4102C250.5 50.157 248.418 51.0644 247.138 49.875L215.576 20.5351C215.206 20.1912 214.719 20 214.214 20H198Z" fill="black"/>
<path fill-rule="evenodd" clip-rule="evenodd" d="M109.103 25.691C109.035 25.8956 109 26.1099 109 26.3255V80.5C109 81.6046 109.895 82.5 111 82.5H128C129.105 82.5 130 81.6046 130 80.5V71.5C130 70.3954 130.895 69.5 132 69.5H161C162.105 69.5 163 70.3954 163 71.5V80.5C163 81.6046 163.895 82.5 165 82.5H182C183.105 82.5 184 81.6046 184 80.5V26.2225C184 26.0746 183.984 25.9258 183.95 25.7819C183.208 22.6421 182.152 21.4494 179.385 20.1732C179.133 20.0571 178.857 20 178.579 20H114.271C114.091 20 113.911 20.0235 113.739 20.0756C110.617 21.0214 110.067 22.7909 109.103 25.691ZM130.5 53C129 52 129 38 130.5 37C132 36 160.5 35.5 162.5 37C164.5 38.5 164 51.5 162.5 53C161 54.5 132 54 130.5 53Z" stroke="black" stroke-width="2"/>
<path d="M198 20C196.895 20 196 20.8954 196 22V80.5C196 81.6046 196.895 82.5 198 82.5H215C216.105 82.5 217 81.6046 217 80.5V52.1449C217 50.3898 219.099 49.4859 220.374 50.692L253.422 81.9529C253.793 82.3042 254.285 82.5 254.796 82.5H269C270.105 82.5 271 81.6046 271 80.5V22C271 20.8954 270.105 20 269 20H252.5C251.395 20 250.5 20.8954 250.5 22V48.4102C250.5 50.157 248.418 51.0644 247.138 49.875L215.576 20.5351C215.206 20.1912 214.719 20 214.214 20H198Z" stroke="black" stroke-width="2"/>
<path d="M319.474 45.9756C319.474 44.871 320.37 43.9756 321.474 43.9756H354C355.105 43.9756 356 44.871 356 45.9756V80.5C356 81.6046 355.105 82.5 354 82.5H285.5C283.468 82.3119 283.056 82.1428 283 80V24C283.033 20.4259 283.136 19.927 286.269 20.0054H354C355.105 20.0054 356 20.9009 356 22.0054V37.5912C356 38.6958 355.105 39.5912 354 39.5912H307C305.895 39.5912 305 40.4866 305 41.5912V63.5C305 64.6046 305.895 65.5 307 65.5H332.179C333.284 65.5 334.179 64.6046 334.179 63.5V58.6685C334.179 57.5639 333.284 56.6685 332.179 56.6685H321.474C320.37 56.6685 319.474 55.7731 319.474 54.6685V45.9756Z" fill="black" stroke="black" stroke-width="2"/>
<path d="M486 19C484.895 19 484 19.8954 484 21V34.0323C484 35.1368 484.895 36.0323 486 36.0323H510.763C511.867 36.0323 512.763 36.9277 512.763 38.0323V81C512.763 82.1046 513.658 83 514.763 83H534.802C535.906 83 536.802 82.1046 536.802 81V38.0323C536.802 36.9277 537.697 36.0323 538.802 36.0323H563.992C565.096 36.0323 565.992 35.1368 565.992 34.0323V21C565.992 19.8954 565.096 19 563.992 19H486Z" fill="black"/>
<path d="M647.556 19C648.661 19 649.556 19.8954 649.556 21V32.4839C649.556 33.5884 648.661 34.4839 647.556 34.4839H601.189C600.084 34.4839 599.189 35.3793 599.189 36.4839V42.2903C599.189 43.3949 600.084 44.2903 601.189 44.2903H636.681C637.786 44.2903 638.681 45.1858 638.681 46.2903V55.1935C638.681 56.2981 637.786 57.1935 636.681 57.1935H601.189C600.084 57.1935 599.189 58.089 599.189 59.1935V64.4839C599.189 65.5884 600.084 66.4839 601.189 66.4839H650C651.105 66.4839 652 67.3793 652 68.4839V81C652 82.1046 651.105 83 650 83H579C577.895 83 577 82.1046 577 81V21C577 19.8954 577.895 19 579 19H647.556Z" fill="black"/>
<path d="M738.865 21C738.865 19.8954 737.97 19 736.865 19H668.298C668.2 19 668.101 19.0071 668.004 19.0224C665.419 19.4314 664.594 20.2995 663.95 22.3359C663.892 22.5186 663.865 22.7102 663.865 22.9017V78.871C664.132 81.4994 664.777 82.5097 666.893 82.9623C667.016 82.9887 667.143 83 667.269 83H736.329C737.434 83 738.329 82.1046 738.329 81V67.948C738.329 66.8512 737.446 65.959 736.349 65.9481L688.345 65.4713C687.248 65.4604 686.365 64.5682 686.365 63.4714V37.5161C686.365 36.4116 687.26 35.5161 688.365 35.5161H736.865C737.97 35.5161 738.865 34.6207 738.865 33.5161V21Z" fill="black"/>
<path d="M750.863 21C750.863 19.8954 751.759 19 752.863 19H772.127C773.232 19 774.127 19.8954 774.127 21V39.374C774.127 40.4786 775.023 41.374 776.127 41.374H800.054C801.158 41.374 802.054 40.4786 802.054 39.374V21C802.054 19.8954 802.949 19 804.054 19H821.863C822.968 19 823.863 19.8954 823.863 21V81C823.863 82.1046 822.968 83 821.863 83H804.054C802.949 83 802.054 82.1046 802.054 81V59.5041C802.054 58.3995 801.158 57.5041 800.054 57.5041H776.127C775.023 57.5041 774.127 58.3995 774.127 59.5041V81C774.127 82.1046 773.232 83 772.127 83H762.399H752.863C751.759 83 750.863 82.1046 750.863 81V21Z" fill="black"/>
<path d="M486 19C484.895 19 484 19.8954 484 21V34.0323C484 35.1368 484.895 36.0323 486 36.0323H510.763C511.867 36.0323 512.763 36.9277 512.763 38.0323V81C512.763 82.1046 513.658 83 514.763 83H534.802C535.906 83 536.802 82.1046 536.802 81V38.0323C536.802 36.9277 537.697 36.0323 538.802 36.0323H563.992C565.096 36.0323 565.992 35.1368 565.992 34.0323V21C565.992 19.8954 565.096 19 563.992 19H486Z" stroke="black" stroke-width="2"/>
<path d="M647.556 19C648.661 19 649.556 19.8954 649.556 21V32.4839C649.556 33.5884 648.661 34.4839 647.556 34.4839H601.189C600.084 34.4839 599.189 35.3793 599.189 36.4839V42.2903C599.189 43.3949 600.084 44.2903 601.189 44.2903H636.681C637.786 44.2903 638.681 45.1858 638.681 46.2903V55.1935C638.681 56.2981 637.786 57.1935 636.681 57.1935H601.189C600.084 57.1935 599.189 58.089 599.189 59.1935V64.4839C599.189 65.5884 600.084 66.4839 601.189 66.4839H650C651.105 66.4839 652 67.3793 652 68.4839V81C652 82.1046 651.105 83 650 83H579C577.895 83 577 82.1046 577 81V21C577 19.8954 577.895 19 579 19H647.556Z" stroke="black" stroke-width="2"/>
<path d="M738.865 21C738.865 19.8954 737.97 19 736.865 19H668.298C668.2 19 668.101 19.0071 668.004 19.0224C665.419 19.4314 664.594 20.2995 663.95 22.3359C663.892 22.5186 663.865 22.7102 663.865 22.9017V78.871C664.132 81.4994 664.777 82.5097 666.893 82.9623C667.016 82.9887 667.143 83 667.269 83H736.329C737.434 83 738.329 82.1046 738.329 81V67.948C738.329 66.8512 737.446 65.959 736.349 65.9481L688.345 65.4713C687.248 65.4604 686.365 64.5682 686.365 63.4714V37.5161C686.365 36.4116 687.26 35.5161 688.365 35.5161H736.865C737.97 35.5161 738.865 34.6207 738.865 33.5161V21Z" stroke="black" stroke-width="2"/>
<path d="M750.863 21C750.863 19.8954 751.759 19 752.863 19H772.127C773.232 19 774.127 19.8954 774.127 21V39.374C774.127 40.4786 775.023 41.374 776.127 41.374H800.054C801.158 41.374 802.054 40.4786 802.054 39.374V21C802.054 19.8954 802.949 19 804.054 19H821.863C822.968 19 823.863 19.8954 823.863 21V81C823.863 82.1046 822.968 83 821.863 83H804.054C802.949 83 802.054 82.1046 802.054 81V59.5041C802.054 58.3995 801.158 57.5041 800.054 57.5041H776.127C775.023 57.5041 774.127 58.3995 774.127 59.5041V81C774.127 82.1046 773.232 83 772.127 83H762.399H752.863C751.759 83 750.863 82.1046 750.863 81V21Z" stroke="black" stroke-width="2"/>
<path d="M18 20C16.8954 20 16 20.8954 16 22V80.5C16 81.6046 16.8954 82.5 18 82.5H35C36.1046 82.5 37 81.6046 37 80.5V60C37 58.8954 37.8954 58 39 58H56.9708C57.6167 58 58.2228 58.3119 58.5982 58.8375L74.9018 81.6625C75.2772 82.1881 75.8833 82.5 76.5292 82.5H95.3248C96.7967 82.5 97.7599 80.9614 97.0863 79.6527C89.2684 64.4627 80.147 55.5894 72.6345 49.7448C71.7458 49.0534 71.5759 47.7705 72.2736 46.8867L90.9427 23.2393C91.9781 21.9277 91.0439 20 89.3729 20H70.1279C69.4278 20 68.7787 20.3661 68.4164 20.9652L56.5836 40.5348C56.2213 41.1339 55.5722 41.5 54.8721 41.5H39C37.8954 41.5 37 40.6046 37 39.5V22C37 20.8954 36.1046 20 35 20H18Z" fill="black" stroke="black" stroke-width="2"/>
<path d="M419 45.5H423C424.933 45.5 426.5 47.067 426.5 49V53C426.5 54.933 424.933 56.5 423 56.5H419C417.067 56.5 415.5 54.933 415.5 53V49C415.5 47.067 417.067 45.5 419 45.5Z" stroke="black" stroke-width="3"/>
<path d="M458.559 42.0234C458.848 43.6385 459 45.3016 459 47V55C459 70.464 446.464 83 431 83H410C408.699 83 407.419 82.9091 406.165 82.7373L425.131 68H431C438.18 68 444 62.1797 444 55V53.3369L458.559 42.0234ZM431 19C433.013 19 434.976 19.2144 436.869 19.6182L418.363 34H410C402.82 34 397 39.8203 397 47V50.6006L382.794 61.6396C382.276 59.5111 382 57.2878 382 55V47C382 31.536 394.536 19 410 19H431Z" fill="black"/>
</svg>
</svg>