<svg xmlns="http://www.w3.org/2000/svg" width="600" height="400" viewBox="0 0 600 400">
    <title>shasha77 with padding</title>
    <svg xmlns="http://www.w3.org/2000/svg" id="_圖層_2" data-name="圖層 2" viewBox="0 0 438.4 104.9" x="50" y="140" width="500" height="120"><defs><style>.cls-1{fill:#ffcf2b}</style></defs><g id="_圖層_1-2" data-name="圖層 1"><path d="M380.93 15.99a1.62 1.62 0 0 0-2.03-1.08l-15 5.83c-.87.34-1.85.39-2.75.14-.36-.1-.68-.19-.86-.23-3.7-.86-7.42-1.45-9.71-1.56-1.4-.07-2.37-.05-3.16.04-.92.07-2.03.26-2.93.4-.58.09-1.08.17-1.42.21-.89.09-3-.15-3.93-.63-.38-.2-.81-.4-1.19-.57-.34-.17-1.32-.56-1.36-.57-.85-.3-1.74-.53-2.41-.69l15.03-3.82c.42-.11.77-.37.99-.74.22-.37.28-.8.18-1.22-.11-.42-.37-.77-.74-.99s-.8-.28-1.22-.18l-22.23 5.64c-.76.22-1.32.66-1.62 1.27-.66 1.34-.15 3.41-.05 3.79l.03.17c.63 3.19 1.68 5.58 3.12 7.11 2.25 2.4 4.76 2.73 6.11 2.9l.25.03c2.53.35 4.46-.28 5.44-1.77.88-1.33 1.18-3.67 1.27-5.41.03-.56.27-.99.63-1.09.24-.07.52 0 .78.22.3.24.53.61.65 1.05l.07.24c.19.64.73 2.24 1.19 3.2.85 1.97 2.79 5.48 6.19 6.85.63.25 1.31.47 2.02.65l.09.03c.14.04 2.03.55 4.14.55 1.6 0 3.32-.29 4.49-1.31 2.59-2.25 2.92-7.9 2.94-8.51.08-.57.43-1.04.94-1.27l14.96-6.71c.41-.12.75-.4.96-.77.21-.38.25-.81.13-1.23Zm-21.31 15.2c-.08.21-.18.4-.29.58v.02c-.79 1.27-2.37 1.7-5.11 1.4-1.53-.17-2.67-.67-3.4-1.03-.31-.15-.6-.32-.89-.51-1.08-.71-1.63-1.45-1.83-1.76s-.12-.19-.12-.19c-.61-.88-1.65-2.71-1.76-5.12-.04-.79.22-1.24.52-1.67.25-.36.71-.8 1.99-.93 3-.32 6.81.24 9.71 1.43l.08.03c.45.18 1.38.55 1.68 2 .04.21.1.55.1.66.21 1.78-.04 3.63-.69 5.08Zm-23.05-3.09c-.34.48-1.04.64-1.33.69-1.17.2-2.67-.08-4.02-.74-.83-.41-1.78-1.25-2.27-2-.49-.76-1.1-1.9-1.52-3.97-.11-.54-.26-1.37-.31-2.25-.04-.74.16-.89.23-.94.17-.13.47-.14.79-.16h.34c.91 0 3.01.16 5.91 1.38.27.11 2.6 1.14 2.89 2.91.16.96.04 4.02-.72 5.08ZM310.69 22.94l-36.49 9.34a3.48 3.48 0 0 0-2.57 2.9l-3.04 21.58c-.42 2.98.29 4.34 1.82 4.63s3.49-.23 6.56-.65c8.28-1.14 15.74-2.4 18.03-4.35 1.53-1.3 2.99-3.1 4.66-10.63a.96.96 0 0 1 1.25-.71l6.21 1.25c.49.17.76.7.62 1.21-1.22 4.37-2.44 7.93-3.7 10.7-.59 1.29-1.5 2.55-2.62 3.7-2.77 2.85-6.48 4.61-10.41 5.18l-26.1 3.84c-2.82 0-6.68-3.02-5.78-9.46l3.4-24.15c.15-1.04-.79-1.89-1.78-1.64l-17.49 4.44c-.6.15-1.18-.3-1.2-.93l1-7.34c.08-.55.29-.87.73-.98l19.06-4.96c.8-.2 1.41-.88 1.53-1.72l3.15-22.36c.06-.44.4-.78.84-.84l6.97-.96c.64-.09 1.18.47 1.09 1.12l-2.83 20.09c-.14.98.74 1.79 1.68 1.55l36.11-9.04c.63-.16 1.26.22 1.11 1.04l-1.06 7.26c-.11.57-.32.81-.73.91ZM234.09 42.1l-36.49 9.34a3.48 3.48 0 0 0-2.57 2.9l-3.04 21.58c-.42 2.98.29 4.34 1.82 4.63s3.49-.23 6.56-.65c8.28-1.14 15.74-2.4 18.03-4.35 1.53-1.3 2.99-3.1 4.66-10.63a.96.96 0 0 1 1.25-.71l6.21 1.25c.49.17.76.7.62 1.21-1.22 4.37-2.44 7.93-3.7 10.7-.59 1.29-1.5 2.55-2.62 3.7-2.77 2.85-6.48 4.61-10.41 5.18l-26.1 3.84c-2.82 0-6.68-3.02-5.78-9.46l3.4-24.15c.15-1.04-.79-1.89-1.78-1.64l-17.49 4.44c-.6.15-1.18-.3-1.2-.93l1-7.34c.08-.55.29-.87.73-.98l19.06-4.96c.8-.2 1.41-.88 1.53-1.72l3.15-22.37c.06-.43.4-.76.82-.82l6.98-.96c.64-.09 1.18.47 1.09 1.12l-2.83 20.09c-.14.98.74 1.79 1.68 1.55l36.11-9.04c.63-.16 1.26.22 1.11 1.04l-1.06 7.26c-.11.57-.32.81-.73.91ZM325.01 69.2c-.6-.5-1.48-.68-2.63-.51-1 .14-1.85.48-2.54 1.01-.83.66-1.31 1.48-1.46 2.52-.17 1.15.34 1.78.78 2.1.39.29 1.03.53 1.96.73 1.43.33 2.18.76 2.11 1.21-.05.37-.26.71-.62 1.01-.42.35-.96.57-1.64.66-.89.12-1.36-.2-1.53-1.05a.645.645 0 0 0-.35-.44.67.67 0 0 0-.57.01l-.79.42c-.23.12-.37.38-.34.64.12.91.46 1.59 1.01 2.01.44.34 1.02.51 1.72.51.23 0 .47-.02.72-.05 1.08-.15 2.03-.54 2.83-1.15.93-.7 1.48-1.61 1.64-2.69.15-1.04-.14-1.85-.86-2.42-.44-.32-1.15-.59-2.18-.83-1.83-.41-1.83-.78-1.83-.78.11-.76.7-1.21 1.8-1.37.55-.08.97-.02 1.23.19.07.08.18.25.27.57a.637.637 0 0 0 .9.38l.84-.44c.26-.14.39-.44.32-.72-.18-.68-.44-1.17-.81-1.51ZM335.38 66.98l-.78.11a.66.66 0 0 0-.54.53l-.57 4.03-4.27.64.54-3.71a.616.616 0 0 0-.7-.7l-.79.11c-.27.04-.49.26-.53.53l-1.41 9.78c-.03.19.03.38.17.52.12.12.28.19.44.19h.09l.79-.11c.28-.04.5-.26.53-.53l.57-4.07 4.27-.64-.54 3.76a.616.616 0 0 0 .7.7l.79-.11c.28-.04.49-.25.53-.53l1.41-9.78a.596.596 0 0 0-.17-.52.613.613 0 0 0-.53-.18ZM343.66 66.35a.622.622 0 0 0-.69-.45l-.99.14c-.2.03-.38.15-.47.33l-5.32 10.34a.614.614 0 0 0 .55.9h.09l.78-.11c.2-.03.38-.15.47-.33l1.39-2.73 3.98-.59.58 2.2c.08.3.37.49.69.45l.9-.13a.61.61 0 0 0 .52-.77l-2.49-9.24Zm-.7 5.6-2.38.39 1.61-3.16.77 2.77ZM354.92 64.98c-.6-.5-1.48-.68-2.63-.51-1 .14-1.85.48-2.54 1.01-.83.66-1.31 1.48-1.46 2.52-.17 1.15.34 1.78.78 2.11.39.29 1.03.53 1.96.73 1.43.33 2.18.76 2.11 1.21-.05.37-.26.71-.62 1.01-.42.35-.96.57-1.64.66-.88.12-1.36-.2-1.53-1.05a.62.62 0 0 0-.34-.43.636.636 0 0 0-.57.01l-.8.42c-.23.12-.37.38-.33.64.12.91.46 1.59 1.01 2.01.44.34 1.02.51 1.72.51.23 0 .47-.02.72-.05 1.08-.15 2.03-.54 2.83-1.15.93-.7 1.48-1.6 1.64-2.69.15-1.04-.14-1.86-.86-2.42-.44-.32-1.15-.6-2.18-.83-1.83-.41-1.83-.78-1.83-.78.11-.76.7-1.21 1.8-1.37.55-.08.97-.02 1.23.19.07.08.18.25.27.57.05.18.18.32.36.39.18.08.37.07.54-.02l.84-.44c.26-.14.39-.44.32-.72-.18-.68-.44-1.17-.81-1.51ZM365.29 62.75l-.79.11c-.27.04-.49.25-.53.53l-.56 4.03-4.28.65.54-3.72a.596.596 0 0 0-.17-.52.643.643 0 0 0-.53-.18l-.79.11c-.28.04-.49.26-.53.53l-1.41 9.78c-.03.19.03.38.17.52.12.12.28.18.44.18h.09l.79-.11c.27-.04.49-.26.53-.53l.57-4.08 4.28-.65-.54 3.77c-.03.19.04.38.17.52.14.14.33.2.53.18l.79-.11c.27-.04.49-.26.53-.53l1.41-9.78a.596.596 0 0 0-.17-.52.613.613 0 0 0-.53-.18ZM376.06 71.37l-2.49-9.24a.617.617 0 0 0-.68-.45l-.99.14c-.2.03-.38.15-.47.33l-5.32 10.35c-.11.2-.09.45.04.63.12.16.3.26.5.26h.09l.79-.11c.2-.03.37-.15.47-.33l1.38-2.74 3.99-.6.59 2.21c.08.3.38.49.68.45l.91-.13c.18-.02.33-.12.43-.27.1-.15.13-.33.08-.5Zm-3.19-3.64-2.39.4 1.62-3.16.77 2.76ZM400.88 68.87c.06 0 .1-.05.11-.11l1.41-10.21a.133.133 0 0 0-.15-.15l-9.65 1.36c-.06 0-.1.05-.11.11l-1.42 10.29c-.01.09.06.16.15.15l9.66-1.44Zm-7.14-8.19 7.09-.99c.09-.01.16.06.15.15l-1.09 7.93c0 .06-.05.1-.11.11l-7.09.99a.133.133 0 0 1-.15-.15l1.09-7.93c0-.06.05-.1.11-.11" class="cls-1"/><path d="m397.7 62.39 1.75-.25c.06 0 .1-.05.11-.11l.22-1.59a.133.133 0 0 0-.15-.15l-4.85.68c-.06 0-.1.05-.11.11l-.22 1.59c-.01.09.06.16.15.15l1.5-.21c.09-.01.16.06.15.15v.05c-.02.06-.06.1-.12.11l-2.36.33c-.06 0-.1.05-.11.11l-.08.58c-.01.09.06.16.15.15l6.3-.89c.06 0 .1-.05.11-.11l.08-.58a.133.133 0 0 0-.15-.15l-2.33.33a.133.133 0 0 1-.15-.15v-.05c.01-.06.06-.1.12-.11m-1.89-.58.02-.17c0-.06.05-.1.11-.11l2.28-.32c.09-.01.16.06.15.15l-.02.17c0 .06-.05.1-.11.11l-2.28.32a.133.133 0 0 1-.15-.15M395.16 66.86l2.57-.36c.06 0 .1-.05.11-.11l.19-1.28a.133.133 0 0 0-.15-.15l-2.57.36c-.06 0-.1.05-.11.11l-.19 1.28c-.01.09.06.16.15.15m1.03-1.12.64-.09c.09-.01.16.06.15.15l-.03.14c0 .06-.05.1-.11.11l-.64.09a.133.133 0 0 1-.15-.15l.03-.14c0-.06.05-.1.11-.11" class="cls-1"/><path d="M399.25 67.44c.06 0 .1-.05.11-.11l.5-3.57a.133.133 0 0 0-.15-.15l-5.93.83c-.06 0-.1.05-.11.11l-.5 3.57c-.01.09.06.16.15.15l5.93-.83Zm-4.37-2.39 3.52-.49c.09-.01.16.06.15.15l-.28 1.94c0 .06-.05.1-.11.11l-3.52.49a.133.133 0 0 1-.15-.15l.28-1.94c0-.06.05-.1.11-.11M411.73 65.18c-.36-.13-.72-.26-1.08-.42-.3-.14-.59-.3-.86-.48a.15.15 0 0 1-.02-.22c.57-.6 1.09-1.25 1.56-1.94.49-.72.93-1.5 1.33-2.35.02-.04.06-.08.11-.08l1.42-.2c.06 0 .12-.06.12-.12l.14-1.02c.01-.1-.07-.18-.17-.17l-4.1.58c-.1.01-.18-.07-.17-.17l.18-1.32c.01-.1-.07-.18-.17-.16l-1.29.18c-.06 0-.12.06-.12.12l-.21 1.49c0 .06-.06.12-.12.12l-4.16.58c-.06 0-.12.06-.12.13l-.14 1.02c-.01.1.07.18.17.17l1.33-.19c.07-.01.14.04.16.11.18.74.43 1.39.76 1.95.32.56.57.92.96 1.4.05.06.04.15-.02.21a19.95 19.95 0 0 1-4.58 2.82c-.08.04-.11.13-.07.2l.63 1.12c.04.07.12.1.19.06.93-.47 1.81-.96 2.62-1.49.82-.52 1.57-1.08 2.26-1.66.05-.04.13-.05.18 0 .25.18.53.36.83.53.34.19.7.36 1.08.52.38.16.76.3 1.15.42.36.11.72.21 1.08.29.06.01.12-.01.15-.06l.68-1.27c.06-.09 0-.21-.09-.23-.24-.04-.91-.2-1.64-.46m-3.05-2c-.06.06-.16.06-.22 0-.28-.33-.54-.7-.79-1.1-.25-.41-.45-.89-.6-1.44-.02-.08.04-.17.12-.18l3.39-.48c.12-.02.2.11.15.21-.31.63-.64 1.18-.98 1.66-.35.49-.71.93-1.08 1.33M425.87 55.38l-9.48 1.33c-.06 0-.12.06-.12.12l-.14.99c-.01.1.07.18.17.17l3.81-.54c.12-.02.21.12.14.23-.59.91-1.27 1.78-2.15 2.64-.94.91-2.03 1.74-3.24 2.56-.07.04-.08.13-.04.2l.67.84c.04.07.14.09.21.04.78-.53 1.49-1.06 2.13-1.59.56-.46 1.08-.94 1.57-1.44.1-.1.27-.02.25.12l-.71 5.12c-.01.1.07.18.17.17l1.21-.17c.06 0 .12-.06.12-.12l.8-5.8c.02-.14.17-.2.28-.12.44.32.94.69 1.33 1.01.51.42.97.82 1.53 1.29.06.05.15.05.2 0l.81-.83c.06-.06.06-.16-.01-.22-1.13-.9-2.79-2.18-3.65-2.79a.32.32 0 0 1-.08-.44c.18-.27.34-.53.51-.81.06-.11.17-.18.3-.2l3.31-.47c.06 0 .12-.06.12-.12l.14-.99c.01-.1-.07-.18-.17-.17M433.5 61.68c-.07-.13-.13-.25-.18-.37-.07-.15-.14-.3-.22-.44-.07-.14-.15-.27-.23-.41-.06-.1-.12-.2-.19-.3-.04-.07-.13-.08-.2-.04l-.94.59c-.07.04-.09.13-.05.2.17.27.3.53.41.78.11.23.22.48.32.74.03.09.14.13.22.08l1.01-.64c.06-.04.09-.12.05-.19" class="cls-1"/><path d="m437.76 57.74-.93.13c-.1.01-.18-.07-.17-.17l.22-1.55c.01-.1-.07-.18-.17-.17l-1.11.15c-.06 0-.12.06-.12.13l-.24 1.71c0 .06-.06.12-.12.13l-3.69.52c-.06 0-.12.06-.12.12l-.13.93c-.01.1.07.18.17.17l3.53-.5c.1-.01.18.07.17.17l-.4 2.88c-.04.27-.28.33-.28.33l-1.49.22c-.09 0-.16.08-.15.16l.13 1.04c0 .07.07.13.15.13l2.34-.35s.52-.09.67-1.47l.44-3.23c0-.06.06-.12.12-.12l1.1-.15c.06 0 .12-.06.12-.13l.13-.93c.01-.1-.07-.18-.17-.17" class="cls-1"/><path d="m438.23 54.02-2.7.38c-.11.02-.2-.1-.15-.2.02-.05.04-.1.06-.14.02-.06.05-.12.08-.19.04-.1-.03-.2-.13-.2l-1.13-.03c-.06 0-.12.03-.14.09-.09.23-.2.49-.34.79-.08.17-.17.34-.27.52-.08.14-.29.07-.27-.09v-.04c.02-.1-.06-.18-.16-.16l-2.04.29c-.12.02-.21-.11-.15-.22.04-.08.09-.16.12-.24.04-.09-.02-.2-.12-.21l-1.1-.1c-.06 0-.11.02-.14.08-.28.52-.62 1.03-1.01 1.54-.38.5-.8.96-1.25 1.38-.06.06-.06.15 0 .21l.65.71c.06.06.15.06.21 0 .24-.24.5-.49.75-.77.04-.04.08-.08.12-.13.08-.09.24-.07.29.04l.14.28c.03.05.03.12 0 .17-.25.42-.51.85-.83 1.28-.47.64-1.02 1.32-1.73 2.01-.04.04-.06.1-.04.16l.4.95c.04.1.15.12.24.06.23-.16.46-.41.64-.59.05-.05.13 0 .12.06l-.04.27-.42 2.94c-.01.1.07.18.17.17l1.15-.15c.06 0 .12-.06.12-.13l.73-5.31s.01-.04.02-.06c.38-.54.73-1.12 1.06-1.74.02-.04.02-.09 0-.13l-.5-1.03c-.05-.11.02-.24.14-.26l.89-.12.86-.12c.13-.02.22.13.14.24-.13.16-.26.32-.4.48-.06.07-.05.17.03.22l.83.53c.06.04.14.03.19-.03.48-.55.89-1.1 1.24-1.67.02-.04.06-.06.1-.07l.24-.03 1.56-.22 1.67-.23c.06 0 .12-.06.12-.13l.13-.92c.01-.1-.07-.18-.17-.17M327.87 49.56c-.6-.5-1.49-.67-2.63-.51-1 .14-1.85.48-2.54 1.01-.83.66-1.31 1.48-1.46 2.52-.13.92.13 1.63.78 2.11.39.29 1.04.53 1.96.72 1.43.33 2.18.76 2.11 1.21-.05.37-.26.71-.62 1.01-.43.35-.96.57-1.64.66-.87.12-1.35-.19-1.53-1.03a.597.597 0 0 0-.36-.44.656.656 0 0 0-.58.01l-.77.41c-.24.12-.37.38-.34.64.12.91.46 1.59 1.01 2.01.44.34 1.02.51 1.72.51.23 0 .47-.02.72-.05 1.08-.15 2.03-.54 2.83-1.15.93-.7 1.48-1.61 1.64-2.69.15-1.04-.13-1.86-.86-2.42-.44-.32-1.15-.59-2.18-.83-1.83-.41-1.83-.78-1.83-.78.11-.76.7-1.21 1.8-1.37.55-.08.97-.02 1.23.19.07.08.18.25.27.57.05.18.18.32.36.39.17.07.37.06.54-.02l.83-.44c.26-.14.39-.44.32-.72-.18-.67-.44-1.17-.81-1.51ZM332.86 48.09l-.84.12c-.27.04-.48.25-.52.52l-1.42 9.81c-.03.19.03.38.17.51.12.12.27.18.43.18h.09l.84-.12c.27-.04.49-.25.52-.52l1.42-9.81a.568.568 0 0 0-.17-.51.596.596 0 0 0-.52-.17ZM346.61 46.15l-1.33.19c-.18.03-.35.14-.43.31l-4.1 8.08-1.82-6.99a.565.565 0 0 0-.63-.42l-1.38.19c-.25.03-.45.23-.49.48l-1.43 9.9c-.03.18.03.35.16.48.11.11.25.17.4.17h.08l.89-.13c.25-.03.45-.23.48-.48l.86-5.93 1.47 5.52c.07.28.34.46.63.41l.98-.14a.61.61 0 0 0 .43-.3l3.2-6.26-.79 5.44c-.03.18.03.35.16.48s.3.19.48.16l.89-.13c.25-.03.45-.23.48-.48l1.43-9.9a.54.54 0 0 0-.16-.48.54.54 0 0 0-.48-.16ZM353.14 45.23l-3.22.45c-.37.05-.66.34-.72.71l-1.35 9.35a.834.834 0 0 0 .82.95h.12l.34-.05c.37-.05.66-.34.72-.71l.54-3.73c.01-.08.08-.15.17-.16l1.82-.26c1.07-.15 1.99-.55 2.75-1.18.81-.68 1.29-1.54 1.44-2.54.15-1.06-.12-1.86-.81-2.39-.64-.44-1.52-.59-2.62-.43Zm1.33 2.93c-.13.93-.77 1.44-2.02 1.61l-1.49.21c-.06 0-.12-.01-.16-.05a.177.177 0 0 1-.05-.15l.31-2.13c.01-.08.08-.15.16-.16l1.79-.25c.65-.09 1.11-.03 1.32.18.14.15.19.39.14.74ZM363.88 52.56l-4.44.67 1.19-8.26a.596.596 0 0 0-.17-.52.613.613 0 0 0-.53-.18l-.79.11c-.27.04-.49.26-.53.53l-1.41 9.78c-.03.19.03.38.17.52.12.12.28.18.44.18h.09l6.05-.85c.27-.04.49-.26.53-.53l.11-.76a.596.596 0 0 0-.17-.52.643.643 0 0 0-.53-.18ZM373.51 42.36l-5.72.81c-.27.04-.49.25-.53.53l-1.41 9.79c-.03.19.03.38.17.52.12.12.27.18.44.18h.09l5.72-.81c.27-.04.49-.25.53-.53l.11-.76a.596.596 0 0 0-.17-.52.643.643 0 0 0-.53-.18l-4.12.63.36-2.65 3.93-.55c.27-.04.49-.25.53-.53l.11-.76a.627.627 0 0 0-.17-.52.643.643 0 0 0-.53-.18l-3.56.55.33-2.41 4.49-.63c.27-.04.49-.25.53-.53l.11-.76a.627.627 0 0 0-.17-.52.643.643 0 0 0-.53-.18ZM378.16 41.7l-.83.12c-.27.04-.49.25-.53.52l-1.41 9.79c-.03.19.03.38.17.52.12.12.27.18.44.18h.09l.83-.12c.27-.04.49-.25.53-.52l1.41-9.79a.596.596 0 0 0-.17-.52.603.603 0 0 0-.53-.18ZM389.7 40.07l-.79.11c-.27.04-.49.26-.53.53l-.99 6.86-3.36-6.29a.61.61 0 0 0-.64-.32l-1.11.16c-.27.04-.49.26-.53.53l-1.41 9.79c-.03.19.03.38.17.52.12.12.28.18.44.18h.09l.79-.11c.27-.04.49-.26.53-.53l.99-6.87 3.36 6.29c.12.23.37.36.64.32l1.11-.16c.27-.04.49-.25.53-.53l1.41-9.79a.596.596 0 0 0-.17-.52.643.643 0 0 0-.53-.18ZM398.58 38.8l-5.66.8c-.27.04-.49.25-.53.52l-1.42 9.81c-.03.19.04.38.17.52.12.12.27.18.44.18h.09l.79-.11c.27-.04.49-.25.53-.52l.58-4.19 3.84-.54c.27-.04.49-.25.53-.52l.11-.77a.627.627 0 0 0-.17-.52.607.607 0 0 0-.53-.17l-3.47.54.35-2.42 4.42-.62c.27-.04.49-.25.53-.52l.11-.77a.627.627 0 0 0-.17-.52.633.633 0 0 0-.53-.18ZM408.59 39.01c-.72-1.05-1.84-1.47-3.3-1.27-1.43.2-2.66.93-3.65 2.15-.92 1.12-1.5 2.49-1.73 4.05-.23 1.6-.02 2.89.62 3.82.58.88 1.45 1.32 2.59 1.32.23 0 .46-.02.71-.05 1.43-.2 2.65-.93 3.65-2.15.92-1.14 1.5-2.51 1.73-4.06.23-1.57.01-2.85-.63-3.81Zm-1.46 3.92c-.16 1.12-.55 2.07-1.14 2.82-.58.73-1.25 1.14-2.03 1.25-.74.1-1.27-.1-1.61-.64-.38-.56-.49-1.41-.33-2.52.16-1.12.54-2.06 1.12-2.8.57-.71 1.26-1.13 2.04-1.24.12-.02.23-.02.34-.02.55 0 .97.21 1.27.65.38.58.49 1.42.33 2.51ZM15.47 86.06l-7.35 15.78c-.45.82-1.44 1.26-2.14.97l-5.36-2.2c-.64-.26-.8-1.04-.39-1.78l6.94-14.32c.34-.84 1.27-1.41 2.04-1.25l5.57 1.16c.7.15 1.01.86.7 1.63ZM39.27 40.13l.8-5.61c.11-.8.87-1.54 1.68-1.65l6.65-.9c.82-.11 1.38.45 1.27 1.25l-.8 5.61c-.11.8.45 1.36 1.27 1.25l26.49-3.58c.82-.11 1.38.45 1.27 1.25l-.84 5.85c-.11.8-.87 1.54-1.68 1.65l-26.49 3.58c-.82.11-1.57.85-1.68 1.65l-1.12 7.78c-.11.8.45 1.36 1.27 1.25l17.42-2.34c.82-.11 1.38.45 1.27 1.25l-.84 5.85c-.11.8-.87 1.54-1.68 1.65l-47.61 6.41c-.82.11-1.38-.45-1.27-1.25l.84-5.85c.11-.8.87-1.54 1.68-1.65l17.63-2.37c.82-.11 1.57-.85 1.68-1.65l1.12-7.78c.11-.8-.45-1.36-1.27-1.25l-26.17 3.54c-.82.11-1.38-.45-1.27-1.25l.84-5.85c.11-.8.87-1.54 1.68-1.65l26.17-3.54c.82-.11 1.57-.85 1.68-1.65ZM27.13 78.85c.82-.11 1.38.45 1.27 1.25l-1.82 12.68c-.3 2.09.19 3.05 1.44 2.95.53.09 1.31.06 2.35-.08 8.25-1.12 13.12-1.93 14.59-2.45 1.73-.71 2.89-1.73 3.47-3.07.51-.57 1.12-2.18 1.79-4.79.27-1.06 1.54-1.81 2.38-1.39l5.61 2.79c.46.23.66.76.49 1.35-1.59 5.54-3.58 9.11-6.06 10.98-.1.08-.2.14-.31.2-1.68.9-3.99 1.67-6.88 2.36-1.95.58-7.46 1.56-16.35 2.76-2.3.31-4.34.43-6.05.42-5.06.53-7.1-2.03-6.3-7.65l2.27-15.81c.11-.8.87-1.54 1.68-1.65l6.41-.87Z" class="cls-1"/><path d="m45.72 84.2-6.33 4.3c-.82.55-1.75.39-2.02-.34l-4.88-9.02c-.44-.61-.14-1.61.67-2.17l6.02-4.18c.68-.48 1.5-.46 1.89.04l5.47 9.4c.26.62-.1 1.49-.82 1.97ZM73.11 91l-7.36 4.32c-.87.51-1.78.23-1.94-.58l-4.97-15.83c-.3-.66.1-1.59.89-2.07l6.53-3.93c.74-.44 1.56-.33 1.87.26l5.97 15.92c.17.66-.26 1.48-.98 1.91ZM116.77 37.25l-.79 5.62c-.11.8-.86 1.53-1.67 1.64l-6.66.92c-.81.11-1.56.85-1.67 1.64l-6.2 44.13c-.11.8-.86 1.53-1.67 1.64l-5.39.74c-.81.11-1.38-.44-1.27-1.24l6.2-44.13c.11-.8-.46-1.35-1.27-1.24l-6.98.96c-.81.11-1.38-.44-1.27-1.24l.79-5.62c.11-.8.86-1.53 1.67-1.64L115.51 36c.81-.11 1.38.44 1.27 1.24ZM116.09 26.04l-.78 5.54c-.11.8-.86 1.53-1.67 1.64l-20 2.76c-.81.11-1.38-.44-1.27-1.24l.78-5.54c.11-.8.86-1.53 1.67-1.64l20-2.76c.81-.11 1.38.44 1.27 1.24Z" class="cls-1"/><path d="m116.1 50.04-4.27 30.41c-.11.8-.86 1.53-1.67 1.64l-4.76.66c-.81.11-1.38-.44-1.27-1.24l4.27-30.41c.11-.8.86-1.53 1.67-1.64l4.76-.66c.81-.11 1.38.44 1.27 1.24ZM94.1 52.88l-4.27 30.41c-.11.8-.86 1.53-1.67 1.64l-4.76.66c-.81.11-1.38-.44-1.27-1.24l4.27-30.41c.11-.8.86-1.53 1.67-1.64l4.76-.66c.81-.11 1.38.44 1.27 1.24ZM156.43 64.54l-2.38.32c-.81.11-1.38-.44-1.27-1.22l4.14-29.02c.11-.78.86-1.51 1.67-1.62l2.06-.28c.81-.11 1.56-.84 1.67-1.62l.73-5.14c.11-.78-.46-1.33-1.27-1.22l-2.06.28c-.81.11-1.38-.44-1.27-1.22l.84-5.86c.11-.78-.46-1.33-1.27-1.22l-5.71.78c-.81.11-1.56.84-1.67 1.62l-.84 5.86c-.11.78-.86 1.51-1.67 1.62l-10.71 1.45c-.81.11-1.38-.44-1.27-1.22l.84-5.86c.11-.78-.46-1.33-1.27-1.22l-5.71.78c-.81.11-1.56.84-1.67 1.62l-.84 5.86c-.11.78-.86 1.51-1.67 1.62l-2.06.28c-.81.11-1.56.84-1.67 1.62l-.73 5.14c-.11.78.46 1.33 1.27 1.22l2.06-.28c.81-.11 1.38.44 1.27 1.22l-4.14 29.02c-.11.78-.86 1.51-1.67 1.62l-1.74.24c-.81.11-1.56.84-1.67 1.62l-.73 5.14c-.11.78.46 1.33 1.27 1.22l4.72-.64c1.33-.18 1.76 1.31.66 2.32l-7.62 6.18c-.87.62-1.09 1.74-.47 2.25l3.95 3.25c.45.37 1.21.31 1.82-.16l11.06-10.25c.67-.73.65-1.71-.04-2.07l-.34-.18c-1.14-.59-.32-2.53 1.16-2.73l7.75-1.05c1.49-.2 1.76 1.61.39 2.53-.77.52-1.12 1.46-.75 2.06l7.38 8.29c.49.37 1.3.26 1.91-.27l4.73-4.06c.82-.71.92-1.46.18-2.23l-4.73-5.28c-.65-.82.23-2.31 1.47-2.48l4.79-.65c.81-.11 1.56-.84 1.67-1.62l.73-5.14c.11-.78-.46-1.33-1.27-1.22Zm-12.3.28c-.11.78-.86 1.51-1.67 1.62l-10.71 1.45c-.81.11-1.38-.44-1.27-1.22l.4-2.77c.11-.78.86-1.51 1.67-1.62l10.71-1.45c.81-.11 1.38.44 1.27 1.22l-.4 2.77Zm1.9-13.28c-.11.78-.86 1.51-1.67 1.62l-10.71 1.45c-.81.11-1.38-.44-1.27-1.22l.4-2.77c.11-.78.86-1.51 1.67-1.62l10.71-1.45c.81-.11 1.38.44 1.27 1.22l-.4 2.77Zm1.89-13.28c-.11.78-.86 1.51-1.67 1.62l-10.71 1.45c-.81.11-1.38-.44-1.27-1.22l.35-2.46c.11-.78.86-1.51 1.67-1.62L147 34.58c.81-.11 1.38.44 1.27 1.22l-.35 2.46ZM385.09 60.24l-.17-.02c-.21-.03-.4.02-.57.15-.16.12-.27.3-.3.5l-1.34 9.53c-.06.42.23.8.65.86l.17.02h.11c.16 0 .32-.05.46-.15.16-.12.27-.3.3-.5l1.34-9.53c.06-.42-.23-.8-.65-.86Z" class="cls-1"/></g></svg>
</svg>