<svg xmlns="http://www.w3.org/2000/svg" width="600" height="400" viewBox="0 0 600 400">
    <title>SITCON with padding</title>
    <svg xmlns="http://www.w3.org/2000/svg" xmlns:svg="http://www.w3.org/2000/svg" version="1.1" id="svg1" viewBox="0 0 327.07282 92.925919" x="50" y="128.89908256880733" width="500" height="142.2018348623853">
  <defs id="defs1"/>
  <g id="layer-MC0" transform="translate(-46.782,-63.590229)">
    <path id="path1" d="m 0,0 c -0.72,6.283 -4.68,9.357 -11.953,9.357 -6.408,0 -10.513,-2.595 -10.513,-6.556 0,-3.347 2.521,-5.327 8.641,-6.625 l 7.777,-1.64 c 5.689,-1.229 8.569,-2.39 10.872,-4.371 2.521,-2.117 3.889,-5.19 3.889,-8.742 0,-8.606 -7.345,-13.933 -19.01,-13.933 -12.457,0 -19.945,6.01 -20.953,16.938 h 7.128 c 0.721,-7.24 5.761,-11.269 14.041,-11.269 6.913,0 11.81,3.21 11.81,7.786 0,3.415 -2.593,5.668 -7.633,6.829 l -10.801,2.459 c -8.785,1.981 -12.745,5.669 -12.745,11.816 0,7.991 6.984,13.045 18.002,13.045 C -0.432,15.094 5.473,10.245 6.985,0 Z" style="fill:#77b45a;fill-opacity:1;fill-rule:nonzero;stroke:none" transform="matrix(1.3333333,0,0,-1.3333333,88.448667,112.3688)"/>
    <path id="path2" d="m 90.886,116.726 h -6.841 v 45.555 h 6.841 z" style="fill:#77b45a;fill-opacity:1;fill-rule:nonzero;stroke:none" transform="matrix(1.3333333,0,0,-1.3333333,0,309.984)"/>
    <path id="path3" d="m 0,0 h -6.841 v 39.887 h -14.977 v 5.668 H 14.978 V 39.887 H 0 Z" style="fill:#77b45a;fill-opacity:1;fill-rule:nonzero;stroke:none" transform="matrix(1.3333333,0,0,-1.3333333,159.29493,154.3492)"/>
    <path id="path4" d="m 0,0 c -1.44,6.011 -6.265,9.631 -12.889,9.631 -9.216,0 -15.265,-7.104 -15.265,-17.826 0,-10.996 6.049,-18.441 15.049,-18.441 7.489,0 12.673,4.781 13.753,12.703 h 6.913 c -0.577,-4.507 -1.657,-7.376 -4.105,-10.586 -3.96,-5.19 -9.505,-7.786 -16.705,-7.786 -7.129,0 -12.817,2.596 -16.85,7.786 -3.456,4.44 -5.256,9.972 -5.256,16.187 0,13.864 9.289,23.631 22.466,23.631 10.225,0 17.497,-5.464 19.585,-14.684 z" style="fill:#77b45a;fill-opacity:1;fill-rule:nonzero;stroke:none" transform="matrix(1.3333333,0,0,-1.3333333,230.43173,112.64213)"/>
    <path id="path5" d="m 0,0 -19.657,28.754 c -2.377,3.551 -3.817,5.805 -4.969,7.853 0.144,-2.048 0.216,-6.351 0.216,-8.605 V 0 h -6.481 v 45.555 h 6.985 L -5.04,17.826 C -3.24,15.23 -0.792,11.133 0.648,8.4 0.504,10.928 0.432,13.728 0.432,16.937 V 45.282 H 6.913 V 0 Z" style="fill:#77b45a;fill-opacity:1;fill-rule:nonzero;stroke:none" transform="matrix(1.3333333,0,0,-1.3333333,364.63747,154.3492)"/>
    <path id="path6" d="m 0,0 c 4.056,3.102 8.876,1.957 8.876,1.957 0,0 -0.805,-5.762 -4.861,-8.864 -4.057,-3.102 -9.828,-2.368 -9.828,-2.368 0,0 1.255,1.901 2.512,4.375 0.735,1.445 1.805,3.756 3.301,4.9" style="fill:#77b45a;fill-opacity:1;fill-rule:nonzero;stroke:none" transform="matrix(1.3333333,0,0,-1.3333333,292.30907,66.474933)"/>
    <path id="path7" d="m 0,0 c -1.894,1.448 -4.145,0.914 -4.145,0.914 0,0 0.376,-2.691 2.27,-4.139 1.894,-1.449 4.589,-1.106 4.589,-1.106 0,0 -0.586,0.888 -1.173,2.043 C 1.198,-1.613 0.698,-0.534 0,0" style="fill:#77b45a;fill-opacity:1;fill-rule:nonzero;stroke:none" transform="matrix(1.3333333,0,0,-1.3333333,279.3296,72.732267)"/>
    <path id="path8" d="M 0,0 C 0.554,0 1.108,-0.025 1.661,-0.061 1.167,2.887 1.264,5.956 2.779,8.593 0.128,6.458 -1.163,3.189 -1.831,-0.074 -1.222,-0.03 -0.611,0 0,0" style="fill:#77b45a;fill-opacity:1;fill-rule:nonzero;stroke:none" transform="matrix(1.3333333,0,0,-1.3333333,279.9428,91.046267)"/>
    <path id="path9" d="M 0,0 -9.83,6.765 -19.659,0 -12.894,9.83 -19.659,19.659 -9.83,12.894 0,19.659 -6.765,9.83 Z m -9.83,33.887 c -13.286,0 -24.057,-10.771 -24.057,-24.057 0,-13.287 10.771,-24.058 24.057,-24.058 13.287,0 24.058,10.771 24.058,24.058 0,13.286 -10.771,24.057 -24.058,24.057" style="fill:#77b45a;fill-opacity:1;fill-rule:nonzero;stroke:none" transform="matrix(1.3333333,0,0,-1.3333333,293.0492,137.54547)"/>
  </g>
</svg>
</svg>