<svg xmlns="http://www.w3.org/2000/svg" width="600" height="400" viewBox="0 0 600 400">
    <title>path1 with padding</title>
    <svg xmlns="http://www.w3.org/2000/svg" xmlns:svg="http://www.w3.org/2000/svg" viewBox="0 0 228.33174 26.609043" version="1.1" id="svg1" xml:space="preserve" x="50" y="170.74159907300117" width="500" height="58.516801853997684"><defs id="defs1"/><g id="layer-MC0" transform="matrix(0.26458332,0,0,0.26458334,-24.310374,-42.231525)"><path id="path1" d="m 0,0 -8.912,-10.594 16.75,-19.919 c 1.349,-1.608 3.282,-2.438 5.225,-2.438 1.545,0 3.107,0.525 4.384,1.602 2.882,2.427 3.251,6.727 0.827,9.61 z" style="fill:#000000;fill-opacity:1;fill-rule:nonzero;stroke:none" transform="matrix(1.3333333,0,0,-1.3333333,343.24867,216.22867)"/><path id="path2" d="m 0,0 h -31.496 l 17.638,23.993 19.019,25.881 c 2.234,3.034 1.582,7.304 -1.453,9.538 -1.134,0.831 -2.438,1.245 -3.747,1.3 h -44.609 c -3.512,0 -6.359,-2.851 -6.359,-6.361 0,-3.514 2.847,-6.361 6.359,-6.361 h 31.495 L -30.788,23.993 -49.812,-1.885 c -2.228,-3.036 -1.578,-7.304 1.461,-9.535 1.129,-0.835 2.434,-1.248 3.741,-1.304 H 0 c 3.512,0 6.362,2.849 6.362,6.361 C 6.362,-2.849 3.512,0 0,0" style="fill:#000000;fill-opacity:1;fill-rule:nonzero;stroke:none" transform="matrix(1.3333333,0,0,-1.3333333,160.0624,241.90573)"/><path id="path3" d="m 0,0 h -27.962 v 54.855 c 0,3.771 -3.053,6.823 -6.817,6.823 -3.771,0 -6.823,-3.052 -6.823,-6.823 V -5.899 c 0,-0.081 0.018,-0.158 0.021,-0.234 -0.003,-0.08 -0.021,-0.151 -0.021,-0.23 0,-3.514 2.85,-6.361 6.362,-6.361 H 0 c 3.509,0 6.359,2.847 6.359,6.361 C 6.359,-2.849 3.509,0 0,0" style="fill:#000000;fill-opacity:1;fill-rule:nonzero;stroke:none" transform="matrix(1.3333333,0,0,-1.3333333,535.832,241.9096)"/><path id="path4" d="m 0,0 h -28.403 v 18.479 h 18.889 c 3.508,0 6.362,2.849 6.362,6.363 0,3.514 -2.854,6.362 -6.362,6.362 H -28.403 V 47.99 H 0 c 3.512,0 6.361,2.847 6.361,6.361 0,3.51 -2.849,6.361 -6.361,6.361 h -35.683 c -3.511,0 -6.361,-2.851 -6.361,-6.361 V -6.363 c 0,-3.512 2.85,-6.361 6.361,-6.361 H 0 c 3.512,0 6.361,2.849 6.361,6.361 C 6.361,-2.849 3.512,0 0,0" style="fill:#000000;fill-opacity:1;fill-rule:nonzero;stroke:none" transform="matrix(1.3333333,0,0,-1.3333333,450.31893,241.90573)"/><path id="path5" d="m 0,0 c 2.424,2.884 2.055,7.187 -0.824,9.609 -1.28,1.077 -2.842,1.603 -4.388,1.603 -1.942,0 -3.876,-0.83 -5.225,-2.436 l -16.75,-19.917 8.913,-10.595 z" style="fill:#000000;fill-opacity:1;fill-rule:nonzero;stroke:none" transform="matrix(1.3333333,0,0,-1.3333333,367.61453,174.56453)"/><path id="path6" d="m 0,0 c -0.024,0.029 -0.043,0.062 -0.066,0.094 l -4.867,5.787 c -1.351,1.605 -3.28,2.435 -5.222,2.435 -1.552,0 -3.109,-0.526 -4.387,-1.602 -2.886,-2.422 -3.255,-6.726 -0.832,-9.61 L 6.901,-29.391 -15.374,-55.883 c -2.423,-2.886 -2.054,-7.182 0.832,-9.609 1.278,-1.077 2.835,-1.603 4.387,-1.603 1.942,0 3.871,0.83 5.222,2.435 l 4.867,5.791 c 0.023,0.031 0.042,0.061 0.066,0.097 l 24.708,29.381 z" style="fill:#000000;fill-opacity:1;fill-rule:nonzero;stroke:none" transform="matrix(1.3333333,0,0,-1.3333333,304.9544,170.70387)"/><path id="path7" d="m 0,0 c -3.126,2.102 -7.364,1.273 -9.462,-1.856 l -12.498,-18.588 -6.823,-10.15 -6.819,10.15 -12.505,18.588 c -2.095,3.129 -6.334,3.958 -9.46,1.856 -3.127,-2.102 -3.958,-6.338 -1.855,-9.464 l 23.82,-35.434 v -17.764 -4.776 c 0,-3.77 3.052,-6.825 6.819,-6.825 3.767,0 6.823,3.055 6.823,6.825 v 4.776 17.764 L 1.859,-9.464 C 3.958,-6.338 3.128,-2.102 0,0" style="fill:#000000;fill-opacity:1;fill-rule:nonzero;stroke:none" transform="matrix(1.3333333,0,0,-1.3333333,263.45307,161.16747)"/><path id="path8" d="M 0,0 C 3.287,3.438 5.689,7.357 7.13,11.732 H 0.531 v 2.15 H 7.99 v 3.59 h 2.15 v -3.59 h 2.275 v -2.15 H 10.14 V -3.085 c 0,-1.946 -1.543,-2.73 -3.566,-2.73 -1.112,0 -2.453,0.202 -4.046,0.606 v 2.226 l 2.503,-0.582 1.645,-0.152 c 0.176,0 1.314,0.126 1.314,1.189 V 8.218 C 6.245,4.323 4.197,1.162 1.896,-1.163 Z m -1.871,-5.74 c -0.759,1.543 -1.518,2.807 -2.226,3.692 l 1.846,1.036 c 0.81,-1.036 1.568,-2.351 2.276,-3.817 z M -2.934,4.678 H -7.889 V 1.871 l 0.076,-0.1 h 4.779 c 0.076,0 0.1,0.024 0.1,0.1 z m -4.955,2.048 h 4.955 v 2.983 h -4.955 z m 0,5.032 h 4.955 v 2.908 l -0.1,0.075 H -7.813 L -7.889,14.666 Z M -0.885,0.025 c 0,-0.202 -0.101,-0.303 -0.303,-0.303 h -8.471 c -0.177,0 -0.279,0.101 -0.279,0.303 v 16.461 c 0,0.202 0.102,0.303 0.279,0.303 h 8.471 c 0.202,0 0.303,-0.101 0.303,-0.303 z m -10.038,-4.703 c 1.111,1.593 1.896,2.933 2.352,4.021 L -6.65,-1.72 c -0.532,-1.239 -1.34,-2.629 -2.453,-4.121 z" style="fill:#000000;fill-opacity:1;fill-rule:nonzero;stroke:none" transform="matrix(1.3333333,0,0,-1.3333333,587.43227,251.02947)"/><path id="path9" d="m 0,0 0.607,0.506 h -4.5 v -1.037 l 4.273,0.127 z m -3.893,2.883 v -0.91 h 4.424 l 0.076,0.1 v 0.81 z m 0,2.275 V 4.35 h 4.5 V 5.083 L 0.531,5.158 Z M 0.835,-5.058 v -0.985 c 0,-1.188 -0.657,-1.922 -1.693,-2.301 h 4.93 V 9.634 c 0,0.178 -0.102,0.278 -0.304,0.278 H -3.893 V 9.027 H 2.908 V 7.484 H -3.893 V 6.625 h 6.119 c 0.176,0 0.253,-0.075 0.253,-0.228 V 0.759 C 2.479,0.506 2.402,0.506 1.947,0.506 2.529,-0.127 3.136,-0.936 3.768,-1.896 l -1.39,-1.063 -0.633,0.86 -0.91,-0.076 v -1.138 h 2.681 v -1.745 z m -8.951,0 c 0.607,-0.53 1.238,-1.213 1.971,-2.047 l -1.339,-1.239 h 5.285 l -1.72,0.354 v 2.023 c 0.683,-0.202 1.669,-0.456 2.149,-0.456 0.152,0 0.279,0.076 0.431,0.228 0.227,0.177 0.227,0.38 0.227,1.137 z m 2.276,7.031 v 0.91 h -4.526 v -0.81 l 0.05,-0.1 z m 0,2.377 v 0.808 h -4.476 c -0.05,-0.075 -0.05,-0.151 -0.05,-0.808 z M -7.585,-8.344 c -0.81,0.986 -1.518,1.719 -2.149,2.199 l 1.062,1.087 h -4.248 v 1.745 h 11.808 v 1.087 l -11.227,-0.429 -0.202,1.872 6.701,0.176 v 1.113 h -6.171 c -0.151,0 -0.202,0.076 -0.202,0.253 v 5.638 c 0,0.153 0.051,0.228 0.202,0.228 h 6.171 v 0.859 h -6.878 v 1.543 h 6.878 v 0.885 h -7.713 c -0.202,0 -0.302,-0.1 -0.278,-0.278 V -8.344 Z m -6.246,-1.846 v -1.011 h -2.048 v 22.276 c 0,0.455 0.228,0.683 0.658,0.683 H 5.437 c 0.456,0 0.682,-0.228 0.682,-0.708 V -11.201 H 4.072 v 1.011 z" style="fill:#000000;fill-opacity:1;fill-rule:nonzero;stroke:none" transform="matrix(1.3333333,0,0,-1.3333333,638.77987,243.91613)"/><path id="path10" d="m 0,0 -14.538,-1.341 -0.632,2.2 2.705,0.203 c 1.568,2.604 3.034,5.436 4.349,8.445 h -5.462 v 2.149 h 6.474 v 4.552 h -6.069 v 2.149 h 6.069 v 3.211 h 2.149 V 18.357 H 1.568 V 16.208 H -4.955 V 11.656 H 2.454 V 9.507 H -5.765 C -6.725,7.206 -8.065,4.475 -9.86,1.289 l 8.951,0.733 c -0.81,1.644 -1.594,3.01 -2.301,4.097 l 1.896,1.036 C 0.102,5.082 1.467,2.402 2.757,-0.86 L 0.784,-1.82 Z m -15.499,16.31 c -1.82,1.466 -3.313,2.527 -4.552,3.16 l 1.189,1.821 c 1.416,-0.733 2.932,-1.821 4.653,-3.212 z m -0.657,-6.121 c -1.695,1.265 -3.111,2.175 -4.274,2.732 l 1.113,1.846 c 1.315,-0.632 2.781,-1.543 4.375,-2.782 z m -4.527,-10.948 c 2.2,2.63 3.692,5.589 4.425,8.901 l 2.099,-0.506 c -1.112,-4.172 -2.629,-7.333 -4.476,-9.456 z" style="fill:#000000;fill-opacity:1;fill-rule:nonzero;stroke:none" transform="matrix(1.3333333,0,0,-1.3333333,688.10667,256.35627)"/><path id="path11" d="M 0,0 C -3.211,3.312 -5.461,6.953 -6.65,10.949 -8.293,4.956 -11.05,0.733 -16.536,-2.933 l -1.669,1.619 c 6.7,3.792 10.215,10.543 10.418,20.228 v 1.39 h 2.225 v -2.351 h 0.025 C -5.486,12.415 -4.021,5.766 4.981,-1.618 L 3.086,-2.983 Z" style="fill:#000000;fill-opacity:1;fill-rule:nonzero;stroke:none" transform="matrix(1.3333333,0,0,-1.3333333,728.83587,254.80547)"/><path id="path12" d="m 0,0 h 12.972 v 5.133 c 0,0.227 -0.102,0.329 -0.329,0.329 H 0.328 C 0.075,5.462 -0.025,5.335 0,5.133 Z M -0.86,12.111 H 13.68 V 9.861 H -0.86 Z M 0,-2.149 V -3.263 H -2.226 V 6.852 c 0,0.506 0.229,0.759 0.759,0.759 h 15.905 c 0.506,0 0.784,-0.253 0.784,-0.759 V -3.263 h -2.25 v 1.114 z M 16.688,10.897 C 12.819,12.668 9.406,14.894 6.448,17.548 4.35,15.374 0.809,13.123 -4.173,10.848 l -1.238,1.997 c 5.791,2.224 9.558,4.602 11.226,7.054 L 7.914,19.546 7.636,19.091 c 2.806,-2.606 6.27,-4.704 10.392,-6.246 z" style="fill:#000000;fill-opacity:1;fill-rule:nonzero;stroke:none" transform="matrix(1.3333333,0,0,-1.3333333,755.5064,254.13093)"/><path id="path13" d="m 0,0 v -1.492 h 3.236 l 0.102,0.076 v 1.34 L 3.236,0 Z m 0.885,4.627 c 0.228,0 0.329,0.102 0.329,0.304 V 5.967 H -3.464 V 4.931 c 0,-0.202 0.101,-0.304 0.303,-0.304 z M -2.149,-1.492 V 0 h -3.162 c -0.075,0 -0.1,-0.025 -0.075,-0.076 v -1.34 l 0.075,-0.076 z m 12.29,6.852 h 4.247 c 0.581,-0.126 0.708,-0.152 0.708,-1.214 0,-6.194 -0.127,-10.443 -0.354,-12.693 -0.304,-2.452 -1.037,-4.121 -2.074,-4.854 -0.455,-0.329 -1.112,-0.506 -1.946,-0.506 -0.683,0 -1.493,0.1 -2.428,0.328 l -0.127,2.225 c 1.012,-0.252 1.821,-0.378 2.402,-0.378 0.532,0 0.91,0.1 1.113,0.277 0.658,0.531 1.087,2.808 1.189,6.776 0.051,2.58 0.075,4.528 0.075,5.867 0,1.315 -0.024,1.998 -0.075,2.048 L 12.668,3.313 H 10.114 C 9.963,-4.197 8.547,-9.912 5.993,-13.78 l -1.769,1.01 0.024,-0.101 -11.985,-0.784 -0.101,1.947 5.689,0.38 v 1.745 h -5.082 v 1.77 h 5.082 v 1.339 h -5.184 v 1.872 h 5.184 v 1.34 h -5.006 c -0.178,0 -0.279,0.101 -0.279,0.303 v 4.45 c 0,0.178 0.101,0.254 0.279,0.254 h 5.006 v 1.111 h -2.427 c -0.557,0 -0.835,0.305 -0.835,0.885 v 2.226 h -2.402 v 1.871 h 2.402 v 1.341 h 1.947 V 7.838 H 1.214 V 9.179 H 3.161 V 7.838 H 5.437 V 5.967 H 3.161 V 3.741 c 0,-0.58 -0.303,-0.885 -0.86,-0.885 H 0 V 1.745 h 5.082 c 0.203,0 0.304,-0.076 0.304,-0.254 v -4.45 c 0,-0.202 -0.101,-0.303 -0.304,-0.303 H 0 v -1.34 H 5.133 V -6.474 H 0 v -1.339 h 4.552 v -1.77 H 0 v -1.594 l 3.97,0.253 0.203,-1.567 C 6.65,-9.457 7.965,-4.173 8.066,3.313 H 5.486 V 5.36 h 2.606 v 3.945 h 2.049 z" style="fill:#000000;fill-opacity:1;fill-rule:nonzero;stroke:none" transform="matrix(1.3333333,0,0,-1.3333333,802.57413,240.00467)"/><path id="path14" d="m 633.514,132.369 h 10.114 v 1.594 h -10.114 z m 0,3.338 h 10.114 v 1.72 h -10.114 z m 0,3.464 h 10.114 v 1.618 h -10.114 z m 3.995,-15.905 v 2.301 h -5.284 v 1.947 h 5.284 v 1.821 h 2.149 v -1.821 h 5.235 v -1.947 h -5.235 v -2.301 h 9.761 v -1.947 h -21.544 v 1.947 z m 11.506,1.796 c -2.732,1.366 -5.058,3.16 -7.005,5.335 h -7.156 c -2.377,-2.579 -4.627,-4.349 -6.726,-5.234 l -1.289,1.795 c 1.998,0.91 3.742,2.074 5.208,3.439 h -4.981 v 1.972 h 4.299 v 8.42 h -3.692 v 1.947 h 3.692 v 1.416 h 2.149 v -1.416 h 10.114 v 1.416 h 2.149 v -1.416 h 3.844 v -1.947 h -3.844 v -8.42 h 4.451 v -1.997 h -5.563 c 1.315,-1.29 3.262,-2.504 5.766,-3.591 z" style="fill:#000000;fill-opacity:1;fill-rule:nonzero;stroke:none" transform="matrix(1.3333333,0,0,-1.3333333,0,419.80133)"/><path id="path15" d="M 0,0 C 1.062,1.415 2.074,2.933 2.908,4.45 L 4.652,3.21 C 3.565,1.415 2.529,-0.127 1.644,-1.315 Z m -10.67,-1.315 c -0.961,1.998 -1.871,3.539 -2.681,4.627 l 1.847,1.138 c 0.935,-1.214 1.846,-2.782 2.755,-4.729 z m 5.386,-0.228 v 6.245 h -9.836 v 2.15 h 9.836 v 2.983 h -5.79 v 2.149 H 2.681 V 9.835 H -3.16 V 6.852 H 6.625 V 4.702 H -3.16 v -6.245 h 9.987 v -2.149 h -22.149 v 2.149 z M 6.22,10.619 c -3.919,1.618 -7.383,3.692 -10.392,6.169 -2.023,-2.022 -5.589,-4.096 -10.645,-6.22 l -1.188,2.049 c 5.765,1.947 9.557,4.121 11.276,6.549 l 2.075,-0.431 -0.304,-0.429 C 0,15.828 3.49,13.932 7.484,12.642 Z" style="fill:#000000;fill-opacity:1;fill-rule:nonzero;stroke:none" transform="matrix(1.3333333,0,0,-1.3333333,901.02467,252.98387)"/><path id="path16" d="m 0,0 -0.936,-1.518 h 2.427 l 0.102,0.102 V 1.188 L 1.491,1.265 h -6.624 v -2.783 h 1.72 c 0.783,1.013 1.39,1.898 1.744,2.605 z M -3.06,5.993 -6.195,7.535 C -6.751,7.182 -7.712,6.625 -9.104,5.993 Z M 0.177,-9.532 h -12.39 v -1.366 h 12.39 z m -12.39,1.745 h 12.39 v 1.137 c 0,0.177 -0.102,0.278 -0.304,0.278 h -11.809 c -0.202,0 -0.302,-0.101 -0.277,-0.278 z m 1.897,8.925 c 0.479,-0.708 0.96,-1.593 1.39,-2.656 h 1.821 v 2.783 h -6.751 c -0.076,0 -0.102,-0.027 -0.076,-0.077 v -2.604 l 0.076,-0.102 h 2.756 l -0.962,1.72 z m -1.897,-13.806 v -0.91 h -2.048 v 8.623 c -0.026,0.201 0.075,0.327 0.329,0.327 H 1.795 c 0.278,0 0.43,-0.126 0.43,-0.404 v -8.546 H 0.177 v 0.91 z M 3.54,-3.085 c 0,-0.177 -0.102,-0.278 -0.278,-0.278 h -18.864 c -0.176,0 -0.277,0.101 -0.277,0.278 v 5.942 c 0,0.177 0.101,0.253 0.277,0.253 H 3.262 C 3.438,3.11 3.54,3.034 3.54,2.857 Z M 4.83,3.642 C 2.958,4.021 0.733,4.628 -1.795,5.462 V 4.146 h -8.598 v 1.34 c -1.92,-0.632 -4.146,-1.238 -6.726,-1.769 l -0.734,2.048 c 5.589,0.733 9.458,2.074 11.481,3.945 L -4.577,8.951 -4.754,8.774 C -1.543,7.156 1.922,6.119 5.613,5.689 Z" style="fill:#000000;fill-opacity:1;fill-rule:nonzero;stroke:none" transform="matrix(1.3333333,0,0,-1.3333333,947.384,240.44347)"/><path id="path17" d="m 0,0 h -10.863 v -7.558 h 9.983 v -5.625 h -9.983 v -11.959 h -6.935 V 5.646 H 0 Z" style="fill:#000000;fill-opacity:1;fill-rule:nonzero;stroke:none" transform="matrix(1.3333333,0,0,-1.3333333,599.20693,170.49813)"/><path id="path18" d="m 0,0 c -2.433,0 -4.365,-0.913 -5.797,-2.738 -1.431,-1.824 -2.146,-4.241 -2.146,-7.246 0,-3.048 0.715,-5.46 2.146,-7.236 1.432,-1.774 3.307,-2.662 5.626,-2.662 2.39,0 4.286,0.862 5.69,2.587 1.402,1.726 2.103,4.119 2.103,7.183 0,3.191 -0.68,5.675 -2.039,7.449 C 4.223,-0.888 2.362,0 0,0 m -0.3,-25.872 c -4.409,0 -8.002,1.435 -10.778,4.305 -2.777,2.87 -4.165,6.609 -4.165,11.218 0,4.867 1.409,8.803 4.229,11.809 2.82,3.006 6.556,4.509 11.207,4.509 4.395,0 7.948,-1.44 10.661,-4.317 2.711,-2.877 4.068,-6.67 4.068,-11.379 0,-4.837 -1.406,-8.738 -4.219,-11.701 -2.812,-2.963 -6.48,-4.444 -11.003,-4.444" style="fill:#000000;fill-opacity:1;fill-rule:nonzero;stroke:none" transform="matrix(1.3333333,0,0,-1.3333333,623.7108,170.2404)"/><path id="path19" d="m 0,0 c 0,-9.247 -4.308,-13.87 -12.925,-13.87 -8.359,0 -12.538,4.516 -12.538,13.548 v 17.777 h 6.956 V -0.408 c 0,-4.981 1.946,-7.472 5.84,-7.472 3.821,0 5.732,2.405 5.732,7.214 V 17.455 H 0 Z" style="fill:#000000;fill-opacity:1;fill-rule:nonzero;stroke:none" transform="matrix(1.3333333,0,0,-1.3333333,683.884,186.24293)"/><path id="path20" d="m 0,0 h -7 l -12.688,19.345 c -0.745,1.13 -1.26,1.982 -1.546,2.554 h -0.086 c 0.114,-1.087 0.172,-2.748 0.172,-4.981 V 0 h -6.548 v 30.788 h 7.47 L -8.009,12.045 C -7.45,11.2 -6.936,10.362 -6.463,9.532 h 0.086 c -0.115,0.716 -0.172,2.126 -0.172,4.231 V 30.788 H 0 Z" style="fill:#000000;fill-opacity:1;fill-rule:nonzero;stroke:none" transform="matrix(1.3333333,0,0,-1.3333333,729.746,204.02027)"/><path id="path21" d="m 0,0 v -19.517 h 3.435 c 3.005,0 5.364,0.903 7.075,2.705 1.71,1.804 2.565,4.259 2.565,7.365 0,2.934 -0.848,5.242 -2.544,6.924 C 8.835,-0.841 6.455,0 3.392,0 Z M -6.935,-25.142 V 5.646 H 3.972 c 10.935,0 16.403,-5.002 16.403,-15.007 0,-4.795 -1.492,-8.624 -4.477,-11.487 -2.984,-2.863 -6.96,-4.294 -11.926,-4.294 z" style="fill:#000000;fill-opacity:1;fill-rule:nonzero;stroke:none" transform="matrix(1.3333333,0,0,-1.3333333,748.38147,170.49813)"/><path id="path22" d="m 0,0 -3.307,10.349 c -0.243,0.772 -0.415,1.695 -0.515,2.769 H -3.993 C -4.065,12.216 -4.244,11.321 -4.53,10.434 L -7.88,0 Z M 11.336,-12.174 H 3.778 l -2.189,6.849 h -10.95 l -2.168,-6.849 h -7.515 l 11.207,30.788 h 8.224 z" style="fill:#000000;fill-opacity:1;fill-rule:nonzero;stroke:none" transform="matrix(1.3333333,0,0,-1.3333333,802.45693,187.78853)"/><path id="path23" d="m 0,0 h -8.781 v -25.142 h -6.956 V 0 h -8.739 V 5.646 H 0 Z" style="fill:#000000;fill-opacity:1;fill-rule:nonzero;stroke:none" transform="matrix(1.3333333,0,0,-1.3333333,847.4296,170.49813)"/><path id="path24" d="m 646.65,161.836 h -6.935 v 30.788 h 6.935 z" style="fill:#000000;fill-opacity:1;fill-rule:nonzero;stroke:none" transform="matrix(1.3333333,0,0,-1.3333333,0,419.80133)"/><path id="path25" d="m 0,0 c -2.433,0 -4.365,-0.913 -5.797,-2.738 -1.431,-1.824 -2.146,-4.241 -2.146,-7.246 0,-3.048 0.715,-5.46 2.146,-7.236 1.432,-1.774 3.307,-2.662 5.626,-2.662 2.39,0 4.286,0.862 5.69,2.587 1.402,1.726 2.103,4.119 2.103,7.183 0,3.191 -0.68,5.675 -2.039,7.449 C 4.223,-0.888 2.362,0 0,0 m -0.3,-25.872 c -4.409,0 -8.002,1.435 -10.778,4.305 -2.777,2.87 -4.165,6.609 -4.165,11.218 0,4.867 1.409,8.803 4.229,11.809 2.82,3.006 6.556,4.509 11.207,4.509 4.395,0 7.948,-1.44 10.661,-4.317 2.711,-2.877 4.068,-6.67 4.068,-11.379 0,-4.837 -1.406,-8.738 -4.219,-11.701 -2.812,-2.963 -6.48,-4.444 -11.003,-4.444" style="fill:#000000;fill-opacity:1;fill-rule:nonzero;stroke:none" transform="matrix(1.3333333,0,0,-1.3333333,889.2812,170.2404)"/><path id="path26" d="m 0,0 h -7 l -12.688,19.345 c -0.745,1.13 -1.26,1.982 -1.546,2.554 h -0.086 c 0.114,-1.087 0.172,-2.748 0.172,-4.981 V 0 h -6.548 v 30.788 h 7.47 L -8.009,12.045 C -7.45,11.2 -6.936,10.362 -6.463,9.532 h 0.086 c -0.115,0.716 -0.172,2.126 -0.172,4.231 V 30.788 H 0 Z" style="fill:#000000;fill-opacity:1;fill-rule:nonzero;stroke:none" transform="matrix(1.3333333,0,0,-1.3333333,952.9192,204.02027)"/></g></svg>
</svg>